<svg class="main-svg" xmlns="http://www.w3.org/2000/svg" xmlns:xlink="http://www.w3.org/1999/xlink" width="1600" height="600" style="" viewBox="0 0 1600 600"><rect x="0" y="0" width="1600" height="600" style="fill: rgb(255, 255, 255); fill-opacity: 1;"/><defs id="defs-3d7b4c"><g class="clips"><clipPath id="clip3d7b4cxyplot" class="plotclip"><rect width="637.2" height="210.37500000000003"/></clipPath><clipPath id="clip3d7b4cx2y2plot" class="plotclip"><rect width="637.1999999999999" height="210.37500000000003"/></clipPath><clipPath id="clip3d7b4cx3y3plot" class="plotclip"><rect width="637.2" height="210.375"/></clipPath><clipPath id="clip3d7b4cx4y4plot" class="plotclip"><rect width="637.1999999999999" height="210.375"/></clipPath><clipPath class="axesclip" id="clip3d7b4cx"><rect x="27" y="0" width="637.2" height="600"/></clipPath><clipPath class="axesclip" id="clip3d7b4cy"><rect x="0" y="60" width="1600" height="210.37500000000003"/></clipPath><clipPath class="axesclip" id="clip3d7b4cxy"><rect x="27" y="60" width="637.2" height="210.37500000000003"/></clipPath><clipPath class="axesclip" id="clip3d7b4cy2"><rect x="0" y="60" width="1600" height="210.37500000000003"/></clipPath><clipPath class="axesclip" id="clip3d7b4cxy2"><rect x="27" y="60" width="637.2" height="210.37500000000003"/></clipPath><clipPath class="axesclip" id="clip3d7b4cy3"><rect x="0" y="344.625" width="1600" height="210.375"/></clipPath><clipPath class="axesclip" id="clip3d7b4cxy3"><rect x="27" y="344.625" width="637.2" height="210.375"/></clipPath><clipPath class="axesclip" id="clip3d7b4cy4"><rect x="0" y="344.625" width="1600" height="210.375"/></clipPath><clipPath class="axesclip" id="clip3d7b4cxy4"><rect x="27" y="344.625" width="637.2" height="210.375"/></clipPath><clipPath class="axesclip" id="clip3d7b4cx2"><rect x="805.8000000000001" y="0" width="637.1999999999999" height="600"/></clipPath><clipPath class="axesclip" id="clip3d7b4cx2y"><rect x="805.8000000000001" y="60" width="637.1999999999999" height="210.37500000000003"/></clipPath><clipPath class="axesclip" id="clip3d7b4cx2y2"><rect x="805.8000000000001" y="60" width="637.1999999999999" height="210.37500000000003"/></clipPath><clipPath class="axesclip" id="clip3d7b4cx2y3"><rect x="805.8000000000001" y="344.625" width="637.1999999999999" height="210.375"/></clipPath><clipPath class="axesclip" id="clip3d7b4cx2y4"><rect x="805.8000000000001" y="344.625" width="637.1999999999999" height="210.375"/></clipPath><clipPath class="axesclip" id="clip3d7b4cx3"><rect x="27" y="0" width="637.2" height="600"/></clipPath><clipPath class="axesclip" id="clip3d7b4cx3y"><rect x="27" y="60" width="637.2" height="210.37500000000003"/></clipPath><clipPath class="axesclip" id="clip3d7b4cx3y2"><rect x="27" y="60" width="637.2" height="210.37500000000003"/></clipPath><clipPath class="axesclip" id="clip3d7b4cx3y3"><rect x="27" y="344.625" width="637.2" height="210.375"/></clipPath><clipPath class="axesclip" id="clip3d7b4cx3y4"><rect x="27" y="344.625" width="637.2" height="210.375"/></clipPath><clipPath class="axesclip" id="clip3d7b4cx4"><rect x="805.8000000000001" y="0" width="637.1999999999999" height="600"/></clipPath><clipPath class="axesclip" id="clip3d7b4cx4y"><rect x="805.8000000000001" y="60" width="637.1999999999999" height="210.37500000000003"/></clipPath><clipPath class="axesclip" id="clip3d7b4cx4y2"><rect x="805.8000000000001" y="60" width="637.1999999999999" height="210.37500000000003"/></clipPath><clipPath class="axesclip" id="clip3d7b4cx4y3"><rect x="805.8000000000001" y="344.625" width="637.1999999999999" height="210.375"/></clipPath><clipPath class="axesclip" id="clip3d7b4cx4y4"><rect x="805.8000000000001" y="344.625" width="637.1999999999999" height="210.375"/></clipPath></g><g class="gradients"/><g class="patterns"/></defs><g class="bglayer"><rect class="bg" x="27" y="60" width="637.2" height="210.37500000000003" style="fill: rgb(234, 234, 242); fill-opacity: 1; stroke-width: 0;"/><rect class="bg" x="805.8000000000001" y="60" width="637.1999999999999" height="210.37500000000003" style="fill: rgb(234, 234, 242); fill-opacity: 1; stroke-width: 0;"/><rect class="bg" x="27" y="344.625" width="637.2" height="210.375" style="fill: rgb(234, 234, 242); fill-opacity: 1; stroke-width: 0;"/><rect class="bg" x="805.8000000000001" y="344.625" width="637.1999999999999" height="210.375" style="fill: rgb(234, 234, 242); fill-opacity: 1; stroke-width: 0;"/></g><g class="layer-below"><g class="imagelayer"/><g class="shapelayer"/></g><g class="cartesianlayer"><g class="subplot xy"><g class="layer-subplot"><g class="shapelayer"/><g class="imagelayer"/></g><g class="minor-gridlayer"><g class="x"/><g class="y"/></g><g class="gridlayer"><g class="x"><path class="xgrid crisp" transform="translate(34.6,0)" d="M0,60v210.37500000000003" style="stroke: rgb(255, 255, 255); stroke-opacity: 1; stroke-width: 1px;"/><path class="xgrid crisp" transform="translate(125.81,0)" d="M0,60v210.37500000000003" style="stroke: rgb(255, 255, 255); stroke-opacity: 1; stroke-width: 1px;"/><path class="xgrid crisp" transform="translate(217.02,0)" d="M0,60v210.37500000000003" style="stroke: rgb(255, 255, 255); stroke-opacity: 1; stroke-width: 1px;"/><path class="xgrid crisp" transform="translate(308.23,0)" d="M0,60v210.37500000000003" style="stroke: rgb(255, 255, 255); stroke-opacity: 1; stroke-width: 1px;"/><path class="xgrid crisp" transform="translate(399.44,0)" d="M0,60v210.37500000000003" style="stroke: rgb(255, 255, 255); stroke-opacity: 1; stroke-width: 1px;"/><path class="xgrid crisp" transform="translate(490.65,0)" d="M0,60v210.37500000000003" style="stroke: rgb(255, 255, 255); stroke-opacity: 1; stroke-width: 1px;"/><path class="xgrid crisp" transform="translate(581.86,0)" d="M0,60v210.37500000000003" style="stroke: rgb(255, 255, 255); stroke-opacity: 1; stroke-width: 1px;"/></g><g class="y"><path class="ygrid crisp" transform="translate(0,268.83000000000004)" d="M27,0h637.2" style="stroke: rgb(255, 255, 255); stroke-opacity: 1; stroke-width: 1px;"/><path class="ygrid crisp" transform="translate(0,228.03)" d="M27,0h637.2" style="stroke: rgb(255, 255, 255); stroke-opacity: 1; stroke-width: 1px;"/><path class="ygrid crisp" transform="translate(0,187.22)" d="M27,0h637.2" style="stroke: rgb(255, 255, 255); stroke-opacity: 1; stroke-width: 1px;"/><path class="ygrid crisp" transform="translate(0,146.42000000000002)" d="M27,0h637.2" style="stroke: rgb(255, 255, 255); stroke-opacity: 1; stroke-width: 1px;"/><path class="ygrid crisp" transform="translate(0,105.61)" d="M27,0h637.2" style="stroke: rgb(255, 255, 255); stroke-opacity: 1; stroke-width: 1px;"/><path class="ygrid crisp" transform="translate(0,64.81)" d="M27,0h637.2" style="stroke: rgb(255, 255, 255); stroke-opacity: 1; stroke-width: 1px;"/></g></g><g class="zerolinelayer"/><path class="xlines-below"/><path class="ylines-below"/><g class="overlines-below"/><g class="xaxislayer-below"/><g class="yaxislayer-below"/><g class="overaxes-below"/><g class="plot" transform="translate(27,60)" clip-path="url(#clip3d7b4cxyplot)"><g class="scatterlayer mlayer"><g class="trace scatter trace5add17" style="stroke-miterlimit: 2; opacity: 1;"><g class="fills"/><g class="errorbars"/><g class="lines"><path class="js-line" d="M0,138.65L1.27,141.1L2.53,152.52L3.8,159.87L5.07,158.23L6.33,158.23L7.6,157.42L8.87,162.32L10.13,162.32L12.67,167.21L13.93,159.87L16.47,166.4L17.74,161.5L19,163.95L20.27,161.5L21.54,163.95L22.8,172.11L24.07,181.9L25.34,184.35L26.6,181.9L27.87,170.48L29.14,169.66L30.4,165.58L31.67,170.48L32.94,171.29L34.2,175.37L35.47,182.72L36.74,182.72L38,181.9L40.54,191.7L41.8,192.51L43.07,199.86L44.34,198.22L45.6,194.14L46.87,197.41L48.14,190.06L49.41,174.56L50.67,141.91L51.94,132.94L54.47,118.25L55.74,116.61L57.01,120.69L58.27,119.88L59.54,111.72L60.81,126.41L62.07,132.12L63.34,144.36L65.87,159.87L67.14,170.48L68.41,172.11L69.67,175.37L70.94,177.82L72.21,185.98L73.47,192.51L74.74,181.9L77.27,198.22L78.54,196.59L83.61,99.47L84.88,91.31L86.14,102.74L87.41,99.47L91.21,118.25L92.48,120.69L93.74,121.51L95.01,124.77L96.28,130.49L97.54,129.67L98.81,136.2L100.08,130.49L102.61,154.97L103.88,150.89L105.14,155.79L106.41,154.97L107.68,164.76L108.94,154.97L110.21,148.44L111.48,131.3L115.28,76.62L116.55,74.99L119.08,68.46L120.35,75.81L122.88,99.47L124.15,106L126.68,116.61L127.95,129.67L129.21,128.85L130.48,135.38L134.28,149.26L135.55,152.52L136.81,156.6L138.08,157.42L139.35,148.44L140.61,128.85L144.42,70.09L145.68,59.49L148.22,50.51L149.48,50.51L150.75,55.4L152.02,66.01L155.82,113.35L157.08,121.51L158.35,124.77L159.62,134.57L160.88,128.85L162.15,128.85L164.68,149.26L165.95,145.18L167.22,158.23L168.48,159.87L169.75,154.15L171.02,138.65L174.82,50.51L176.09,43.16L177.35,39.08L178.62,29.29L179.89,19.5L181.15,21.13L183.69,75.81L184.95,83.15L190.02,123.14L191.29,123.14L193.82,142.73L195.09,145.99L196.35,153.34L197.62,152.52L198.89,168.84L200.15,159.05L206.49,40.71L207.76,38.27L209.02,30.92L210.29,10.52L211.56,17.05L212.82,38.27L216.62,93.76L217.89,109.27L221.69,132.94L222.96,128.85L224.22,136.2L225.49,154.97L226.76,151.71L228.02,160.68L229.29,163.13L230.56,155.79L235.62,55.4L236.89,52.14L238.16,43.98L239.43,29.29L240.69,28.47L241.96,39.08L247.03,119.06L248.29,131.3L250.83,151.71L252.09,152.52L253.36,147.63L254.63,147.63L255.89,149.26L257.16,147.63L258.43,149.26L259.69,148.44L264.76,131.3L266.03,123.14L267.29,118.25L268.56,116.61L269.83,115.8L271.1,118.25L273.63,120.69L274.9,123.14L277.43,125.59L278.7,129.67L281.23,137.02L282.5,136.2L283.76,136.2L285.03,137.02L286.3,137.02L287.56,138.65L288.83,138.65L290.1,139.46L291.36,137.02L292.63,130.49L295.16,123.96L296.43,116.61L297.7,110.08L298.96,94.58L300.23,90.5L301.5,90.5L304.03,98.66L305.3,107.64L306.57,110.08L307.83,115.8L311.63,121.51L312.9,126.41L314.17,122.33L315.43,125.59L316.7,123.96L317.97,128.04L320.5,133.75L321.77,131.3L324.3,116.61L325.57,95.39L326.83,91.31L328.1,79.89L329.37,74.99L330.63,76.62L335.7,104.37L336.97,103.56L342.04,118.25L343.3,120.69L345.84,111.72L347.1,118.25L348.37,114.98L349.64,115.8L350.9,121.51L352.17,120.69L353.44,107.64L354.7,103.56L355.97,98.66L357.24,78.26L358.5,75.81L359.77,75.81L362.3,75.81L363.57,84.78L366.1,122.33L367.37,124.77L369.91,136.2L371.17,131.3L372.44,137.02L373.71,135.38L374.97,143.54L376.24,159.87L378.77,177.82L380.04,171.29L382.57,168.03L383.84,158.23L386.37,145.18L387.64,142.73L388.91,137.02L390.17,119.06L392.71,151.71L393.97,138.65L395.24,137.83L396.51,154.15L397.77,155.79L399.04,146.81L400.31,151.71L401.58,159.87L402.84,159.05L404.11,161.5L405.38,157.42L406.64,163.13L407.91,166.4L409.18,160.68L410.44,161.5L411.71,164.76L412.98,159.87L414.24,158.23L415.51,150.89L416.78,126.41L418.04,122.33L419.31,111.72L420.58,114.16L421.84,157.42L423.11,171.29L424.38,154.15L425.64,162.32L426.91,162.32L428.18,161.5L429.44,165.58L430.71,167.21L431.98,164.76L433.25,165.58L434.51,159.87L435.78,175.37L437.05,172.11L438.31,173.74L439.58,168.84L440.85,187.61L442.11,183.53L443.38,178.64L444.65,179.45L447.18,159.87L448.45,138.65L449.71,133.75L450.98,133.75L453.51,105.19L454.78,110.08L457.31,140.28L458.58,146.81L459.85,150.07L461.11,163.13L463.65,171.29L464.92,170.48L466.18,172.92L467.45,182.72L469.98,186.8L471.25,184.35L472.52,180.27L473.78,169.66L475.05,158.23L476.32,128.85L478.85,92.95L480.12,93.76L482.65,133.75L483.92,140.28L485.18,133.75L486.45,150.89L487.72,164.76L488.98,168.03L491.52,170.48L492.78,168.84L499.12,189.25L500.39,182.72L501.65,198.22L502.92,190.88L504.19,190.88L505.45,159.05L507.99,104.37L509.25,106L510.52,93.76L511.79,105.19L513.05,104.37L514.32,97.03L518.12,129.67L519.39,138.65L523.19,160.68L524.45,160.68L525.72,165.58L526.99,173.74L528.26,182.72L529.52,181.9L530.79,171.29L532.06,186.8L533.32,189.25L534.59,170.48L539.66,75.81L540.92,76.62L542.19,97.84L543.46,102.74L544.72,101.11L545.99,110.9L549.79,140.28L551.06,149.26L553.59,155.79L554.86,163.13L556.12,162.32L557.39,164.76L558.66,167.21L559.93,157.42L561.19,167.21L562.46,168.84L563.73,183.53L564.99,160.68L566.26,153.34L567.53,136.2L570.06,114.98L571.33,106.82L573.86,101.11L575.13,102.74L578.93,131.3L580.19,141.91L581.46,142.73L582.73,139.46L583.99,148.44L585.26,142.73L587.79,163.95L589.06,154.15L591.6,144.36L592.86,157.42L594.13,152.52L595.4,141.1L597.93,103.56L599.2,100.29L601.73,66.83L603,79.07L605.53,101.92L606.8,108.45L608.06,120.69L609.33,119.88L610.6,119.88L611.86,127.22L613.13,126.41L614.4,128.04L616.93,128.85L618.2,128.85L619.46,133.75L620.73,131.3L622,130.49L623.27,132.12L625.8,141.91L627.07,164.76L629.6,150.07L630.87,149.26L632.13,157.42L633.4,138.65L635.93,121.51L637.2,125.59" style="vector-effect: none; fill: none; stroke: rgb(76, 114, 176); stroke-opacity: 1; stroke-width: 2px; opacity: 1;"/></g><g class="points"/><g class="text"/></g></g></g><g class="overplot"/><path class="xlines-above crisp" d="M0,0" style="fill: none;"/><path class="ylines-above crisp" d="M0,0" style="fill: none;"/><g class="overlines-above"/><g class="xaxislayer-above"><g class="xtick"><text text-anchor="middle" x="0" y="283.375" transform="translate(34.6,0)" style="font-family: 'Open Sans', verdana, arial, sans-serif; font-size: 12px; fill: rgb(36, 36, 36); fill-opacity: 1; white-space: pre; opacity: 1;"><tspan class="line" dy="0em" x="0" y="283.375">Mar 11</tspan><tspan class="line" dy="1.3em" x="0" y="283.375">2004</tspan></text></g><g class="xtick"><text text-anchor="middle" x="0" y="283.375" style="font-family: 'Open Sans', verdana, arial, sans-serif; font-size: 12px; fill: rgb(36, 36, 36); fill-opacity: 1; white-space: pre; opacity: 1;" transform="translate(125.81,0)">Mar 14</text></g><g class="xtick"><text text-anchor="middle" x="0" y="283.375" style="font-family: 'Open Sans', verdana, arial, sans-serif; font-size: 12px; fill: rgb(36, 36, 36); fill-opacity: 1; white-space: pre; opacity: 1;" transform="translate(217.02,0)">Mar 17</text></g><g class="xtick"><text text-anchor="middle" x="0" y="283.375" style="font-family: 'Open Sans', verdana, arial, sans-serif; font-size: 12px; fill: rgb(36, 36, 36); fill-opacity: 1; white-space: pre; opacity: 1;" transform="translate(308.23,0)">Mar 20</text></g><g class="xtick"><text text-anchor="middle" x="0" y="283.375" style="font-family: 'Open Sans', verdana, arial, sans-serif; font-size: 12px; fill: rgb(36, 36, 36); fill-opacity: 1; white-space: pre; opacity: 1;" transform="translate(399.44,0)">Mar 23</text></g><g class="xtick"><text text-anchor="middle" x="0" y="283.375" style="font-family: 'Open Sans', verdana, arial, sans-serif; font-size: 12px; fill: rgb(36, 36, 36); fill-opacity: 1; white-space: pre; opacity: 1;" transform="translate(490.65,0)">Mar 26</text></g><g class="xtick"><text text-anchor="middle" x="0" y="283.375" style="font-family: 'Open Sans', verdana, arial, sans-serif; font-size: 12px; fill: rgb(36, 36, 36); fill-opacity: 1; white-space: pre; opacity: 1;" transform="translate(581.86,0)">Mar 29</text></g></g><g class="yaxislayer-above"><g class="ytick"><text text-anchor="end" x="26" y="4.199999999999999" transform="translate(0,268.83000000000004)" style="font-family: 'Open Sans', verdana, arial, sans-serif; font-size: 12px; fill: rgb(36, 36, 36); fill-opacity: 1; white-space: pre; opacity: 1;">5</text></g><g class="ytick"><text text-anchor="end" x="26" y="4.199999999999999" style="font-family: 'Open Sans', verdana, arial, sans-serif; font-size: 12px; fill: rgb(36, 36, 36); fill-opacity: 1; white-space: pre; opacity: 1;" transform="translate(0,228.03)">10</text></g><g class="ytick"><text text-anchor="end" x="26" y="4.199999999999999" style="font-family: 'Open Sans', verdana, arial, sans-serif; font-size: 12px; fill: rgb(36, 36, 36); fill-opacity: 1; white-space: pre; opacity: 1;" transform="translate(0,187.22)">15</text></g><g class="ytick"><text text-anchor="end" x="26" y="4.199999999999999" style="font-family: 'Open Sans', verdana, arial, sans-serif; font-size: 12px; fill: rgb(36, 36, 36); fill-opacity: 1; white-space: pre; opacity: 1;" transform="translate(0,146.42000000000002)">20</text></g><g class="ytick"><text text-anchor="end" x="26" y="4.199999999999999" style="font-family: 'Open Sans', verdana, arial, sans-serif; font-size: 12px; fill: rgb(36, 36, 36); fill-opacity: 1; white-space: pre; opacity: 1;" transform="translate(0,105.61)">25</text></g><g class="ytick"><text text-anchor="end" x="26" y="4.199999999999999" style="font-family: 'Open Sans', verdana, arial, sans-serif; font-size: 12px; fill: rgb(36, 36, 36); fill-opacity: 1; white-space: pre; opacity: 1;" transform="translate(0,64.81)">30</text></g></g><g class="overaxes-above"/></g><g class="subplot x2y2"><g class="layer-subplot"><g class="shapelayer"/><g class="imagelayer"/></g><g class="minor-gridlayer"><g class="x2"/><g class="y2"/></g><g class="gridlayer"><g class="x2"><path class="x2grid crisp" transform="translate(813.4000000000001,0)" d="M0,60v210.37500000000003" style="stroke: rgb(255, 255, 255); stroke-opacity: 1; stroke-width: 1px;"/><path class="x2grid crisp" transform="translate(904.6100000000001,0)" d="M0,60v210.37500000000003" style="stroke: rgb(255, 255, 255); stroke-opacity: 1; stroke-width: 1px;"/><path class="x2grid crisp" transform="translate(995.82,0)" d="M0,60v210.37500000000003" style="stroke: rgb(255, 255, 255); stroke-opacity: 1; stroke-width: 1px;"/><path class="x2grid crisp" transform="translate(1087.0300000000002,0)" d="M0,60v210.37500000000003" style="stroke: rgb(255, 255, 255); stroke-opacity: 1; stroke-width: 1px;"/><path class="x2grid crisp" transform="translate(1178.24,0)" d="M0,60v210.37500000000003" style="stroke: rgb(255, 255, 255); stroke-opacity: 1; stroke-width: 1px;"/><path class="x2grid crisp" transform="translate(1269.45,0)" d="M0,60v210.37500000000003" style="stroke: rgb(255, 255, 255); stroke-opacity: 1; stroke-width: 1px;"/><path class="x2grid crisp" transform="translate(1360.66,0)" d="M0,60v210.37500000000003" style="stroke: rgb(255, 255, 255); stroke-opacity: 1; stroke-width: 1px;"/></g><g class="y2"><path class="y2grid crisp" transform="translate(0,254.19)" d="M805.8000000000001,0h637.1999999999999" style="stroke: rgb(255, 255, 255); stroke-opacity: 1; stroke-width: 1px;"/><path class="y2grid crisp" transform="translate(0,211.8)" d="M805.8000000000001,0h637.1999999999999" style="stroke: rgb(255, 255, 255); stroke-opacity: 1; stroke-width: 1px;"/><path class="y2grid crisp" transform="translate(0,127.02)" d="M805.8000000000001,0h637.1999999999999" style="stroke: rgb(255, 255, 255); stroke-opacity: 1; stroke-width: 1px;"/><path class="y2grid crisp" transform="translate(0,84.63)" d="M805.8000000000001,0h637.1999999999999" style="stroke: rgb(255, 255, 255); stroke-opacity: 1; stroke-width: 1px;"/></g></g><g class="zerolinelayer"><path class="y2zl zl crisp" transform="translate(0,169.41)" d="M805.8000000000001,0h637.1999999999999" style="stroke: rgb(255, 255, 255); stroke-opacity: 1; stroke-width: 1px;"/></g><path class="xlines-below"/><path class="ylines-below"/><g class="overlines-below"/><g class="xaxislayer-below"/><g class="yaxislayer-below"/><g class="overaxes-below"/><g class="plot" transform="translate(805.8000000000001,60)" clip-path="url(#clip3d7b4cx2y2plot)"><g class="scatterlayer mlayer"><g class="trace scatter trace29ccf8" style="stroke-miterlimit: 2; opacity: 1;"><g class="fills"/><g class="errorbars"/><g class="lines"><path class="js-line" d="M0,55.8L2.53,99.23L3.8,115.18L7.6,150.53L8.87,154.79L12.67,182.23L13.93,180.58L16.47,199.86L17.74,181.67L24.07,10.52L25.34,13.03L26.6,17.45L27.87,16.99L29.14,24.38L30.4,55.8L32.94,99.23L34.2,115.18L38,150.53L39.27,154.79L43.07,182.23L44.34,180.58L46.87,199.86L48.14,181.67L54.47,10.52L55.74,13.03L57.01,17.45L58.27,16.99L59.54,24.38L60.81,55.8L63.34,99.23L64.61,115.18L68.41,150.53L69.67,154.79L73.47,182.23L74.74,180.58L77.27,199.86L78.54,181.67L84.88,10.52L86.14,13.03L87.41,17.45L88.68,16.99L89.94,24.38L91.21,55.8L93.74,99.23L95.01,115.18L98.81,150.53L100.08,154.79L103.88,182.23L105.14,180.58L107.68,199.86L108.94,181.67L115.28,10.52L116.55,13.03L117.81,17.45L119.08,16.99L120.35,24.38L121.61,55.8L124.15,99.23L125.41,115.18L129.21,150.53L130.48,154.79L134.28,182.23L135.55,180.58L138.08,199.86L139.35,181.67L145.68,10.52L146.95,13.03L148.22,17.45L149.48,16.99L150.75,24.38L152.02,55.8L154.55,99.23L155.82,115.18L159.62,150.53L160.88,154.79L164.68,182.23L165.95,180.58L168.48,199.86L169.75,181.67L176.09,10.52L177.35,13.03L178.62,17.45L179.89,16.99L181.15,24.38L182.42,55.8L184.95,99.23L186.22,115.18L190.02,150.53L191.29,154.79L195.09,182.23L196.35,180.58L198.89,199.86L200.15,181.67L206.49,10.52L207.76,13.03L209.02,17.45L210.29,16.99L211.56,24.38L212.82,55.8L215.36,99.23L216.62,115.18L220.42,150.53L221.69,154.79L225.49,182.23L226.76,180.58L229.29,199.86L230.56,181.67L236.89,10.52L238.16,13.03L239.43,17.45L240.69,16.99L241.96,24.38L243.23,55.8L245.76,99.23L247.03,115.18L250.83,150.53L252.09,154.79L255.89,182.23L257.16,180.58L259.69,199.86L260.96,181.67L267.29,10.52L268.56,13.03L269.83,17.45L271.1,16.99L272.36,24.38L273.63,55.8L276.16,99.23L277.43,115.18L281.23,150.53L282.5,154.79L286.3,182.23L287.56,180.58L290.1,199.86L291.36,181.67L297.7,10.52L298.96,13.03L300.23,17.45L301.5,16.99L302.77,24.38L304.03,55.8L306.57,99.23L307.83,115.18L311.63,150.53L312.9,154.79L316.7,182.23L317.97,180.58L320.5,199.86L321.77,181.67L328.1,10.52L329.37,13.03L330.63,17.45L331.9,16.99L333.17,24.38L334.43,55.8L336.97,99.23L338.24,115.18L342.04,150.53L343.3,154.79L347.1,182.23L348.37,180.58L350.9,199.86L352.17,181.67L358.5,10.52L359.77,13.03L361.04,17.45L362.3,16.99L363.57,24.38L364.84,55.8L367.37,99.23L368.64,115.18L372.44,150.53L373.71,154.79L377.51,182.23L378.77,180.58L381.31,199.86L382.57,181.67L388.91,10.52L390.17,13.03L391.44,17.45L392.71,16.99L393.97,24.38L395.24,55.8L397.77,99.23L399.04,115.18L402.84,150.53L404.11,154.79L407.91,182.23L409.18,180.58L411.71,199.86L412.98,181.67L419.31,10.52L420.58,13.03L421.84,17.45L423.11,16.99L424.38,24.38L425.64,55.8L428.18,99.23L429.44,115.18L433.25,150.53L434.51,154.79L438.31,182.23L439.58,180.58L442.11,199.86L443.38,181.67L449.71,10.52L450.98,13.03L452.25,17.45L453.51,16.99L454.78,24.38L456.05,55.8L458.58,99.23L459.85,115.18L463.65,150.53L464.92,154.79L468.72,182.23L469.98,180.58L472.52,199.86L473.78,181.67L480.12,10.52L481.38,13.03L482.65,17.45L483.92,16.99L485.18,24.38L486.45,55.8L488.98,99.23L490.25,115.18L494.05,150.53L495.32,154.79L499.12,182.23L500.39,180.58L502.92,199.86L504.19,181.67L510.52,10.52L511.79,13.03L513.05,17.45L514.32,16.99L515.59,24.38L516.85,55.8L519.39,99.23L520.65,115.18L524.45,150.53L525.72,154.79L529.52,182.23L530.79,180.58L533.32,199.86L534.59,181.67L540.92,10.52L542.19,13.03L543.46,17.45L544.72,16.99L545.99,24.38L547.26,55.8L549.79,99.23L551.06,115.18L554.86,150.53L556.12,154.79L559.93,182.23L561.19,180.58L563.73,199.86L564.99,181.67L571.33,10.52L572.59,13.03L573.86,17.45L575.13,16.99L576.39,24.38L577.66,55.8L580.19,99.23L581.46,115.18L585.26,150.53L586.53,154.79L590.33,182.23L591.6,180.58L594.13,199.86L595.4,181.67L601.73,10.52L603,13.03L604.26,17.45L605.53,16.99L606.8,24.38L608.06,55.8L610.6,99.23L611.86,115.18L615.66,150.53L616.93,154.79L620.73,182.23L622,180.58L624.53,199.86L625.8,181.67L632.13,10.52L633.4,13.03L634.67,17.45L635.93,16.99L637.2,24.38" style="vector-effect: none; fill: none; stroke: rgb(85, 168, 104); stroke-opacity: 1; stroke-width: 2px; opacity: 1;"/></g><g class="points"/><g class="text"/></g></g></g><g class="overplot"/><path class="xlines-above crisp" d="M0,0" style="fill: none;"/><path class="ylines-above crisp" d="M0,0" style="fill: none;"/><g class="overlines-above"/><g class="xaxislayer-above"><g class="x2tick"><text text-anchor="middle" x="0" y="283.375" transform="translate(813.4000000000001,0)" style="font-family: 'Open Sans', verdana, arial, sans-serif; font-size: 12px; fill: rgb(36, 36, 36); fill-opacity: 1; white-space: pre; opacity: 1;"><tspan class="line" dy="0em" x="0" y="283.375">Mar 11</tspan><tspan class="line" dy="1.3em" x="0" y="283.375">2004</tspan></text></g><g class="x2tick"><text text-anchor="middle" x="0" y="283.375" style="font-family: 'Open Sans', verdana, arial, sans-serif; font-size: 12px; fill: rgb(36, 36, 36); fill-opacity: 1; white-space: pre; opacity: 1;" transform="translate(904.6100000000001,0)">Mar 14</text></g><g class="x2tick"><text text-anchor="middle" x="0" y="283.375" style="font-family: 'Open Sans', verdana, arial, sans-serif; font-size: 12px; fill: rgb(36, 36, 36); fill-opacity: 1; white-space: pre; opacity: 1;" transform="translate(995.82,0)">Mar 17</text></g><g class="x2tick"><text text-anchor="middle" x="0" y="283.375" style="font-family: 'Open Sans', verdana, arial, sans-serif; font-size: 12px; fill: rgb(36, 36, 36); fill-opacity: 1; white-space: pre; opacity: 1;" transform="translate(1087.0300000000002,0)">Mar 20</text></g><g class="x2tick"><text text-anchor="middle" x="0" y="283.375" style="font-family: 'Open Sans', verdana, arial, sans-serif; font-size: 12px; fill: rgb(36, 36, 36); fill-opacity: 1; white-space: pre; opacity: 1;" transform="translate(1178.24,0)">Mar 23</text></g><g class="x2tick"><text text-anchor="middle" x="0" y="283.375" style="font-family: 'Open Sans', verdana, arial, sans-serif; font-size: 12px; fill: rgb(36, 36, 36); fill-opacity: 1; white-space: pre; opacity: 1;" transform="translate(1269.45,0)">Mar 26</text></g><g class="x2tick"><text text-anchor="middle" x="0" y="283.375" style="font-family: 'Open Sans', verdana, arial, sans-serif; font-size: 12px; fill: rgb(36, 36, 36); fill-opacity: 1; white-space: pre; opacity: 1;" transform="translate(1360.66,0)">Mar 29</text></g></g><g class="yaxislayer-above"><g class="y2tick"><text text-anchor="end" x="804.8000000000001" y="4.199999999999999" transform="translate(0,254.19)" style="font-family: 'Open Sans', verdana, arial, sans-serif; font-size: 12px; fill: rgb(36, 36, 36); fill-opacity: 1; white-space: pre; opacity: 1;">−4</text></g><g class="y2tick"><text text-anchor="end" x="804.8000000000001" y="4.199999999999999" style="font-family: 'Open Sans', verdana, arial, sans-serif; font-size: 12px; fill: rgb(36, 36, 36); fill-opacity: 1; white-space: pre; opacity: 1;" transform="translate(0,211.8)">−2</text></g><g class="y2tick"><text text-anchor="end" x="804.8000000000001" y="4.199999999999999" style="font-family: 'Open Sans', verdana, arial, sans-serif; font-size: 12px; fill: rgb(36, 36, 36); fill-opacity: 1; white-space: pre; opacity: 1;" transform="translate(0,169.41)">0</text></g><g class="y2tick"><text text-anchor="end" x="804.8000000000001" y="4.199999999999999" style="font-family: 'Open Sans', verdana, arial, sans-serif; font-size: 12px; fill: rgb(36, 36, 36); fill-opacity: 1; white-space: pre; opacity: 1;" transform="translate(0,127.02)">2</text></g><g class="y2tick"><text text-anchor="end" x="804.8000000000001" y="4.199999999999999" style="font-family: 'Open Sans', verdana, arial, sans-serif; font-size: 12px; fill: rgb(36, 36, 36); fill-opacity: 1; white-space: pre; opacity: 1;" transform="translate(0,84.63)">4</text></g></g><g class="overaxes-above"/></g><g class="subplot x3y3"><g class="layer-subplot"><g class="shapelayer"/><g class="imagelayer"/></g><g class="minor-gridlayer"><g class="x3"/><g class="y3"/></g><g class="gridlayer"><g class="x3"><path class="x3grid crisp" transform="translate(34.6,0)" d="M0,344.625v210.375" style="stroke: rgb(255, 255, 255); stroke-opacity: 1; stroke-width: 1px;"/><path class="x3grid crisp" transform="translate(125.81,0)" d="M0,344.625v210.375" style="stroke: rgb(255, 255, 255); stroke-opacity: 1; stroke-width: 1px;"/><path class="x3grid crisp" transform="translate(217.02,0)" d="M0,344.625v210.375" style="stroke: rgb(255, 255, 255); stroke-opacity: 1; stroke-width: 1px;"/><path class="x3grid crisp" transform="translate(308.23,0)" d="M0,344.625v210.375" style="stroke: rgb(255, 255, 255); stroke-opacity: 1; stroke-width: 1px;"/><path class="x3grid crisp" transform="translate(399.44,0)" d="M0,344.625v210.375" style="stroke: rgb(255, 255, 255); stroke-opacity: 1; stroke-width: 1px;"/><path class="x3grid crisp" transform="translate(490.65,0)" d="M0,344.625v210.375" style="stroke: rgb(255, 255, 255); stroke-opacity: 1; stroke-width: 1px;"/><path class="x3grid crisp" transform="translate(581.86,0)" d="M0,344.625v210.375" style="stroke: rgb(255, 255, 255); stroke-opacity: 1; stroke-width: 1px;"/></g><g class="y3"><path class="y3grid crisp" transform="translate(0,552.725)" d="M27,0h637.2" style="stroke: rgb(255, 255, 255); stroke-opacity: 1; stroke-width: 1px;"/><path class="y3grid crisp" transform="translate(0,516.255)" d="M27,0h637.2" style="stroke: rgb(255, 255, 255); stroke-opacity: 1; stroke-width: 1px;"/><path class="y3grid crisp" transform="translate(0,479.78499999999997)" d="M27,0h637.2" style="stroke: rgb(255, 255, 255); stroke-opacity: 1; stroke-width: 1px;"/><path class="y3grid crisp" transform="translate(0,443.315)" d="M27,0h637.2" style="stroke: rgb(255, 255, 255); stroke-opacity: 1; stroke-width: 1px;"/><path class="y3grid crisp" transform="translate(0,406.845)" d="M27,0h637.2" style="stroke: rgb(255, 255, 255); stroke-opacity: 1; stroke-width: 1px;"/><path class="y3grid crisp" transform="translate(0,370.375)" d="M27,0h637.2" style="stroke: rgb(255, 255, 255); stroke-opacity: 1; stroke-width: 1px;"/></g></g><g class="zerolinelayer"/><path class="xlines-below"/><path class="ylines-below"/><g class="overlines-below"/><g class="xaxislayer-below"/><g class="yaxislayer-below"/><g class="overaxes-below"/><g class="plot" transform="translate(27,344.625)" clip-path="url(#clip3d7b4cx3y3plot)"><g class="scatterlayer mlayer"><g class="trace scatter trace4dbe8f" style="stroke-miterlimit: 2; opacity: 1;"><g class="fills"/><g class="errorbars"/><g class="lines"><path class="js-line" d="M15.2,162.85L19,169.31L20.27,171.17L27.87,185.91L29.14,189.22L32.94,198.03L34.2,199.86L35.47,199.44L36.74,197.08L39.27,188.5L40.54,182.38L45.6,161.6L46.87,157.99L50.67,150.36L51.94,148.72L60.81,141.92L62.07,141.81L65.87,142.45L67.14,142.26L73.47,132.77L74.74,132.2L77.27,130.98L78.54,129.39L82.34,121.26L83.61,117.69L89.94,101.05L91.21,98.16L96.28,86.57L97.54,85.28L100.08,83.42L101.34,81.44L105.14,72.25L106.41,69.14L108.94,65.07L110.21,63.82L112.75,61.99L114.01,61.65L117.81,60.7L119.08,60.25L124.15,59.03L125.41,57.82L138.08,38.59L139.35,37.57L141.88,37.53L143.15,37.53L145.68,37.53L146.95,36.69L149.48,35.4L150.75,35.06L153.28,34.98L154.55,35.36L157.08,36.39L158.35,35.63L163.42,29.25L164.68,26.82L167.22,21.65L168.48,20.78L171.02,17.96L172.28,16.26L176.09,13.03L177.35,13.03L181.15,13.75L182.42,13.86L191.29,14.77L192.55,14.62L195.09,14.32L196.35,13.71L200.15,10.59L201.42,10.52L205.22,11.81L206.49,12.53L207.76,12.72L209.02,12.15L215.36,12.61L216.62,12.38L220.42,12.65L221.69,13.37L225.49,15.12L226.76,16.98L238.16,34.91L239.43,36.31L241.96,36.12L243.23,35.4L247.03,32.63L248.29,34.38L250.83,43.8L252.09,50.03L255.89,72.1L257.16,80L259.69,91.17L260.96,94.36L262.23,95.88L263.49,96.11L266.03,94.51L267.29,93.07L272.36,88.7L273.63,87.79L279.96,83.91L281.23,83.27L283.76,81.18L285.03,78.98L290.1,70.09L291.36,68.72L305.3,56.87L306.57,56.33L309.1,55.04L310.37,53.22L315.43,44.25L316.7,43.3L329.37,39.01L330.63,38.1L335.7,33.69L336.97,32.63L340.77,29.48L342.04,29.02L344.57,28.07L345.84,28.07L349.64,27.23L350.9,28.64L359.77,41.82L361.04,45.32L372.44,88.55L373.71,94.4L380.04,120.08L381.31,122.81L383.84,127.9L385.11,129.35L390.17,137.86L391.44,138.66L392.71,138.77L393.97,137.93L396.51,136L397.77,135.39L401.58,134.06L402.84,132.24L405.38,128.7L406.64,129.54L411.71,136.53L412.98,137.17L418.04,141.39L419.31,141.62L424.38,145.11L425.64,146.71L435.78,162.82L437.05,161.94L440.85,148.31L442.11,145.68L445.91,141.66L447.18,141.66L453.51,144.62L454.78,145.95L456.05,146.63L457.31,146.33L458.58,145.76L459.85,144.35L462.38,137.29L463.65,132.96L466.18,126.31L467.45,126.2L475.05,139.64L476.32,140.9L481.38,142.72L482.65,143.33L486.45,144.16L487.72,145.3L490.25,147.81L491.52,147.58L492.78,146.94L494.05,147.17L495.32,147.77L496.59,147.24L497.85,145.34L499.12,141.96L505.45,127.9L506.72,126.08L513.05,121.07L514.32,120.61L520.65,115.56L521.92,114.53L524.45,111.57L525.72,109.37L528.26,107.81L529.52,107.92L538.39,108.8L539.66,108.68L542.19,108.07L543.46,106.93L545.99,103.74L547.26,102.72L549.79,100.89L551.06,100.7L553.59,104.54L554.86,107.73L557.39,112.63L558.66,112.82L564.99,112.29L566.26,112.06L576.39,104.24L577.66,102.64L581.46,95.69L582.73,92.46L589.06,79.28L590.33,78.9L594.13,78.33L595.4,76.77L603,65.83L604.26,63.25L609.33,56.18L610.6,55.5L611.86,57.78L613.13,62.45L615.66,72.74L616.93,80.19L619.46,91.55L620.73,94.06L622,95.77" style="vector-effect: none; fill: none; stroke: rgb(221, 132, 82); stroke-opacity: 1; stroke-width: 2px; opacity: 1;"/></g><g class="points"/><g class="text"/></g></g></g><g class="overplot"/><path class="xlines-above crisp" d="M0,0" style="fill: none;"/><path class="ylines-above crisp" d="M0,0" style="fill: none;"/><g class="overlines-above"/><g class="xaxislayer-above"><g class="x3tick"><text text-anchor="middle" x="0" y="568" transform="translate(34.6,0)" style="font-family: 'Open Sans', verdana, arial, sans-serif; font-size: 12px; fill: rgb(36, 36, 36); fill-opacity: 1; white-space: pre; opacity: 1;"><tspan class="line" dy="0em" x="0" y="568">Mar 11</tspan><tspan class="line" dy="1.3em" x="0" y="568">2004</tspan></text></g><g class="x3tick"><text text-anchor="middle" x="0" y="568" style="font-family: 'Open Sans', verdana, arial, sans-serif; font-size: 12px; fill: rgb(36, 36, 36); fill-opacity: 1; white-space: pre; opacity: 1;" transform="translate(125.81,0)">Mar 14</text></g><g class="x3tick"><text text-anchor="middle" x="0" y="568" style="font-family: 'Open Sans', verdana, arial, sans-serif; font-size: 12px; fill: rgb(36, 36, 36); fill-opacity: 1; white-space: pre; opacity: 1;" transform="translate(217.02,0)">Mar 17</text></g><g class="x3tick"><text text-anchor="middle" x="0" y="568" style="font-family: 'Open Sans', verdana, arial, sans-serif; font-size: 12px; fill: rgb(36, 36, 36); fill-opacity: 1; white-space: pre; opacity: 1;" transform="translate(308.23,0)">Mar 20</text></g><g class="x3tick"><text text-anchor="middle" x="0" y="568" style="font-family: 'Open Sans', verdana, arial, sans-serif; font-size: 12px; fill: rgb(36, 36, 36); fill-opacity: 1; white-space: pre; opacity: 1;" transform="translate(399.44,0)">Mar 23</text></g><g class="x3tick"><text text-anchor="middle" x="0" y="568" style="font-family: 'Open Sans', verdana, arial, sans-serif; font-size: 12px; fill: rgb(36, 36, 36); fill-opacity: 1; white-space: pre; opacity: 1;" transform="translate(490.65,0)">Mar 26</text></g><g class="x3tick"><text text-anchor="middle" x="0" y="568" style="font-family: 'Open Sans', verdana, arial, sans-serif; font-size: 12px; fill: rgb(36, 36, 36); fill-opacity: 1; white-space: pre; opacity: 1;" transform="translate(581.86,0)">Mar 29</text></g></g><g class="yaxislayer-above"><g class="y3tick"><text text-anchor="end" x="26" y="4.199999999999999" transform="translate(0,552.725)" style="font-family: 'Open Sans', verdana, arial, sans-serif; font-size: 12px; fill: rgb(36, 36, 36); fill-opacity: 1; white-space: pre; opacity: 1;">8</text></g><g class="y3tick"><text text-anchor="end" x="26" y="4.199999999999999" style="font-family: 'Open Sans', verdana, arial, sans-serif; font-size: 12px; fill: rgb(36, 36, 36); fill-opacity: 1; white-space: pre; opacity: 1;" transform="translate(0,516.255)">10</text></g><g class="y3tick"><text text-anchor="end" x="26" y="4.199999999999999" style="font-family: 'Open Sans', verdana, arial, sans-serif; font-size: 12px; fill: rgb(36, 36, 36); fill-opacity: 1; white-space: pre; opacity: 1;" transform="translate(0,479.78499999999997)">12</text></g><g class="y3tick"><text text-anchor="end" x="26" y="4.199999999999999" style="font-family: 'Open Sans', verdana, arial, sans-serif; font-size: 12px; fill: rgb(36, 36, 36); fill-opacity: 1; white-space: pre; opacity: 1;" transform="translate(0,443.315)">14</text></g><g class="y3tick"><text text-anchor="end" x="26" y="4.199999999999999" style="font-family: 'Open Sans', verdana, arial, sans-serif; font-size: 12px; fill: rgb(36, 36, 36); fill-opacity: 1; white-space: pre; opacity: 1;" transform="translate(0,406.845)">16</text></g><g class="y3tick"><text text-anchor="end" x="26" y="4.199999999999999" style="font-family: 'Open Sans', verdana, arial, sans-serif; font-size: 12px; fill: rgb(36, 36, 36); fill-opacity: 1; white-space: pre; opacity: 1;" transform="translate(0,370.375)">18</text></g></g><g class="overaxes-above"/></g><g class="subplot x4y4"><g class="layer-subplot"><g class="shapelayer"/><g class="imagelayer"/></g><g class="minor-gridlayer"><g class="x4"/><g class="y4"/></g><g class="gridlayer"><g class="x4"><path class="x4grid crisp" transform="translate(813.4000000000001,0)" d="M0,344.625v210.375" style="stroke: rgb(255, 255, 255); stroke-opacity: 1; stroke-width: 1px;"/><path class="x4grid crisp" transform="translate(904.6100000000001,0)" d="M0,344.625v210.375" style="stroke: rgb(255, 255, 255); stroke-opacity: 1; stroke-width: 1px;"/><path class="x4grid crisp" transform="translate(995.82,0)" d="M0,344.625v210.375" style="stroke: rgb(255, 255, 255); stroke-opacity: 1; stroke-width: 1px;"/><path class="x4grid crisp" transform="translate(1087.0300000000002,0)" d="M0,344.625v210.375" style="stroke: rgb(255, 255, 255); stroke-opacity: 1; stroke-width: 1px;"/><path class="x4grid crisp" transform="translate(1178.24,0)" d="M0,344.625v210.375" style="stroke: rgb(255, 255, 255); stroke-opacity: 1; stroke-width: 1px;"/><path class="x4grid crisp" transform="translate(1269.45,0)" d="M0,344.625v210.375" style="stroke: rgb(255, 255, 255); stroke-opacity: 1; stroke-width: 1px;"/><path class="x4grid crisp" transform="translate(1360.66,0)" d="M0,344.625v210.375" style="stroke: rgb(255, 255, 255); stroke-opacity: 1; stroke-width: 1px;"/></g><g class="y4"><path class="y4grid crisp" transform="translate(0,525.415)" d="M805.8000000000001,0h637.1999999999999" style="stroke: rgb(255, 255, 255); stroke-opacity: 1; stroke-width: 1px;"/><path class="y4grid crisp" transform="translate(0,373.385)" d="M805.8000000000001,0h637.1999999999999" style="stroke: rgb(255, 255, 255); stroke-opacity: 1; stroke-width: 1px;"/></g></g><g class="zerolinelayer"><path class="y4zl zl crisp" transform="translate(0,449.405)" d="M805.8000000000001,0h637.1999999999999" style="stroke: rgb(255, 255, 255); stroke-opacity: 1; stroke-width: 1px;"/></g><path class="xlines-below"/><path class="ylines-below"/><g class="overlines-below"/><g class="xaxislayer-below"/><g class="yaxislayer-below"/><g class="overaxes-below"/><g class="plot" transform="translate(805.8000000000001,344.625)" clip-path="url(#clip3d7b4cx4y4plot)"><g class="scatterlayer mlayer"><g class="trace scatter trace20f153" style="stroke-miterlimit: 2; opacity: 1;"><g class="fills"/><g class="errorbars"/><g class="lines"><path class="js-line" d="M15.2,44.41L16.47,41.99L17.74,44.05L24.07,196.23L25.34,196.9L26.6,186.99L27.87,163.72L29.14,154.15L30.4,121.34L32.94,96.15L34.2,90.79L35.47,94.62L36.74,87.73L38,82.85L39.27,93.13L40.54,100.75L41.8,99.26L43.07,112.21L44.34,114.57L45.6,101.7L46.87,106L48.14,107.9L49.41,105.74L50.67,80.16L51.94,92.73L53.21,107.38L54.47,103.75L55.74,99.89L57.01,105.12L58.27,104.46L59.54,84.88L60.81,90.46L62.07,81.7L63.34,92.57L64.61,93.16L65.87,99.56L67.14,110.63L68.41,108.86L69.67,114L70.94,113.55L72.21,122.09L73.47,130.55L74.74,112.45L77.27,130.04L78.54,141.38L79.81,120.88L81.08,113.86L83.61,80.71L84.88,80.92L86.14,103.31L87.41,96.44L89.94,122.76L91.21,111.75L93.74,92.28L95.01,89.43L96.28,91.42L97.54,82.13L98.81,88.68L100.08,75.84L101.34,102.81L102.61,110.66L103.88,100.56L105.14,113.78L106.41,105.82L107.68,121.24L108.94,117.46L110.21,131.08L111.48,133.53L112.75,125.51L115.28,97.23L116.55,92.48L117.81,82.31L119.08,78.46L120.35,87.03L121.61,88.88L124.15,90.41L125.41,93.67L126.68,91.23L127.95,108.54L129.21,102.49L130.48,113.12L133.01,122.82L134.28,123.8L135.55,132.56L136.81,132.8L139.35,128.23L140.61,116.7L143.15,101.82L144.42,92.78L146.95,75.09L148.22,65.08L149.48,65.72L150.75,69.83L152.02,67.28L153.28,79.54L155.82,111.79L157.08,116.54L158.35,114.4L159.62,127.61L162.15,109.94L163.42,121.58L164.68,138.31L165.95,134.43L167.22,151.49L168.48,150.47L169.75,153.82L171.02,151.06L174.82,76.09L176.09,75.34L177.35,65.94L178.62,44.15L179.89,26.2L181.15,23.75L183.69,83.34L184.95,84.84L190.02,122.38L191.29,119.39L193.82,141.35L195.09,142.65L196.35,158.03L197.62,148.26L198.89,175.08L200.15,170.48L205.22,79.29L206.49,71.19L207.76,64.67L209.02,48.3L210.29,10.52L211.56,17.1L214.09,56.8L215.36,85.03L216.62,95.06L217.89,113.85L221.69,138.8L222.96,123.94L224.22,129.44L225.49,158.71L226.76,152.26L228.02,158.17L230.56,154.27L231.82,134.85L235.62,70.77L236.89,75.31L238.16,56.82L239.43,25.11L240.69,23.69L241.96,38.54L248.29,136.46L249.56,145.66L250.83,151.45L252.09,144.72L254.63,109.42L255.89,100.56L259.69,70.5L260.96,71.76L262.23,86.1L263.49,114.75L266.03,144.12L267.29,148.47L269.83,140.87L271.1,146.65L272.36,143.69L273.63,124.95L276.16,101.24L277.43,93.42L279.96,90.87L281.23,91.18L286.3,74.08L287.56,80.37L288.83,73.16L290.1,71.35L292.63,94.46L293.9,122.63L296.43,157.39L297.7,158.48L298.96,128.71L300.23,118.93L302.77,121.9L304.03,109.18L305.3,106.91L306.57,100.26L307.83,99.91L309.1,93.39L311.63,89.44L312.9,97.66L314.17,85.39L315.43,84.75L316.7,77.44L317.97,86.57L319.23,83.71L320.5,83.61L323.03,105.61L324.3,124.38L325.57,113.19L326.83,130.31L329.37,111.17L330.63,111.8L333.17,135.68L334.43,127.93L336.97,107.86L338.24,105.1L339.5,102.16L340.77,102.81L342.04,101.44L343.3,103.61L345.84,72.4L347.1,79.84L348.37,75.52L349.64,67.78L350.9,72.46L352.17,82.47L353.44,81.13L354.7,105.02L355.97,122.25L357.24,107.35L358.5,113.76L359.77,110.34L362.3,100.82L363.57,107.9L364.84,129.42L366.1,127.18L367.37,116.38L368.64,113.31L369.91,108.4L371.17,86.75L372.44,86.78L373.71,75.81L374.97,80.36L376.24,98.78L377.51,102.17L378.77,118.09L381.31,83.64L382.57,91.21L383.84,95.89L385.11,115.92L387.64,147.89L388.91,147.65L390.17,110.85L391.44,135.9L392.71,168.06L393.97,139.13L395.24,116.12L396.51,127.59L397.77,119.49L399.04,91.64L400.31,90.6L401.58,97.71L402.84,91.4L404.11,94.68L405.38,81.65L406.64,83.58L407.91,82.95L409.18,72.13L410.44,63.06L411.71,63.09L412.98,66.47L414.24,87.21L415.51,105.59L416.78,87.12L418.04,103.52L419.31,95.83L420.58,97.96L421.84,174.32L423.11,199.86L424.38,162.03L425.64,153.36L426.91,132.12L428.18,117.49L429.44,112.1L430.71,103.36L431.98,87.89L433.25,81.17L434.51,65.99L435.78,86.66L437.05,73.28L438.31,75.31L439.58,71.66L440.85,100.62L442.11,90.42L443.38,95.77L444.65,123.19L447.18,148.79L448.45,133.32L449.71,135.84L450.98,133.72L453.51,76.52L454.78,79.24L456.05,89.57L457.31,93.13L458.58,94.12L459.85,89.93L461.11,106.5L462.38,111.74L463.65,113.61L464.92,112.35L466.18,112.54L467.45,122.85L468.72,118.9L469.98,122.36L473.78,84.24L475.05,86.1L476.32,63.72L477.58,60.96L478.85,48.85L480.12,62.23L482.65,130.49L483.92,142.69L485.18,125.2L486.45,134.2L487.72,139.59L488.98,132.79L492.78,103.69L494.05,104.8L495.32,113.4L496.59,114.85L497.85,111.45L499.12,116.8L500.39,108.43L501.65,130.36L502.92,114.43L504.19,129.97L506.72,65.43L507.99,59.38L509.25,87.65L510.52,78.13L511.79,98.53L513.05,94.32L514.32,81.34L515.59,101.1L518.12,96.93L519.39,102.86L520.65,109.38L521.92,110.68L523.19,116.36L524.45,111.67L528.26,138.18L529.52,131.5L530.79,112.74L532.06,132.49L533.32,132L534.59,109.83L535.86,91.87L537.12,59.86L539.66,44.13L540.92,57.95L542.19,96.15L543.46,103.06L544.72,101.89L545.99,115.95L547.26,115.55L548.52,119.77L549.79,119.36L551.06,124.8L553.59,114.72L554.86,119.43L557.39,108.73L558.66,105.11L559.93,81.81L561.19,101.17L562.46,95.33L563.73,118.2L564.99,88.74L566.26,99.97L568.79,105.08L570.06,116.91L571.33,115.06L572.59,107.49L573.86,100.3L575.13,104.46L576.39,115.54L577.66,108.01L580.19,124.56L581.46,116.82L582.73,103.24L583.99,113.23L585.26,98.5L586.53,121.16L587.79,133.79L589.06,108.76L591.6,87.08L592.86,102.37L596.66,62.44L597.93,72.62L599.2,95.77L600.46,83.53L601.73,73.03L603,96.41L605.53,139.81L606.8,147.94L608.06,149.72L609.33,130.28L610.6,119.2L611.86,119.55L614.4,94.16L615.66,84.75L618.2,63.06L619.46,60.52L620.73,48.8L622,47.05" style="vector-effect: none; fill: none; stroke: rgb(196, 78, 82); stroke-opacity: 1; stroke-width: 2px; opacity: 1;"/></g><g class="points"/><g class="text"/></g></g></g><g class="overplot"/><path class="xlines-above crisp" d="M0,0" style="fill: none;"/><path class="ylines-above crisp" d="M0,0" style="fill: none;"/><g class="overlines-above"/><g class="xaxislayer-above"><g class="x4tick"><text text-anchor="middle" x="0" y="568" transform="translate(813.4000000000001,0)" style="font-family: 'Open Sans', verdana, arial, sans-serif; font-size: 12px; fill: rgb(36, 36, 36); fill-opacity: 1; white-space: pre; opacity: 1;"><tspan class="line" dy="0em" x="0" y="568">Mar 11</tspan><tspan class="line" dy="1.3em" x="0" y="568">2004</tspan></text></g><g class="x4tick"><text text-anchor="middle" x="0" y="568" style="font-family: 'Open Sans', verdana, arial, sans-serif; font-size: 12px; fill: rgb(36, 36, 36); fill-opacity: 1; white-space: pre; opacity: 1;" transform="translate(904.6100000000001,0)">Mar 14</text></g><g class="x4tick"><text text-anchor="middle" x="0" y="568" style="font-family: 'Open Sans', verdana, arial, sans-serif; font-size: 12px; fill: rgb(36, 36, 36); fill-opacity: 1; white-space: pre; opacity: 1;" transform="translate(995.82,0)">Mar 17</text></g><g class="x4tick"><text text-anchor="middle" x="0" y="568" style="font-family: 'Open Sans', verdana, arial, sans-serif; font-size: 12px; fill: rgb(36, 36, 36); fill-opacity: 1; white-space: pre; opacity: 1;" transform="translate(1087.0300000000002,0)">Mar 20</text></g><g class="x4tick"><text text-anchor="middle" x="0" y="568" style="font-family: 'Open Sans', verdana, arial, sans-serif; font-size: 12px; fill: rgb(36, 36, 36); fill-opacity: 1; white-space: pre; opacity: 1;" transform="translate(1178.24,0)">Mar 23</text></g><g class="x4tick"><text text-anchor="middle" x="0" y="568" style="font-family: 'Open Sans', verdana, arial, sans-serif; font-size: 12px; fill: rgb(36, 36, 36); fill-opacity: 1; white-space: pre; opacity: 1;" transform="translate(1269.45,0)">Mar 26</text></g><g class="x4tick"><text text-anchor="middle" x="0" y="568" style="font-family: 'Open Sans', verdana, arial, sans-serif; font-size: 12px; fill: rgb(36, 36, 36); fill-opacity: 1; white-space: pre; opacity: 1;" transform="translate(1360.66,0)">Mar 29</text></g></g><g class="yaxislayer-above"><g class="y4tick"><text text-anchor="end" x="804.8000000000001" y="4.199999999999999" transform="translate(0,525.415)" style="font-family: 'Open Sans', verdana, arial, sans-serif; font-size: 12px; fill: rgb(36, 36, 36); fill-opacity: 1; white-space: pre; opacity: 1;">−5</text></g><g class="y4tick"><text text-anchor="end" x="804.8000000000001" y="4.199999999999999" style="font-family: 'Open Sans', verdana, arial, sans-serif; font-size: 12px; fill: rgb(36, 36, 36); fill-opacity: 1; white-space: pre; opacity: 1;" transform="translate(0,449.405)">0</text></g><g class="y4tick"><text text-anchor="end" x="804.8000000000001" y="4.199999999999999" style="font-family: 'Open Sans', verdana, arial, sans-serif; font-size: 12px; fill: rgb(36, 36, 36); fill-opacity: 1; white-space: pre; opacity: 1;" transform="translate(0,373.385)">5</text></g></g><g class="overaxes-above"/></g></g><g class="polarlayer"/><g class="smithlayer"/><g class="ternarylayer"/><g class="geolayer"/><g class="funnelarealayer"/><g class="pielayer"/><g class="iciclelayer"/><g class="treemaplayer"/><g class="sunburstlayer"/><g class="glimages"/><defs id="topdefs-3d7b4c"><g class="clips"/><clipPath id="legend3d7b4c"><rect width="117" height="86" x="0" y="0"/></clipPath></defs><g class="layer-above"><g class="imagelayer"/><g class="shapelayer"/></g><g class="infolayer"><g class="legend" pointer-events="all" transform="translate(1471.32,60)"><rect class="bg" shape-rendering="crispEdges" style="stroke: rgb(68, 68, 68); stroke-opacity: 1; fill: rgb(255, 255, 255); fill-opacity: 1; stroke-width: 0px;" width="117" height="86" x="0" y="0"/><g class="scrollbox" transform="" clip-path="url(#legend3d7b4c)"><g class="groups"><g class="traces" transform="translate(0,14.5)" style="opacity: 1;"><text class="legendtext" text-anchor="start" x="40" y="4.680000000000001" style="font-family: 'Open Sans', verdana, arial, sans-serif; font-size: 12px; fill: rgb(36, 36, 36); fill-opacity: 1; white-space: pre;">temperature</text><g class="layers" style="opacity: 1;"><g class="legendfill"/><g class="legendlines"><path class="js-line" d="M5,0h30" style="fill: none; stroke: rgb(76, 114, 176); stroke-opacity: 1; stroke-width: 2px;"/></g><g class="legendsymbols"><g class="legendpoints"/></g></g><rect class="legendtoggle" x="0" y="-9.5" width="111.296875" height="19" style="fill: rgb(0, 0, 0); fill-opacity: 0;"/></g><g class="traces" transform="translate(0,33.5)" style="opacity: 1;"><text class="legendtext" text-anchor="start" x="40" y="4.680000000000001" style="font-family: 'Open Sans', verdana, arial, sans-serif; font-size: 12px; fill: rgb(36, 36, 36); fill-opacity: 1; white-space: pre;">trend</text><g class="layers" style="opacity: 1;"><g class="legendfill"/><g class="legendlines"><path class="js-line" d="M5,0h30" style="fill: none; stroke: rgb(221, 132, 82); stroke-opacity: 1; stroke-width: 2px;"/></g><g class="legendsymbols"><g class="legendpoints"/></g></g><rect class="legendtoggle" x="0" y="-9.5" width="111.296875" height="19" style="fill: rgb(0, 0, 0); fill-opacity: 0;"/></g><g class="traces" transform="translate(0,52.5)" style="opacity: 1;"><text class="legendtext" text-anchor="start" x="40" y="4.680000000000001" style="font-family: 'Open Sans', verdana, arial, sans-serif; font-size: 12px; fill: rgb(36, 36, 36); fill-opacity: 1; white-space: pre;">seasonal</text><g class="layers" style="opacity: 1;"><g class="legendfill"/><g class="legendlines"><path class="js-line" d="M5,0h30" style="fill: none; stroke: rgb(85, 168, 104); stroke-opacity: 1; stroke-width: 2px;"/></g><g class="legendsymbols"><g class="legendpoints"/></g></g><rect class="legendtoggle" x="0" y="-9.5" width="111.296875" height="19" style="fill: rgb(0, 0, 0); fill-opacity: 0;"/></g><g class="traces" transform="translate(0,71.5)" style="opacity: 1;"><text class="legendtext" text-anchor="start" x="40" y="4.680000000000001" style="font-family: 'Open Sans', verdana, arial, sans-serif; font-size: 12px; fill: rgb(36, 36, 36); fill-opacity: 1; white-space: pre;">residuals</text><g class="layers" style="opacity: 1;"><g class="legendfill"/><g class="legendlines"><path class="js-line" d="M5,0h30" style="fill: none; stroke: rgb(196, 78, 82); stroke-opacity: 1; stroke-width: 2px;"/></g><g class="legendsymbols"><g class="legendpoints"/></g></g><rect class="legendtoggle" x="0" y="-9.5" width="111.296875" height="19" style="fill: rgb(0, 0, 0); fill-opacity: 0;"/></g></g></g><rect class="scrollbar" rx="20" ry="3" width="0" height="0" style="fill: rgb(128, 139, 164); fill-opacity: 1;" x="0" y="0"/></g><g class="g-gtitle"><text class="gtitle" x="800" y="30" text-anchor="middle" dy="0em" style="font-family: 'Open Sans', verdana, arial, sans-serif; font-size: 17px; fill: rgb(36, 36, 36); opacity: 1; font-weight: normal; white-space: pre;">Additive decomposition of temperature</text></g><g class="g-xtitle"/><g class="g-x2title"/><g class="g-x3title"/><g class="g-x4title"/><g class="g-ytitle"/><g class="g-y2title"/><g class="g-y3title"/><g class="g-y4title"/></g></svg>