<svg class="main-svg" xmlns="http://www.w3.org/2000/svg" xmlns:xlink="http://www.w3.org/1999/xlink" width="1200" height="600" style="" viewBox="0 0 1200 600"><rect x="0" y="0" width="1200" height="600" style="fill: rgb(255, 255, 255); fill-opacity: 1;"/><defs id="defs-fc79b4"><g class="clips"><clipPath id="clipfc79b4xyplot" class="plotclip"><rect width="1153" height="511"/></clipPath><clipPath class="axesclip" id="clipfc79b4x"><rect x="27" y="0" width="1153" height="600"/></clipPath><clipPath class="axesclip" id="clipfc79b4y"><rect x="0" y="60" width="1200" height="511"/></clipPath><clipPath class="axesclip" id="clipfc79b4xy"><rect x="27" y="60" width="1153" height="511"/></clipPath></g><g class="gradients"/><g class="patterns"/></defs><g class="bglayer"><rect class="bg" x="27" y="60" width="1153" height="511" style="fill: rgb(229, 236, 246); fill-opacity: 1; stroke-width: 0;"/></g><g class="layer-below"><g class="imagelayer"/><g class="shapelayer"/></g><g class="cartesianlayer"><g class="subplot xy"><g class="layer-subplot"><g class="shapelayer"/><g class="imagelayer"/></g><g class="minor-gridlayer"><g class="x"/><g class="y"/></g><g class="gridlayer"><g class="x"><path class="xgrid crisp" transform="translate(150.24,0)" d="M0,60v511" style="stroke: rgb(255, 255, 255); stroke-opacity: 1; stroke-width: 1px;"/><path class="xgrid crisp" transform="translate(273.47,0)" d="M0,60v511" style="stroke: rgb(255, 255, 255); stroke-opacity: 1; stroke-width: 1px;"/><path class="xgrid crisp" transform="translate(396.71,0)" d="M0,60v511" style="stroke: rgb(255, 255, 255); stroke-opacity: 1; stroke-width: 1px;"/><path class="xgrid crisp" transform="translate(519.95,0)" d="M0,60v511" style="stroke: rgb(255, 255, 255); stroke-opacity: 1; stroke-width: 1px;"/><path class="xgrid crisp" transform="translate(643.18,0)" d="M0,60v511" style="stroke: rgb(255, 255, 255); stroke-opacity: 1; stroke-width: 1px;"/><path class="xgrid crisp" transform="translate(766.42,0)" d="M0,60v511" style="stroke: rgb(255, 255, 255); stroke-opacity: 1; stroke-width: 1px;"/><path class="xgrid crisp" transform="translate(889.65,0)" d="M0,60v511" style="stroke: rgb(255, 255, 255); stroke-opacity: 1; stroke-width: 1px;"/><path class="xgrid crisp" transform="translate(1012.89,0)" d="M0,60v511" style="stroke: rgb(255, 255, 255); stroke-opacity: 1; stroke-width: 1px;"/><path class="xgrid crisp" transform="translate(1136.13,0)" d="M0,60v511" style="stroke: rgb(255, 255, 255); stroke-opacity: 1; stroke-width: 1px;"/></g><g class="y"><path class="ygrid crisp" transform="translate(0,427.76)" d="M27,0h1153" style="stroke: rgb(255, 255, 255); stroke-opacity: 1; stroke-width: 1px;"/><path class="ygrid crisp" transform="translate(0,328.85)" d="M27,0h1153" style="stroke: rgb(255, 255, 255); stroke-opacity: 1; stroke-width: 1px;"/><path class="ygrid crisp" transform="translate(0,229.95)" d="M27,0h1153" style="stroke: rgb(255, 255, 255); stroke-opacity: 1; stroke-width: 1px;"/><path class="ygrid crisp" transform="translate(0,131.05)" d="M27,0h1153" style="stroke: rgb(255, 255, 255); stroke-opacity: 1; stroke-width: 1px;"/></g></g><g class="zerolinelayer"><path class="xzl zl crisp" transform="translate(27,0)" d="M0,60v511" style="stroke: rgb(255, 255, 255); stroke-opacity: 1; stroke-width: 2px;"/><path class="yzl zl crisp" transform="translate(0,526.6600000000001)" d="M27,0h1153" style="stroke: rgb(255, 255, 255); stroke-opacity: 1; stroke-width: 2px;"/></g><path class="xlines-below"/><path class="ylines-below"/><g class="overlines-below"/><g class="xaxislayer-below"/><g class="yaxislayer-below"/><g class="overaxes-below"/><g class="plot" transform="translate(27,60)" clip-path="url(#clipfc79b4xyplot)"><g class="scatterlayer mlayer"><g class="trace scatter trace8c7a8a" style="stroke-miterlimit: 2; opacity: 1;"><g class="fills"/><g class="errorbars"/><g class="lines"><path class="js-line" d="M0,332.15L1.23,366.77L1.36,357.86L2.46,387.54L2.59,384.57L2.71,370.72L2.96,364.79L3.08,370.72L3.33,376.66L3.45,385.56L3.7,384.57L3.82,390.5L4.19,406.33L4.56,403.36L4.68,394.46L5.79,299.51L5.92,317.31L7.52,404.35L7.64,402.37L7.76,371.71L8.26,274.79L8.75,301.49L8.87,307.42L9.61,329.18L9.74,322.26L9.86,343.03L10.48,363.8L10.6,351.93L10.72,344.02L11.58,247.09L11.83,271.82L11.95,284.68L13.43,354.9L13.56,344.02L13.68,320.28L14.54,225.33L14.67,231.27L14.79,244.13L16.02,345.01L16.14,340.06L16.39,357.86L16.64,332.15L16.76,290.61L17.5,187.75L17.62,189.73L17.75,230.28L18.98,341.05L19.1,349.95L19.22,348.96L19.35,368.74L19.84,257.97L19.96,226.32L20.46,176.87L20.7,210.5L20.83,238.19L21.94,351.93L22.06,347.97L22.18,358.85L22.31,361.82L22.43,352.92L22.55,325.23L23.41,198.63L23.54,211.49L23.66,239.18L24.52,348.96L24.89,345.01L25.02,343.03L25.14,345.01L25.39,338.08L25.51,332.15L26.25,304.46L26.62,310.39L26.74,313.36L27.11,321.27L27.24,326.22L28.1,332.15L28.22,333.14L28.96,297.53L29.08,278.74L29.33,273.8L29.58,283.69L29.7,294.57L31.18,326.22L31.3,323.25L31.43,315.34L32.04,255.01L32.41,274.79L32.53,283.69L33.4,310.39L33.52,305.45L33.64,299.51L34.14,311.38L34.26,310.39L34.38,294.57L35.25,255.99L35.37,266.87L36.23,330.17L36.35,328.19L36.48,338.08L36.85,379.62L37.22,367.76L37.34,355.89L37.96,308.41L38.08,327.2L38.2,347.97L38.45,331.16L38.7,352.92L38.94,347.97L39.07,357.86L39.31,359.84L39.44,354.9L39.56,361.82L39.68,365.78L40.18,357.86L40.3,355.89L40.79,299.51L40.91,302.48L41.04,354.9L41.16,371.71L41.28,350.94L41.78,364.79L41.9,366.77L42.27,357.86L42.39,376.66L42.76,368.74L42.89,391.49L43.5,357.86L43.63,332.15L44.12,291.6L44.24,297.53L44.37,319.29L45.6,387.54L45.72,390.5L46.09,369.73L46.21,355.89L46.58,276.76L46.95,326.22L47.08,334.13L47.2,326.22L47.32,346.99L47.45,363.8L48.8,404.35L49.05,395.45L49.17,356.88L49.66,277.75L50.03,281.71L50.16,297.53L51.39,385.56L51.51,384.57L51.64,371.71L51.88,393.47L52.13,343.03L52.25,300.5L52.5,255.99L52.99,286.65L53.11,298.52L54.35,366.77L54.47,354.9L54.84,386.55L55.09,349.95L55.21,329.18L55.83,286.65L56.07,298.52L56.2,307.42L57.18,362.81L57.3,350.94L57.67,354.9L57.92,335.12L58.04,305.45L58.54,245.12L58.91,287.64L59.03,295.56L59.89,320.28L60.02,320.28L60.88,336.11L61,363.8L61.86,311.38L62.11,313.36L62.23,325.23L63.22,377.65L63.34,365.78L63.47,357.86L63.71,372.7L63.84,348.96L63.96,306.44L64.95,233.25L65.07,241.16L66.3,355.89L66.42,354.9L66.55,353.91L66.92,332.15L67.04,299.51L67.78,193.69L68.03,226.32L68.15,256.98L69.38,331.16L69.51,329.18L69.63,335.12L69.75,317.31L69.88,298.52L70.74,211.49L70.86,218.41L70.98,232.26L72.46,339.07L72.59,331.16L73.57,208.52L73.7,225.33L73.82,239.18L74.68,321.27L75.05,313.36L75.17,308.41L75.42,339.07L75.91,312.37L76.04,302.48L76.41,273.8L76.53,253.03L76.65,247.09L76.9,271.82L77.02,280.72L78.13,327.2L78.38,324.24L78.5,315.34L79.12,259.95L79.36,275.78L79.49,282.7L79.61,280.72L79.73,293.58L80.72,312.37L80.84,312.37L80.97,307.42L81.21,315.34L81.34,326.22L81.58,318.3L81.71,332.15L82.2,287.64L82.32,324.24L82.45,358.85L82.69,288.63L83.06,367.76L83.18,369.73L83.92,391.49L84.29,386.55L84.42,386.55L85.65,254.02L85.77,275.78L86.88,327.2L87,327.2L89.22,327.2L89.35,347.97L90.09,365.78L90.33,357.86L90.46,344.02L91.44,248.08L91.56,257.97L91.69,285.67L92.92,389.51L93.04,390.5L93.17,393.47L93.29,385.56L93.41,380.61L93.91,242.15L94.4,258.96L94.52,272.81L95.38,331.16L95.63,322.26L95.75,324.24L97.36,368.74L97.48,364.79L97.6,357.86L98.1,364.79L98.47,362.81L98.59,362.81L98.84,356.88L98.96,366.77L99.08,367.76L99.21,357.86L100.07,302.48L100.44,307.42L100.56,315.34L101.92,365.78L102.04,364.79L102.16,359.84L103.03,255.01L103.27,264.9L103.4,281.71L103.64,289.62L103.77,303.47L105,376.66L105.12,365.78L106.11,254.02L106.35,272.81L106.48,285.67L107.83,351.93L107.96,350.94L108.08,340.06L108.69,276.76L108.82,311.38L108.94,323.25L109.19,322.26L109.68,330.17L109.8,333.14L110.54,344.02L110.67,342.04L110.79,340.06L111.04,343.03L111.16,340.06L111.28,333.14L112.02,271.82L112.27,289.62L112.39,299.51L112.88,298.52L113.25,308.41L113.38,312.37L113.87,330.17L114.24,326.22L114.36,323.25L115.35,293.58L115.47,298.52L115.6,304.46L116.58,338.08L116.83,328.19L116.95,314.35L117.32,273.8L117.69,303.47L117.81,346.99L118.55,368.74L118.8,365.78L118.92,366.77L119.29,372.7L119.54,369.73L119.66,367.76L120.03,345.01L120.16,323.25L121.02,210.5L121.14,211.49L121.26,243.14L122.37,358.85L122.5,354.9L122.62,366.77L122.74,365.78L122.87,349.95L123.98,196.65L124.1,211.49L124.22,216.43L125.7,346L125.82,329.18L125.95,316.33L126.93,157.09L127.06,175.88L127.18,211.49L128.41,327.2L128.54,326.22L128.66,325.23L128.78,328.19L128.91,314.35L129.03,277.75L129.77,169.95L129.89,174.89L130.01,199.62L131.49,320.28L131.62,328.19L131.86,301.49L131.99,268.85L132.97,194.67L133.1,220.39L133.71,352.92L134.33,343.03L134.45,343.03L134.94,317.31L135.07,302.48L135.81,266.87L136.05,283.69L136.18,290.61L137.16,328.19L137.29,327.2L137.41,329.18L137.66,324.24L137.78,318.3L138.64,261.93L138.76,268.85L138.89,282.7L140.49,324.24L140.61,309.4L141.35,187.75L141.85,199.62L141.97,224.35L143.45,329.18L143.57,318.3L143.69,307.42L144.68,185.77L144.8,196.65L144.93,226.32L146.4,339.07L146.53,320.28L146.65,307.42L147.14,213.47L147.51,252.04L147.64,255.01L149.12,314.35L149.36,309.4L149.49,302.48L149.98,308.41L150.47,242.15L150.59,259.95L150.72,258.96L150.84,260.94L150.96,270.83L151.95,311.38L152.2,301.49L152.32,301.49L152.57,291.6L152.69,274.79L153.43,208.52L153.55,214.46L153.68,232.26L155.28,337.1L155.4,325.23L156.51,210.5L156.63,224.35L156.76,243.14L157.87,312.37L157.99,308.41L158.11,310.39L158.61,294.57L158.73,255.01L159.34,161.05L159.59,205.55L159.71,220.39L160.95,312.37L161.07,311.38L161.56,291.6L161.69,265.88L161.93,254.02L162.3,269.84L162.43,269.84L162.92,307.42L163.04,302.48L163.17,283.69L163.53,278.74L164.15,323.25L164.27,317.31L165.26,293.58L165.38,293.58L165.51,291.6L165.63,297.53L165.75,293.58L165.88,309.4L166.49,347.97L166.74,341.05L166.86,337.1L166.99,336.11L167.11,337.1L167.23,321.27L167.6,266.87L167.72,283.69L167.85,338.08L168.22,345.01L168.59,312.37L168.71,318.3L168.83,331.16L168.96,345.01L169.08,314.35L169.57,331.16L169.7,329.18L170.19,319.29L170.31,304.46L170.44,308.41L170.56,282.7L170.81,256.98L171.18,276.76L171.3,326.22L171.55,341.05L172.04,334.13L172.16,335.12L172.53,322.26L172.65,325.23L172.78,358.85L172.9,393.47L173.39,332.15L173.52,321.27L173.76,335.12L174.01,305.45L174.13,268.85L174.38,270.83L174.5,290.61L175.86,348.96L175.98,354.9L176.72,275.78L176.84,321.27L177.46,290.61L177.58,304.46L177.71,312.37L178.57,330.17L178.69,326.22L178.94,334.13L179.06,321.27L180.17,217.42L180.29,235.22L180.42,258.96L181.65,353.91L181.77,347.97L181.9,354.9L183.01,204.56L183.25,206.54L183.38,225.33L184.73,328.19L184.85,323.25L184.98,313.36L185.59,250.06L185.84,294.57L185.96,297.53L186.21,291.6L186.46,292.59L186.58,301.49L186.7,300.5L186.83,307.42L186.95,313.36L187.2,304.46L187.44,308.41L187.57,306.44L187.81,309.4L188.06,308.41L188.18,302.48L189.29,265.88L189.41,270.83L189.54,277.75L190.52,313.36L190.65,308.41L190.77,296.54L191.88,185.77L192.13,193.69L192.25,217.42L193.23,294.57L193.36,320.28L193.48,322.26L193.6,311.38L193.73,315.34L193.85,308.41L193.97,292.59L194.84,187.75L195.08,209.51L195.21,231.27L196.56,333.14L196.81,330.17L196.93,305.45L197.79,155.11L198.04,165.99L198.16,201.6L199.52,310.39L199.64,308.41L199.77,292.59L201,202.59L201.12,226.32L202.11,268.85L202.23,256.98L202.48,298.52L202.97,265.88L203.09,216.43L203.71,148.19L203.96,161.05L204.08,194.67L205.31,305.45L205.56,304.46L205.68,304.46L206.67,154.12L206.91,181.82L207.04,205.55L207.9,288.63L208.15,270.83L208.27,272.81L208.52,310.39L208.89,261.93L209.01,208.52L209.75,144.23L209.87,158.08L209.99,192.7L211.47,319.29L211.6,304.46L212.58,142.26L212.83,167.97L212.95,193.69L214.31,310.39L214.43,303.47L214.55,296.54L215.54,177.86L215.66,180.83L215.79,215.44L216.03,224.35L216.16,246.1L217.27,291.6L217.39,289.62L217.51,279.73L218.37,181.82L218.62,210.5L218.74,211.49L219.98,311.38L220.35,303.47L220.47,293.58L221.46,211.49L221.7,224.35L221.83,243.14L223.18,351.93L223.3,334.13L223.43,316.33L223.8,220.39L223.92,186.76L224.41,144.23L224.66,149.18L224.78,172.92L226.51,172.92L226.63,264.9L227.25,147.2L227.62,160.06L227.74,183.8L229.1,313.36L229.22,308.41L229.34,298.52L230.45,157.09L230.58,175.88L230.7,199.62L232.18,319.29L232.3,305.45L232.42,284.68L233.29,173.9L233.41,189.73L233.53,233.25L234.52,283.69L234.64,288.63L235.01,291.6L235.14,289.62L235.26,284.68L236.37,231.27L236.61,245.12L236.74,252.04L237.85,298.52L237.97,296.54L238.09,295.56L239.2,150.17L239.57,177.86L239.69,195.66L240.93,304.46L241.05,302.48L241.42,259.95L241.54,213.47L241.91,161.05L242.28,188.74L242.41,200.61L243.76,303.47L243.88,300.5L244.75,253.03L244.87,229.29L244.99,212.48L245.49,239.18L245.61,254.02L246.6,283.69L246.72,279.73L246.84,268.85L247.09,271.82L247.21,260.94L248.07,152.15L248.32,180.83L248.44,197.64L249.92,292.59L250.05,278.74L250.17,268.85L251.16,178.85L251.28,179.84L252.63,278.74L252.76,276.76L254.24,186.76L254.36,204.56L255.72,275.78L255.96,270.83L256.09,259.95L256.58,163.03L256.95,193.69L257.07,203.58L257.19,165.99L257.69,239.18L257.81,248.08L258.18,255.99L258.3,293.58L258.43,292.59L258.55,297.53L258.67,302.48L258.92,285.67L259.04,264.9L259.78,199.62L260.15,206.54L260.28,230.28L260.52,244.13L260.65,251.05L261.51,296.54L261.75,295.56L261.88,269.84L262.86,111.6L263.11,135.33L263.23,165L263.36,166.98L263.48,199.62L264.59,272.81L264.71,286.65L265.33,156.1L265.45,133.35L265.94,92.8L266.07,104.67L266.19,145.22L267.55,265.88L267.67,263.91L267.79,252.04L268.66,65.11L269.03,75L269.15,97.75L270.38,267.86L270.5,273.8L270.87,232.26L271,210.5L271.74,67.09L271.98,81.92L272.11,112.58L273.46,275.78L273.58,270.83L273.95,213.47L274.08,169.95L274.69,96.76L274.94,116.54L275.06,128.41L276.42,280.72L276.54,270.83L277.65,100.72L277.9,118.52L278.02,145.22L278.64,220.39L278.88,215.44L279.01,207.53L279.75,263.91L279.99,246.1L280.12,252.04L280.24,225.33L280.86,252.04L280.98,261.93L282.09,278.74L282.21,277.75L282.33,277.75L283.44,213.47L283.57,224.35L283.69,230.28L283.81,227.31L283.94,234.24L284.06,246.1L284.92,261.93L285.05,258.96L285.17,260.94L285.42,269.84L285.54,259.95L285.66,232.26L286.65,117.53L286.77,144.23L286.89,162.04L288.13,265.88L288.25,255.99L288.37,262.92L288.62,240.17L288.74,228.3L289.48,134.34L289.73,138.3L289.85,157.09L291.08,280.72L291.21,266.87L291.33,285.67L291.58,250.06L291.7,217.42L292.44,155.11L292.69,156.1L292.81,163.03L294.17,250.06L294.29,264.9L294.54,241.16L294.66,217.42L295.27,94.78L295.64,114.56L295.77,139.29L297,256.98L297.12,252.04L298.85,109.62L298.97,109.62L302.79,109.62L302.92,279.73L303.04,286.65L303.28,260.94L303.41,236.21L304.27,159.07L304.52,168.96L304.64,183.8L305.5,268.85L305.75,258.96L305.87,270.83L306.12,290.61L306.37,262.92L306.49,241.16L307.35,135.33L307.47,139.29L307.6,153.14L308.83,260.94L308.95,252.04L309.08,265.88L309.45,229.29L309.57,184.78L309.94,116.54L310.43,145.22L310.56,157.09L311.91,256.98L312.16,250.06L312.28,222.37L313.27,112.58L313.39,117.53L313.51,137.31L314.75,252.04L314.87,250.06L314.99,267.86L315.36,212.48L315.49,170.94L316.22,108.63L316.35,116.54L316.47,141.27L317.58,273.8L317.7,256.98L317.95,282.7L318.2,250.06L318.32,224.35L319.06,86.87L319.18,98.74L319.31,130.39L320.66,237.2L320.78,229.29L321.03,234.24L321.15,222.37L321.28,197.64L322.14,49.29L322.26,57.2L322.39,81.92L323.5,241.16L323.62,229.29L323.99,233.25L324.11,214.46L324.97,67.09L325.22,79.95L325.34,100.72L326.58,221.38L326.7,210.5L326.95,222.37L327.07,198.63L327.19,186.76L328.06,90.83L328.18,99.73L328.3,101.71L329.66,223.36L329.78,205.55L330.27,128.41L330.4,100.72L330.52,104.67L330.64,101.71L330.77,77.97L331.01,74.01L331.51,151.16L331.63,167.97L332.62,235.22L332.74,225.33L332.86,218.41L333.72,89.84L334.09,101.71L334.22,125.44L335.45,216.43L335.57,218.41L335.7,221.38L335.82,212.48L335.94,195.66L336.68,82.91L336.93,99.73L337.05,122.48L338.53,266.87L338.78,255.01L338.9,237.2L339.89,90.83L340.01,101.71L340.13,117.53L341.36,256.98L341.49,265.88L342.1,173.9L342.23,131.38L342.72,77.97L342.97,91.82L343.09,112.58L344.32,271.82L344.45,253.03L344.57,257.97L344.69,253.03L344.82,232.26L345.68,67.09L346.05,97.75L346.17,134.34L347.4,251.05L347.53,251.05L348.14,128.41L348.27,88.85L348.64,69.07L348.88,75.99L349.01,91.82L350.11,221.38L350.24,214.46L350.48,230.28L350.73,200.61L350.85,173.9L351.35,45.33L351.84,78.96L351.96,101.71L353.2,224.35L353.57,210.5L353.69,184.78L354.06,136.32L354.18,68.08L354.55,52.25L354.8,79.95L354.92,106.65L356.28,203.58L356.4,200.61L356.52,199.62L356.77,195.66L356.89,165L357.26,126.43L357.63,146.21L357.76,148.19L359.36,257.97L359.48,249.07L360.22,137.31L360.59,146.21L360.71,152.15L361.95,264.9L362.19,262.92L362.32,255.99L362.44,264.9L362.56,234.24L362.68,212.48L363.55,140.28L363.67,150.17L363.79,173.9L364.66,261.93L364.78,256.98L364.9,242.15L365.27,283.69L365.64,252.04L365.77,235.22L366.01,184.78L366.51,221.38L366.63,229.29L367.74,284.68L367.86,280.72L367.98,305.45L368.23,306.44L368.35,295.56L368.48,276.76L369.09,125.44L369.34,168.96L369.46,186.76L369.71,150.17L370.08,209.51L370.2,217.42L371.19,280.72L371.31,269.84L371.43,248.08L372.54,110.61L372.67,112.58L372.79,147.2L374.02,255.01L374.15,257.97L374.27,255.99L374.39,240.17L375.25,99.73L375.5,115.55L375.62,133.35L376.86,253.03L376.98,265.88L377.35,245.12L377.47,227.31L378.34,89.84L378.46,97.75L378.58,111.6L379.69,256.98L379.81,255.99L379.94,253.03L380.18,257.97L380.31,241.16L381.29,60.17L381.54,96.76L381.66,130.39L383.02,266.87L383.14,255.99L383.51,154.12L383.63,107.64L384.25,57.2L384.37,70.06L384.5,94.78L385.73,247.09L385.85,256.98L385.98,255.01L386.1,240.17L387.09,57.2L387.33,75L387.46,93.79L388.69,235.22L388.81,218.41L388.93,230.28L389.18,199.62L389.3,175.88L390.04,43.35L390.29,58.19L390.41,87.86L391.4,211.49L391.52,195.66L391.65,206.54L391.89,238.19L392.26,188.74L392.38,131.38L393.12,44.34L393.25,55.22L393.37,75L394.6,231.27L394.73,220.39L394.85,219.4L394.97,222.37L395.1,205.55L396.08,25.55L396.33,65.11L396.45,99.73L397.68,233.25L397.81,218.41L397.93,224.35L398.05,203.58L398.18,179.84L398.92,40.39L399.16,60.17L399.29,83.9L400.52,218.41L400.64,223.36L400.76,225.33L400.89,217.42L401.01,203.58L401.63,87.86L402,104.67L402.12,119.51L402.98,232.26L403.23,222.37L403.35,219.4L403.6,244.13L403.97,224.35L404.09,220.39L404.83,155.11L405.08,169.95L405.2,193.69L405.32,181.82L405.82,200.61L405.94,203.58L406.56,216.43L406.68,215.44L406.8,204.56L407.79,107.64L408.04,124.45L408.16,140.28L409.14,211.49L409.27,209.51L409.39,223.36L409.64,238.19L410.01,207.53L410.13,176.87L410.87,142.26L410.99,146.21L411.12,156.1L412.1,241.16L412.23,233.25L412.6,266.87L412.84,245.12L412.97,209.51L413.83,102.69L413.95,126.43L414.07,117.53L414.2,147.2L414.32,173.9L415.55,256.98L415.68,253.03L415.8,229.29L416.66,84.89L416.91,96.76L417.03,113.57L418.14,238.19L418.26,232.26L418.63,239.18L418.76,225.33L418.88,201.6L419.74,77.97L419.87,88.85L419.99,104.67L421.1,232.26L421.22,231.27L421.35,232.26L421.47,243.14L422.7,67.09L422.82,79.95L422.95,97.75L424.18,234.24L424.3,226.32L424.43,236.21L424.67,219.4L424.8,196.65L425.54,69.07L425.78,85.88L425.91,104.67L427.01,214.46L427.14,214.46L427.38,223.36L427.51,212.48L427.63,198.63L428.62,90.83L428.74,101.71L428.86,115.55L429.73,207.53L429.97,189.73L430.1,211.49L431.57,90.83L431.7,95.77L431.82,115.55L432.81,202.59L432.93,210.5L433.3,219.4L434.53,77.97L434.65,88.85L434.78,130.39L435.52,219.4L435.64,215.44L435.76,215.44L436.26,243.14L436.38,226.32L436.5,204.56L437.12,87.86L437.24,128.41L437.37,182.81L438.11,261.93L438.23,238.19L438.35,242.15L439.09,255.01L439.21,250.06L439.34,249.07L439.71,213.47L439.83,176.87L440.08,114.56L440.57,145.22L440.69,171.93L441.8,236.21L441.93,250.06L443.4,85.88L443.53,102.69L443.65,121.49L444.88,230.28L445.01,231.27L445.13,235.22L445.25,226.32L445.38,218.41L446.36,119.51L446.49,120.5L446.61,132.37L447.72,226.32L447.84,231.27L448.09,237.2L448.21,226.32L448.33,214.46L449.44,126.43L449.57,126.43L450.8,225.33L450.92,234.24L451.05,235.22L451.17,224.35L452.15,66.1L452.4,75L452.52,82.91L453.51,202.59L453.63,200.61L453.76,205.55L453.88,210.5L454.13,201.6L454.25,190.72L455.11,82.91L455.36,96.76L455.48,108.63L456.59,213.47L456.71,202.59L456.84,211.49L457.33,175.88L457.45,136.32L457.58,138.3L457.7,125.44L458.19,89.84L458.44,118.52L458.56,149.18L459.67,215.44L459.8,208.52L459.92,217.42L460.16,199.62L460.29,165L460.78,107.64L461.15,120.5L461.27,130.39L462.51,219.4L462.63,217.42L462.75,213.47L463,229.29L463.12,219.4L463.25,189.73L464.11,81.92L464.23,101.71L464.35,118.52L465.59,245.12L465.71,244.13L466.08,230.28L466.2,206.54L466.57,87.86L467.07,91.82L467.19,103.68L468.3,224.35L468.42,221.38L468.54,236.21L468.79,255.99L469.04,233.25L469.16,198.63L470.02,74.01L470.15,82.91L471.38,226.32L471.5,226.32L471.75,247.09L472,226.32L472.12,196.65L472.98,82.91L473.1,89.84L474.46,244.13L474.58,240.17L474.71,231.27L474.95,196.65L475.08,173.9L475.94,106.65L476.06,102.69L476.19,106.65L476.31,137.31L477.05,192.7L477.29,181.82L477.42,192.7L477.66,198.63L477.79,193.69L477.91,179.84L478.9,72.03L479.02,75L479.14,98.74L480.13,195.66L480.25,184.78L480.38,180.83L480.5,198.63L480.62,208.52L480.99,172.92L481.12,148.19L481.85,102.69L481.98,125.44L483.33,226.32L483.46,221.38L483.58,224.35L483.7,212.48L483.83,201.6L484.32,146.21L484.57,176.87L484.69,200.61L484.94,184.78L485.18,215.44L485.31,223.36L485.55,220.39L485.92,241.16L486.04,259.95L486.54,282.7L486.66,272.81L486.78,252.04L487.77,87.86L487.89,97.75L488.02,124.45L489.13,256.98L489.25,262.92L490.73,97.75L490.97,121.49L491.1,162.04L492.45,267.86L492.58,262.92L493.69,87.86L493.81,101.71L493.93,131.38L494.92,232.26L495.04,224.35L495.16,240.17L495.53,220.39L495.66,205.55L496.64,107.64L496.77,117.53L496.89,145.22L497.75,236.21L497.88,228.3L498,231.27L498.12,239.18L498.74,232.26L498.86,232.26L503.79,232.26L503.91,270.83L504.04,268.85L504.16,244.13L504.28,273.8L504.65,222.37L504.78,170.94L505.52,111.6L505.64,112.58L505.76,135.33L506.87,251.05L506.99,258.96L507.36,255.99L507.49,242.15L508.47,108.63L508.6,114.56L508.72,134.34L509.71,232.26L509.83,221.38L510.2,254.02L510.45,231.27L510.57,212.48L511.43,132.37L511.68,147.2L511.8,185.77L513.03,249.07L513.16,246.1L513.65,171.93L513.77,155.11L514.02,156.1L514.14,145.22L514.27,132.37L514.39,125.44L514.51,143.24L514.64,156.1L515.62,241.16L515.74,246.1L515.99,271.82L516.36,237.2L516.48,206.54L517.35,115.55L517.47,124.45L517.59,137.31L518.7,242.15L518.83,251.05L518.95,258.96L519.32,241.16L519.44,207.53L520.3,83.9L520.43,98.74L520.55,109.62L521.54,229.29L521.66,217.42L521.78,227.31L522.15,249.07L522.28,232.26L522.4,202.59L523.39,77.97L523.51,100.72L524.62,217.42L524.74,239.18L525.11,249.07L525.23,235.22L525.36,202.59L526.22,64.12L526.34,75.99L526.47,104.67L527.33,197.64L527.45,194.67L527.58,198.63L527.94,215.44L528.19,199.62L528.31,170.94L528.68,125.44L529.18,140.28L529.3,141.27L530.78,234.24L530.9,232.26L531.03,233.25L531.15,226.32L532.13,168.96L532.26,173.9L533.49,250.06L533.86,238.19L533.98,232.26L534.6,145.22L535.09,146.21L535.22,153.14L536.57,215.44L536.69,215.44L537.06,215.44L537.19,242.15L538.17,242.15L538.3,146.21L539.53,255.01L539.65,252.04L539.9,271.82L540.02,258.96L540.15,219.4L541.01,86.87L541.13,94.78L541.25,118.52L542.24,232.26L542.36,227.31L542.49,224.35L542.61,245.12L542.73,246.1L542.86,255.01L543.97,121.49L544.09,136.32L544.21,154.12L545.2,237.2L545.32,233.25L545.44,234.24L545.81,269.84L546.06,229.29L546.18,182.81L546.92,111.6L547.05,128.41L547.17,150.17L548.16,249.07L548.28,245.12L548.4,253.03L548.53,251.05L548.65,252.04L548.77,262.92L549.26,168.96L549.63,191.71L549.76,215.44L550,189.73L550.25,212.48L550.37,223.36L551.36,274.79L551.73,264.9L551.85,251.05L552.84,118.52L552.96,127.42L553.09,155.11L554.32,269.84L554.44,262.92L554.93,204.56L555.06,179.84L555.55,130.39L555.67,170.94L555.8,192.7L556.04,183.8L556.17,221.38L556.66,276.76L557.03,263.91L557.15,261.93L557.52,267.86L557.64,259.95L557.77,256.98L558.88,200.61L559,204.56L559.12,218.41L560.23,277.75L560.36,274.79L560.48,271.82L560.73,264.9L560.85,253.03L561.1,281.71L561.71,232.26L561.83,231.27L563.07,268.85L563.19,271.82L563.31,272.81L563.44,270.83L563.56,266.87L563.68,271.82L563.81,266.87L563.93,249.07L564.67,230.28L564.79,233.25L564.92,237.2L566.52,268.85L566.64,261.93L567.63,178.85L567.75,185.77L569.11,280.72L569.23,275.78L569.48,300.5L569.6,282.7L569.72,247.09L570.58,124.45L570.71,138.3L570.83,169.95L572.06,273.8L572.19,266.87L572.43,281.71L572.56,267.86L572.68,234.24L573.54,127.42L573.67,129.4L573.79,165L575.02,260.94L575.14,280.72L575.39,286.65L575.51,272.81L575.64,243.14L576.5,155.11L576.62,158.08L576.75,184.78L578.1,287.64L578.23,285.67L578.35,283.69L578.47,267.86L579.46,141.27L579.58,148.19L579.7,181.82L580.57,255.01L580.81,245.12L580.94,257.97L582.29,165.99L582.42,155.11L582.54,154.12L582.66,179.84L584.02,264.9L584.14,260.94L584.63,218.41L584.76,203.58L585.37,220.39L585.5,285.67L585.99,328.19L586.36,312.37L586.48,314.35L586.85,315.34L586.98,314.35L587.1,313.36L587.22,314.35L587.34,311.38L587.47,299.51L588.33,248.08L588.45,257.97L588.58,267.86L590.18,346L590.3,322.26L590.8,242.15L591.17,248.08L591.29,235.22L591.53,254.02L591.66,265.88L592.77,328.19L593.14,318.3L593.26,299.51L594.25,227.31L594.37,218.41L595.48,318.3L595.6,324.24L595.85,348.96L596.22,324.24L596.34,290.61L597.2,180.83L597.33,189.73L597.45,222.37L598.68,322.26L598.81,297.53L599.05,319.29L599.3,278.74L599.42,245.12L600.16,183.8L600.28,197.64L600.41,216.43L601.39,293.58L601.52,276.76L601.64,302.48L602.26,282.7L602.38,266.87L603,208.52L603.37,223.36L603.49,233.25L604.72,278.74L604.84,280.72L606.08,205.55L606.2,211.49L606.32,216.43L607.31,264.9L607.43,255.99L607.56,263.91L607.8,267.86L607.93,266.87L608.05,257.97L609.03,204.56L609.16,215.44L610.51,266.87L610.64,267.86L610.88,270.83L611.01,264.9L611.13,253.03L611.75,195.66L612.12,200.61L612.24,222.37L613.72,297.53L613.84,285.67L614.09,269.84L614.21,240.17L614.95,180.83L615.2,209.51L615.32,226.32L616.8,294.57L616.92,283.69L617.91,162.04L618.03,172.92L618.15,199.62L619.63,287.64L619.76,292.59L620.13,244.13L620.25,212.48L620.87,173.9L620.99,182.81L621.11,212.48L622.34,269.84L622.47,270.83L622.71,271.82L622.84,259.95L622.96,244.13L623.82,183.8L623.95,189.73L624.07,217.42L625.42,286.65L625.55,286.65L626.66,182.81L627.03,205.55L627.15,217.42L627.89,250.06L628.01,257.97L628.26,255.99L628.51,262.92L628.63,259.95L628.75,254.02L629.61,173.9L629.86,182.81L629.98,199.62L631.59,255.99L631.71,247.09L631.83,228.3L632.08,221.38L632.2,224.35L632.33,258.96L632.57,274.79L632.94,257.97L633.07,257.97L633.19,256.98L634.17,289.62L634.42,282.7L634.54,272.81L634.91,276.76L635.65,237.2L635.78,252.04L636.76,287.64L636.89,285.67L637.01,285.67L637.26,299.51L637.63,289.62L637.75,287.64L637.87,286.65L637.99,271.82L638.12,260.94L638.49,284.68L638.61,289.62L639.84,322.26L639.97,324.24L640.21,325.23L640.34,321.27L640.46,325.23L640.58,328.19L641.08,288.63L641.45,308.41L641.57,315.34L641.94,321.27L642.19,319.29L642.31,316.33L642.43,315.34L642.68,318.3L642.8,319.29L643.66,305.45L643.79,264.9L644.16,247.09L644.53,254.02L644.65,271.82L645.76,324.24L645.88,310.39L646.01,316.33L646.25,322.26L646.5,312.37L646.62,295.56L646.87,225.33L647.36,237.2L647.48,254.02L648.1,282.7L648.22,323.25L648.35,305.45L648.47,327.2L648.96,318.3L649.09,323.25L649.33,318.3L649.46,309.4L650.44,249.07L650.57,269.84L650.93,321.27L651.3,314.35L651.43,303.47L651.55,304.46L651.67,314.35L651.92,308.41L652.04,318.3L652.17,329.18L653.4,245.12L653.52,259.95L654.76,330.17L654.88,323.25L655,328.19L655.12,342.04L655.49,300.5L655.62,271.82L655.86,247.09L656.36,268.85L656.48,271.82L657.71,328.19L657.96,316.33L658.08,316.33L658.7,285.67L658.82,274.79L659.19,241.16L659.68,256.98L659.81,260.94L660.67,284.68L660.79,281.71L660.92,284.68L661.16,280.72L661.29,269.84L662.15,212.48L662.4,223.36L662.52,230.28L663.5,260.94L663.63,255.01L663.87,255.99L664,254.02L664.12,250.06L664.98,197.64L665.35,199.62L665.48,210.5L666.83,281.71L667.08,270.83L667.2,264.9L668.19,200.61L668.31,207.53L668.43,226.32L669.91,287.64L670.04,292.59L670.53,236.21L670.65,219.4L671.15,197.64L671.27,213.47L671.39,236.21L672.75,288.63L672.87,295.56L672.99,293.58L673.12,268.85L673.24,277.75L673.36,255.01L673.49,223.36L674.1,204.56L674.23,219.4L674.35,240.17L675.46,314.35L675.71,306.44L675.83,310.39L676.08,305.45L676.2,281.71L677.06,253.03L677.18,252.04L678.66,320.28L678.79,311.38L678.91,306.44L679.03,305.45L679.16,291.6L679.53,243.14L679.65,223.36L679.9,220.39L680.02,229.29L680.14,237.2L681.62,300.5L681.74,292.59L682.36,258.96L682.61,273.8L682.73,283.69L683.1,268.85L683.35,275.78L683.47,286.65L684.46,322.26L684.7,313.36L684.82,311.38L685.07,301.49L685.19,282.7L685.56,253.03L686.06,260.94L686.18,265.88L686.67,264.9L687.04,286.65L687.17,284.68L687.29,281.71L687.41,286.65L687.66,275.78L687.78,266.87L688.15,234.24L688.28,270.83L688.65,271.82L689.01,266.87L689.14,268.85L690,299.51L690.12,299.51L690.49,301.49L690.86,299.51L690.99,294.57L691.6,233.25L691.97,246.1L692.1,253.03L693.57,287.64L693.7,264.9L693.82,262.92L693.94,275.78L694.31,226.32L694.81,239.18L694.93,245.12L696.29,284.68L696.41,284.68L697.27,211.49L697.64,230.28L697.76,231.27L699.61,307.42L699.74,297.53L699.86,260.94L699.98,262.92L700.11,248.08L700.35,212.48L700.85,225.33L700.97,239.18L702.2,304.46L702.32,300.5L702.45,299.51L702.57,298.52L702.69,280.72L703.43,203.58L703.68,213.47L703.8,218.41L705.41,310.39L705.53,298.52L705.65,308.41L705.78,290.61L705.9,262.92L706.51,201.6L706.76,221.38L706.88,238.19L708.49,307.42L708.61,306.44L708.73,303.47L708.86,272.81L709.6,222.37L709.72,239.18L709.84,255.01L710.95,314.35L711.07,312.37L711.2,298.52L711.44,328.19L711.81,284.68L711.94,268.85L712.43,249.07L712.68,260.94L712.8,267.86L713.29,277.75L713.42,280.72L714.52,319.29L714.65,313.36L714.77,302.48L715.02,288.63L715.51,300.5L715.63,308.41L716.37,368.74L716.74,356.88L716.87,352.92L717.48,360.83L717.61,358.85L717.73,346.99L718.1,334.13L718.22,337.1L718.35,352.92L718.47,337.1L718.84,361.82L718.96,372.7L720.19,435.01L720.32,430.06L720.44,418.2L721.43,330.17L721.55,357.86L722.41,402.37L722.54,398.42L723.03,386.55L723.15,404.35L724.14,362.81L724.26,353.91L725.99,392.48L726.11,384.57L726.23,378.63L726.85,349.95L726.97,343.03L727.09,336.11L727.46,352.92L727.59,351.93L728.57,337.1L728.7,337.1L730.18,291.6L730.3,300.5L730.42,298.52L730.55,306.44L730.79,303.47L730.92,310.39L731.16,309.4L731.78,312.37L731.9,310.39L732.15,307.42L732.27,319.29L732.39,312.37L732.52,289.62L733.13,254.02L733.26,260.94L733.38,276.76L734.86,372.7L735.11,365.78L735.23,361.82L735.6,353.91L735.72,344.02L735.97,346L736.09,362.81L736.46,394.46L736.83,367.76L736.95,363.8L737.08,354.9L737.69,360.83L737.82,363.8L738.19,360.83L738.31,356.88L738.56,330.17L739.17,333.14L739.3,333.14L740.4,357.86L740.53,355.89L740.77,360.83L740.9,365.78L741.14,366.77L741.27,354.9L741.88,287.64L742.13,292.59L742.25,301.49L743.61,405.34L743.73,399.4L743.86,410.28L744.22,392.48L744.35,353.91L744.96,294.57L745.21,308.41L745.33,331.16L746.69,408.31L746.94,399.4L747.06,390.5L747.8,280.72L748.29,295.56L748.41,300.5L749.89,323.25L750.02,321.27L750.14,316.33L751,285.67L751.13,291.6L751.25,295.56L752.97,404.35L753.1,395.45L753.22,348.96L753.96,315.34L754.08,333.14L755.32,425.12L755.44,436L755.93,453.8L756.67,335.12L756.79,316.33L757.04,337.1L757.16,350.94L758.52,440.94L758.64,430.06L760.25,376.66L760.37,378.63L760.74,390.5L761.35,388.52L761.48,385.56L762.22,349.95L762.34,335.12L762.83,326.22L762.96,332.15L763.08,336.11L763.94,367.76L764.07,363.8L764.19,361.82L764.44,362.81L764.56,369.73L764.68,372.7L764.93,364.79L765.05,356.88L765.42,312.37L765.79,331.16L765.91,345.01L767.27,424.13L767.39,427.1L767.64,427.1L767.76,423.14L768.75,300.5L768.87,314.35L769,330.17L770.23,380.61L770.35,377.65L770.47,376.66L770.84,361.82L770.97,344.02L771.58,310.39L771.95,313.36L772.08,312.37L773.19,348.96L773.43,345.01L773.56,340.06L774.66,304.46L774.79,312.37L775.9,362.81L776.02,364.79L776.27,355.89L776.39,378.63L776.64,381.6L777.5,334.13L777.62,335.12L777.75,355.89L777.87,371.71L778.48,362.81L778.61,365.78L779.47,380.61L779.59,371.71L780.33,282.7L780.7,288.63L780.83,301.49L780.95,295.56L781.44,308.41L781.57,312.37L782.3,352.92L782.43,349.95L782.55,345.01L783.41,315.34L783.54,322.26L783.66,342.04L785.14,384.57L785.26,378.63L785.39,380.61L785.51,377.65L785.63,372.7L786,330.17L786.49,341.05L786.62,345.01L786.86,343.03L786.99,349.95L787.23,356.88L787.73,350.94L787.85,348.96L788.47,339.07L788.59,335.12L789.33,276.76L789.58,301.49L789.7,310.39L790.93,328.19L791.05,329.18L791.42,331.16L791.55,329.18L791.67,322.26L792.41,278.74L792.53,291.6L792.66,303.47L794.01,353.91L794.14,352.92L794.26,344.02L794.63,346L794.75,344.02L794.87,338.08L795,349.95L795.49,341.05L795.61,337.1L796.11,328.19L796.23,333.14L796.35,338.08L796.72,346L797.22,344.02L797.34,336.11L797.59,339.07L797.83,338.08L797.96,347.97L798.45,354.9L798.57,347.97L798.7,346.99L799.56,335.12L799.68,341.05L799.93,349.95L800.3,341.05L800.42,334.13L801.16,265.88L801.28,281.71L801.41,295.56L802.64,351.93L802.76,348.96L802.89,344.02L803.26,350.94L803.99,274.79L804.12,276.76L804.98,323.25L805.1,322.26L805.23,318.3L805.35,321.27L805.47,315.34L805.6,345.01L805.72,351.93L806.21,340.06L806.34,336.11L806.46,337.1L806.58,325.23L806.95,295.56L807.45,306.44L807.57,303.47L807.94,331.16L808.43,321.27L808.55,316.33L809.42,325.23L809.54,321.27L810.16,312.37L810.28,320.28L810.4,322.26L810.53,317.31L810.77,334.13L810.9,345.01L811.14,348.96L811.27,331.16L811.39,321.27L811.76,347.97L811.88,350.94L812,352.92L812.13,345.01L812.25,339.07L812.87,280.72L813.11,292.59L813.24,308.41L814.1,344.02L814.22,343.03L814.35,348.96L814.72,362.81L814.84,389.51L815.83,279.73L816.07,290.61L816.19,307.42L818.04,427.1L818.17,418.2L818.91,293.58L819.15,325.23L819.28,346L820.88,411.27L821,403.36L821.12,394.46L821.99,308.41L822.11,327.2L822.23,342.04L823.84,407.32L823.96,398.42L824.7,317.31L824.82,301.49L825.68,300.5L825.81,300.5L834.19,300.5L834.31,335.12L834.68,342.04L834.8,339.07L834.93,337.1L835.91,374.68L836.04,342.04L836.28,302.48L836.78,319.29L836.9,336.11L838.62,444.9L838.87,435.01L838.99,417.21L839.36,393.47L839.61,419.18L839.73,420.17L839.98,420.17L840.1,415.23L840.84,385.56L840.97,370.72L841.7,383.58L841.95,378.63L842.07,375.67L842.69,369.73L842.81,378.63L844.42,424.13L844.54,418.2L844.66,416.22L845.53,378.63L845.65,379.62L845.77,388.52L847.62,422.15L847.74,419.18L848.24,364.79L848.61,371.71L848.73,386.55L850.08,451.82L850.21,427.1L850.45,454.79L850.82,424.13L850.95,401.38L851.56,354.9L851.81,387.54L851.93,396.44L853.04,425.12L853.17,424.13L854.4,359.84L854.89,365.78L855.01,365.78L855.38,365.78L855.51,373.69L855.63,371.71L856,376.66L856.12,377.65L856.37,378.63L856.49,376.66L856.62,377.65L856.74,369.73L857.23,346L857.6,353.91L857.73,355.89L857.97,354.9L858.1,364.79L858.34,357.86L858.46,350.94L858.71,354.9L858.83,350.94L858.96,359.84L859.2,358.85L859.57,363.8L859.7,361.82L859.82,352.92L860.19,319.29L860.68,333.14L860.81,345.01L861.42,355.89L861.67,351.93L861.79,352.92L862.16,343.03L862.29,345.01L862.41,352.92L863.15,318.3L863.27,344.02L863.64,334.13L863.89,339.07L864.01,344.02L865.49,376.66L865.61,361.82L866.11,324.24L866.48,337.1L866.6,344.02L867.09,371.71L867.21,381.6L868.08,373.69L868.2,366.77L868.45,374.68L868.69,361.82L868.82,356.88L869.19,347.97L869.56,354.9L869.68,355.89L871.04,382.59L871.16,380.61L871.28,382.59L871.53,359.84L871.65,350.94L871.77,342.04L872.02,353.91L872.27,345.01L872.39,369.73L873.5,400.39L873.62,391.49L873.75,393.47L873.87,398.42L874.12,386.55L874.24,382.59L875.23,335.12L875.35,353.91L876.58,418.2L876.7,424.13L876.83,425.12L876.95,432.04L877.2,440.94L877.32,428.09L877.44,420.17L878.18,340.06L878.43,377.65L878.55,386.55L879.05,411.27L879.17,420.17L879.78,436L879.91,442.92L880.15,445.89L880.65,387.54L880.77,364.79L881.02,333.14L881.39,378.63L881.51,378.63L882.37,384.57L882.5,384.57L888.04,384.57L888.16,372.7L888.78,392.48L888.9,388.52L889.03,381.6L889.89,322.26L890.26,332.15L890.38,334.13L890.51,333.14L890.75,336.11L890.88,336.11L891.62,360.83L891.74,344.02L891.86,345.01L892.11,356.88L892.23,334.13L892.35,309.4L892.72,303.47L893.46,333.14L893.59,342.04L894.94,407.32L895.07,404.35L895.19,390.5L895.93,335.12L896.05,355.89L896.18,379.62L896.91,413.25L897.04,403.36L897.16,397.43L897.78,386.55L897.9,400.39L898.02,399.4L898.15,378.63L898.52,330.17L899.01,338.08L899.13,343.03L899.26,346L899.5,335.12L899.63,333.14L899.75,327.2L900.12,336.11L900.37,331.16L900.49,333.14L900.61,343.03L900.98,330.17L901.1,331.16L901.23,328.19L901.47,299.51L901.97,311.38L902.09,314.35L903.69,345.01L903.82,340.06L903.94,337.1L904.06,340.06L904.31,331.16L904.43,328.19L904.56,324.24L905.05,328.19L905.17,330.17L905.79,347.97L906.03,344.02L906.16,337.1L906.65,350.94L906.9,343.03L907.02,340.06L907.51,330.17L907.88,334.13L908.01,335.12L908.38,342.04L908.5,347.97L908.99,355.89L909.12,352.92L909.24,360.83L909.73,380.61L909.98,368.74L910.1,349.95L910.72,310.39L910.96,325.23L911.09,327.2L912.2,405.34L912.44,402.37L912.57,390.5L913.18,337.1L913.31,326.22L913.67,333.14L913.8,345.01L915.28,424.13L915.4,414.24L915.52,410.28L916.51,346L916.76,364.79L916.88,385.56L917.13,384.57L917.62,403.36L917.74,418.2L917.86,419.18L917.99,434.02L918.11,442.92L918.36,425.12L918.6,432.04L918.73,427.1L919.22,378.63L919.34,361.82L919.47,345.01L919.84,380.61L919.96,388.52L921.07,430.06L921.44,428.09L921.56,410.28L921.69,406.33L921.81,377.65L922.18,348.96L922.55,357.86L922.67,364.79L923.78,423.14L923.9,427.1L924.52,448.86L924.64,442.92L924.77,421.16L925.51,339.07L925.63,353.91L925.75,375.67L926.61,436.99L926.86,434.02L926.98,422.15L927.11,436L927.6,424.13L927.72,411.27L927.97,416.22L928.09,412.26L928.22,412.26L928.71,417.21L928.83,416.22L928.96,403.36L929.2,354.9L929.7,368.74L929.82,398.42L930.07,420.17L930.44,397.43L930.56,396.44L930.8,414.24L930.93,404.35L931.05,381.6L931.17,367.76L931.79,381.6L931.91,377.65L932.04,375.67L932.41,380.61L932.53,381.6L932.9,389.51L933.02,396.44L933.15,397.43L933.27,392.48L933.39,397.43L933.64,384.57L933.76,344.02L934.38,314.35L934.5,331.16L934.63,352.92L935.86,413.25L935.98,412.26L936.1,408.31L936.97,356.88L937.09,340.06L937.34,333.14L937.46,334.13L937.58,346.99L937.71,347.97L937.83,363.8L939.06,415.23L939.18,411.27L939.68,351.93L939.8,328.19L940.17,310.39L940.42,324.24L940.54,334.13L942.27,441.93L942.39,436L943.25,378.63L943.37,396.44L943.5,410.28L943.74,413.25L943.87,394.46L944.48,427.1L944.73,409.29L944.85,401.38L945.47,380.61L945.59,367.76L945.72,349.95L946.21,361.82L946.33,378.63L947.56,422.15L947.69,424.13L947.93,434.02L948.43,433.03L948.55,417.21L948.67,410.28L949.04,422.15L949.29,417.21L949.41,424.13L949.66,424.13L949.78,432.04L949.91,426.11L950.4,428.09L950.52,436.99L950.77,439.95L952.12,410.28L952.25,419.18L952.49,414.24L952.86,421.16L952.99,427.1L953.97,421.16L954.1,421.16L954.34,408.31L954.47,397.43L954.84,394.46L956.31,436.99L956.44,432.04L957.79,420.17L957.92,425.12L958.78,433.03L958.9,433.03L959.15,433.03L959.27,447.87L959.64,456.77L960.01,452.81L960.13,449.84L961,423.14L961.12,427.1L961.24,434.02L961.86,438.97L961.98,437.98L962.11,429.08L962.97,439.95L963.09,434.02L963.71,385.56L964.08,389.51L964.2,404.35L964.94,437.98L965.19,427.1L965.31,427.1L965.56,433.03L965.93,430.06L966.05,423.14L966.91,327.2L967.04,338.08L967.16,363.8L968.39,441.93L968.52,448.86L969.01,430.06L969.13,423.14L969.87,333.14L970.12,359.84L970.24,373.69L971.6,440.94L971.72,432.04L971.84,439.95L972.09,409.29L972.21,370.72L972.83,323.25L972.95,336.11L973.07,362.81L974.43,454.79L974.55,445.89L974.8,453.8L974.92,445.89L975.05,416.22L975.79,311.38L976.03,346L976.16,364.79L977.63,448.86L977.76,443.91L977.88,423.14L978.25,318.3L978.74,354.9L978.87,353.91L980.1,445.89L980.22,451.82L980.47,458.75L980.72,446.88L980.84,426.11L981.58,370.72L981.7,371.71L981.82,381.6L983.18,458.75L983.3,454.79L983.8,463.69L983.92,426.11L984.29,356.88L984.78,375.67L984.91,398.42L986.01,428.09L986.14,429.08L986.63,437.98L986.75,411.27L987.12,339.07L987.62,347.97L987.74,362.81L988.6,398.42L988.73,397.43L988.85,396.44L988.97,398.42L989.1,407.32L989.47,408.31L989.83,380.61L989.96,362.81L990.45,329.18L991.07,332.15L991.19,332.15L999.94,332.15L1000.06,382.59L1000.31,396.44L1000.43,409.29L1001.05,426.11L1001.3,415.23L1001.42,407.32L1002.53,356.88L1002.65,357.86L1002.77,357.86L1002.9,353.91L1003.14,365.78L1003.27,366.77L1004.25,386.55L1004.38,380.61L1004.5,372.7L1005.24,269.84L1005.49,297.53L1005.61,313.36L1007.09,398.42L1007.21,377.65L1007.33,373.69L1008.07,331.16L1008.44,332.15L1008.57,349.95L1009.8,398.42L1009.92,398.42L1010.17,407.32L1010.42,402.37L1010.54,373.69L1010.79,340.06L1011.4,352.92L1011.52,363.8L1012.88,435.01L1013.13,432.04L1013.25,415.23L1013.87,371.71L1014.11,374.68L1014.24,378.63L1014.98,417.21L1015.47,410.28L1015.59,409.29L1015.71,410.28L1015.84,398.42L1016.08,403.36L1016.21,401.38L1016.33,390.5L1016.45,366.77L1017.07,378.63L1017.19,377.65L1017.32,374.68L1017.44,383.58L1017.56,391.49L1018.55,411.27L1018.67,403.36L1018.8,398.42L1019.04,403.36L1019.17,398.42L1019.29,383.58L1019.66,349.95L1020.15,351.93L1020.27,356.88L1021.75,447.87L1021.88,447.87L1022.12,460.72L1022.37,436L1022.49,425.12L1022.86,330.17L1023.36,351.93L1023.48,358.85L1024.46,390.5L1024.83,387.54L1024.96,389.51L1025.2,379.62L1025.33,366.77L1025.45,361.82L1025.57,376.66L1025.7,388.52L1026.07,381.6L1026.19,383.58L1026.31,387.54L1027.55,427.1L1027.67,428.09L1027.79,434.02L1028.04,416.22L1028.28,429.08L1028.41,405.34L1028.78,386.55L1029.15,394.46L1029.27,409.29L1029.39,413.25L1029.76,411.27L1029.89,403.36L1030.01,404.35L1030.13,423.14L1030.38,441.93L1030.87,433.03L1031,426.11L1031.24,406.33L1031.37,376.66L1031.49,353.91L1031.74,402.37L1031.98,393.47L1032.11,403.36L1033.34,432.04L1033.46,435.01L1033.83,422.15L1034.08,424.13L1034.2,436L1034.32,438.97L1034.45,428.09L1034.57,416.22L1034.69,410.28L1035.19,419.18L1035.31,419.18L1035.93,435.01L1036.05,416.22L1036.42,437.98L1036.79,429.08L1036.91,426.11L1037.03,428.09L1037.28,421.16L1037.4,412.26L1037.77,382.59L1038.14,400.39L1038.27,406.33L1038.39,404.35L1038.64,411.27L1038.76,412.26L1039.5,417.21L1039.62,415.23L1039.75,414.24L1040.12,384.57L1040.24,359.84L1040.36,338.08L1040.98,345.01L1041.1,365.78L1042.33,443.91L1042.46,429.08L1043.44,368.74L1043.81,377.65L1043.94,393.47L1044.68,408.31L1044.8,404.35L1044.92,412.26L1045.66,452.81L1045.78,441.93L1045.91,430.06L1046.28,342.04L1046.77,384.57L1046.89,388.52L1048,427.1L1048.13,428.09L1048.37,431.05L1048.5,438.97L1048.62,441.93L1048.99,434.02L1049.11,436L1049.23,430.06L1049.36,427.1L1049.73,434.02L1049.85,440.94L1051.21,467.65L1051.33,469.63L1051.58,472.59L1051.7,468.64L1051.82,460.72L1052.69,426.11L1052.81,428.09L1053.79,466.66L1053.92,467.65L1054.66,485.45L1054.78,471.6L1055.64,349.95L1055.77,351.93L1055.89,376.66L1056.88,429.08L1057,431.05L1057.37,438.97L1057.49,437.98L1057.62,429.08L1057.86,394.46L1057.98,431.05L1058.48,407.32L1058.6,404.35L1059.83,428.09L1059.96,422.15L1060.45,436L1060.57,430.06L1060.7,417.21L1061.44,343.03L1061.81,359.84L1061.93,378.63L1063.28,436L1063.41,421.16L1063.53,417.21L1064.02,328.19L1064.52,338.08L1064.64,351.93L1065.38,402.37L1065.5,399.4L1065.63,397.43L1065.87,395.45L1066,399.4L1066.12,409.29L1066.36,412.26L1066.49,408.31L1066.61,394.46L1067.1,320.28L1067.6,352.92L1067.72,366.77L1068.71,416.22L1068.83,414.24L1068.95,415.23L1069.08,422.15L1069.45,408.31L1069.57,398.42L1069.94,361.82L1070.43,370.72L1070.55,373.69L1071.91,461.71L1072.03,452.81L1072.28,463.69L1072.4,457.76L1072.53,426.11L1073.39,303.47L1073.51,310.39L1073.64,336.11L1074.87,429.08L1074.99,443.91L1075.24,446.88L1075.36,434.02L1076.47,288.63L1076.59,322.26L1076.72,340.06L1077.83,427.1L1078.2,424.13L1078.32,419.18L1079.3,266.87L1079.43,270.83L1079.55,303.47L1080.78,423.14L1080.91,418.2L1081.03,422.15L1081.15,429.08L1081.28,424.13L1081.4,396.44L1082.14,275.78L1082.39,286.65L1082.51,308.41L1083.49,367.76L1083.62,365.78L1083.74,364.79L1083.86,369.73L1083.99,375.67L1084.23,361.82L1084.36,342.04L1084.85,288.63L1085.34,293.58L1085.47,312.37L1085.96,351.93L1086.45,344.02L1086.58,341.05L1086.82,345.01L1087.44,329.18L1087.56,333.14L1087.68,336.11L1087.81,326.22L1087.93,296.54L1088.05,269.84L1088.55,317.31L1088.67,320.28L1089.16,336.11L1089.29,350.94L1089.78,383.58L1090.03,368.74L1090.15,359.84L1091.14,266.87L1091.26,279.73L1091.38,289.62L1092.86,374.68L1092.98,366.77L1093.11,363.8L1093.23,338.08L1094.09,233.25L1094.22,241.16L1094.34,265.88L1095.7,387.54L1095.82,392.48L1095.94,391.49L1096.06,380.61L1097.05,181.82L1097.3,228.3L1097.42,258.96L1098.65,369.73L1098.78,377.65L1098.9,388.52L1099.02,372.7L1099.15,336.11L1099.89,186.76L1100.13,207.53L1100.25,242.15L1101.73,395.45L1101.86,392.48L1102.35,280.72L1102.47,247.09L1102.84,210.5L1103.21,248.08L1103.34,277.75L1104.08,351.93L1104.32,345.01L1104.44,346L1104.69,349.95L1104.81,348.96L1104.94,346L1105.68,273.8L1105.8,256.98L1105.92,252.04L1106.05,263.91L1106.17,286.65L1106.66,336.11L1107.16,334.13L1107.28,336.11L1107.77,344.02L1107.9,335.12L1108.39,282.7L1108.51,254.02L1108.63,255.99L1108.76,238.19L1110.48,351.93L1110.61,339.07L1110.73,340.06L1110.85,333.14L1111.72,231.27L1111.96,241.16L1112.09,259.95L1112.95,342.04L1113.19,340.06L1113.32,347.97L1113.69,364.79L1113.81,349.95L1113.93,327.2L1114.8,214.46L1114.92,240.17L1115.04,255.99L1116.28,323.25L1116.4,318.3L1116.52,326.22L1116.65,328.19L1116.77,314.35L1117.51,224.35L1117.88,237.2L1118,242.15L1119.36,344.02L1119.48,339.07L1119.6,348.96L1119.73,334.13L1119.85,307.42L1120.22,308.41L1120.59,228.3L1120.84,247.09L1120.96,255.99L1122.19,332.15L1122.44,331.16L1122.56,327.2L1123.67,252.04L1123.79,258.96L1123.92,264.9L1125.03,307.42L1125.15,306.44L1125.27,305.45L1125.52,307.42L1125.64,303.47L1125.76,294.57L1126.63,212.48L1126.87,250.06L1127,271.82L1128.11,309.4L1128.23,310.39L1128.6,316.33L1128.72,323.25L1129.34,282.7L1129.46,306.44L1129.59,314.35L1129.83,330.17L1130.32,324.24L1130.45,322.26L1130.94,331.16L1131.43,327.2L1131.56,318.3L1132.42,218.41L1132.79,242.15L1132.91,272.81L1133.78,334.13L1134.02,331.16L1134.14,331.16L1134.27,339.07L1134.51,324.24L1134.64,315.34L1134.88,272.81L1135.5,285.67L1135.62,285.67L1135.75,283.69L1135.87,297.53L1137.1,365.78L1137.35,360.83L1137.47,346.99L1138.33,203.58L1138.58,228.3L1138.7,254.02L1139.94,339.07L1140.06,345.01L1140.31,341.05L1140.43,300.5L1141.05,229.29L1141.29,244.13L1141.42,254.02L1141.54,255.01L1141.66,268.85L1142.77,332.15L1142.89,331.16L1143.02,333.14L1143.26,331.16L1143.39,307.42L1143.63,303.47L1143.76,279.73L1144,269.84L1144.25,274.79L1144.37,279.73L1144.5,275.78L1144.62,297.53L1145.73,348.96L1145.85,355.89L1146.1,360.83L1146.22,356.88L1146.35,326.22L1147.08,249.07L1147.45,258.96L1147.58,282.7L1148.56,347.97L1148.69,362.81L1149.18,378.63L1149.3,333.14L1150.17,169.95L1150.41,180.83L1150.54,241.16L1151.64,354.9L1151.77,349.95L1152.01,372.7L1152.26,333.14L1152.38,286.65L1153,184.78" style="vector-effect: none; fill: none; stroke: rgb(99, 110, 250); stroke-opacity: 1; stroke-width: 2px; opacity: 1;"/></g><g class="points"/><g class="text"/></g></g></g><g class="overplot"/><path class="xlines-above crisp" d="M0,0" style="fill: none;"/><path class="ylines-above crisp" d="M0,0" style="fill: none;"/><g class="overlines-above"/><g class="xaxislayer-above"><g class="xtick"><text text-anchor="middle" x="0" y="584" transform="translate(27,0)" style="font-family: 'Open Sans', verdana, arial, sans-serif; font-size: 12px; fill: rgb(42, 63, 95); fill-opacity: 1; white-space: pre; opacity: 1;">0</text></g><g class="xtick"><text text-anchor="middle" x="0" y="584" style="font-family: 'Open Sans', verdana, arial, sans-serif; font-size: 12px; fill: rgb(42, 63, 95); fill-opacity: 1; white-space: pre; opacity: 1;" transform="translate(150.24,0)">1000</text></g><g class="xtick"><text text-anchor="middle" x="0" y="584" style="font-family: 'Open Sans', verdana, arial, sans-serif; font-size: 12px; fill: rgb(42, 63, 95); fill-opacity: 1; white-space: pre; opacity: 1;" transform="translate(273.47,0)">2000</text></g><g class="xtick"><text text-anchor="middle" x="0" y="584" style="font-family: 'Open Sans', verdana, arial, sans-serif; font-size: 12px; fill: rgb(42, 63, 95); fill-opacity: 1; white-space: pre; opacity: 1;" transform="translate(396.71,0)">3000</text></g><g class="xtick"><text text-anchor="middle" x="0" y="584" style="font-family: 'Open Sans', verdana, arial, sans-serif; font-size: 12px; fill: rgb(42, 63, 95); fill-opacity: 1; white-space: pre; opacity: 1;" transform="translate(519.95,0)">4000</text></g><g class="xtick"><text text-anchor="middle" x="0" y="584" style="font-family: 'Open Sans', verdana, arial, sans-serif; font-size: 12px; fill: rgb(42, 63, 95); fill-opacity: 1; white-space: pre; opacity: 1;" transform="translate(643.18,0)">5000</text></g><g class="xtick"><text text-anchor="middle" x="0" y="584" style="font-family: 'Open Sans', verdana, arial, sans-serif; font-size: 12px; fill: rgb(42, 63, 95); fill-opacity: 1; white-space: pre; opacity: 1;" transform="translate(766.42,0)">6000</text></g><g class="xtick"><text text-anchor="middle" x="0" y="584" style="font-family: 'Open Sans', verdana, arial, sans-serif; font-size: 12px; fill: rgb(42, 63, 95); fill-opacity: 1; white-space: pre; opacity: 1;" transform="translate(889.65,0)">7000</text></g><g class="xtick"><text text-anchor="middle" x="0" y="584" style="font-family: 'Open Sans', verdana, arial, sans-serif; font-size: 12px; fill: rgb(42, 63, 95); fill-opacity: 1; white-space: pre; opacity: 1;" transform="translate(1012.89,0)">8000</text></g><g class="xtick"><text text-anchor="middle" x="0" y="584" style="font-family: 'Open Sans', verdana, arial, sans-serif; font-size: 12px; fill: rgb(42, 63, 95); fill-opacity: 1; white-space: pre; opacity: 1;" transform="translate(1136.13,0)">9000</text></g></g><g class="yaxislayer-above"><g class="ytick"><text text-anchor="end" x="26" y="4.199999999999999" transform="translate(0,526.6600000000001)" style="font-family: 'Open Sans', verdana, arial, sans-serif; font-size: 12px; fill: rgb(42, 63, 95); fill-opacity: 1; white-space: pre; opacity: 1;">0</text></g><g class="ytick"><text text-anchor="end" x="26" y="4.199999999999999" style="font-family: 'Open Sans', verdana, arial, sans-serif; font-size: 12px; fill: rgb(42, 63, 95); fill-opacity: 1; white-space: pre; opacity: 1;" transform="translate(0,427.76)">10</text></g><g class="ytick"><text text-anchor="end" x="26" y="4.199999999999999" style="font-family: 'Open Sans', verdana, arial, sans-serif; font-size: 12px; fill: rgb(42, 63, 95); fill-opacity: 1; white-space: pre; opacity: 1;" transform="translate(0,328.85)">20</text></g><g class="ytick"><text text-anchor="end" x="26" y="4.199999999999999" style="font-family: 'Open Sans', verdana, arial, sans-serif; font-size: 12px; fill: rgb(42, 63, 95); fill-opacity: 1; white-space: pre; opacity: 1;" transform="translate(0,229.95)">30</text></g><g class="ytick"><text text-anchor="end" x="26" y="4.199999999999999" style="font-family: 'Open Sans', verdana, arial, sans-serif; font-size: 12px; fill: rgb(42, 63, 95); fill-opacity: 1; white-space: pre; opacity: 1;" transform="translate(0,131.05)">40</text></g></g><g class="overaxes-above"/></g></g><g class="polarlayer"/><g class="smithlayer"/><g class="ternarylayer"/><g class="geolayer"/><g class="funnelarealayer"/><g class="pielayer"/><g class="iciclelayer"/><g class="treemaplayer"/><g class="sunburstlayer"/><g class="glimages"/><defs id="topdefs-fc79b4"><g class="clips"/></defs><g class="layer-above"><g class="imagelayer"/><g class="shapelayer"><g class="shape-group" data-index="0" clip-path="url(#clipfc79b4x)"><path data-index="0" fill-rule="evenodd" d="M39.32,571L39.32,60" style="opacity: 0.5; stroke: rgb(0, 128, 0); stroke-opacity: 1; fill: rgb(0, 0, 0); fill-opacity: 0; stroke-width: 2px;"/></g><g class="shape-group" data-index="1" clip-path="url(#clipfc79b4x)"><path data-index="1" fill-rule="evenodd" d="M39.32,571L39.32,60" style="opacity: 0.5; stroke: rgb(255, 0, 0); stroke-opacity: 1; fill: rgb(0, 0, 0); fill-opacity: 0; stroke-width: 2px;"/></g><g class="shape-group" data-index="2" clip-path="url(#clipfc79b4x)"><path data-index="2" fill-rule="evenodd" d="M65.57,571L65.57,60" style="opacity: 0.5; stroke: rgb(255, 0, 0); stroke-opacity: 1; fill: rgb(0, 0, 0); fill-opacity: 0; stroke-width: 2px;"/></g><g class="shape-group" data-index="3" clip-path="url(#clipfc79b4x)"><path data-index="3" fill-rule="evenodd" d="M65.94,571L65.94,60" style="opacity: 0.5; stroke: rgb(0, 128, 0); stroke-opacity: 1; fill: rgb(0, 0, 0); fill-opacity: 0; stroke-width: 2px;"/></g><g class="shape-group" data-index="4" clip-path="url(#clipfc79b4x)"><path data-index="4" fill-rule="evenodd" d="M87.39,571L87.39,60" style="opacity: 0.5; stroke: rgb(255, 0, 0); stroke-opacity: 1; fill: rgb(0, 0, 0); fill-opacity: 0; stroke-width: 2px;"/></g><g class="shape-group" data-index="5" clip-path="url(#clipfc79b4x)"><path data-index="5" fill-rule="evenodd" d="M97.86,571L97.86,60" style="opacity: 0.5; stroke: rgb(255, 0, 0); stroke-opacity: 1; fill: rgb(0, 0, 0); fill-opacity: 0; stroke-width: 2px;"/></g><g class="shape-group" data-index="6" clip-path="url(#clipfc79b4x)"><path data-index="6" fill-rule="evenodd" d="M111.42,571L111.42,60" style="opacity: 0.5; stroke: rgb(255, 0, 0); stroke-opacity: 1; fill: rgb(0, 0, 0); fill-opacity: 0; stroke-width: 2px;"/></g><g class="shape-group" data-index="7" clip-path="url(#clipfc79b4x)"><path data-index="7" fill-rule="evenodd" d="M116.96,571L116.96,60" style="opacity: 0.5; stroke: rgb(0, 128, 0); stroke-opacity: 1; fill: rgb(0, 0, 0); fill-opacity: 0; stroke-width: 2px;"/></g><g class="shape-group" data-index="8" clip-path="url(#clipfc79b4x)"><path data-index="8" fill-rule="evenodd" d="M151.22,571L151.22,60" style="opacity: 0.5; stroke: rgb(255, 0, 0); stroke-opacity: 1; fill: rgb(0, 0, 0); fill-opacity: 0; stroke-width: 2px;"/></g><g class="shape-group" data-index="9" clip-path="url(#clipfc79b4x)"><path data-index="9" fill-rule="evenodd" d="M167.24,571L167.24,60" style="opacity: 0.5; stroke: rgb(255, 0, 0); stroke-opacity: 1; fill: rgb(0, 0, 0); fill-opacity: 0; stroke-width: 2px;"/></g><g class="shape-group" data-index="10" clip-path="url(#clipfc79b4x)"><path data-index="10" fill-rule="evenodd" d="M193.49,571L193.49,60" style="opacity: 0.5; stroke: rgb(255, 0, 0); stroke-opacity: 1; fill: rgb(0, 0, 0); fill-opacity: 0; stroke-width: 2px;"/></g><g class="shape-group" data-index="11" clip-path="url(#clipfc79b4x)"><path data-index="11" fill-rule="evenodd" d="M196.2,571L196.2,60" style="opacity: 0.5; stroke: rgb(0, 128, 0); stroke-opacity: 1; fill: rgb(0, 0, 0); fill-opacity: 0; stroke-width: 2px;"/></g><g class="shape-group" data-index="12" clip-path="url(#clipfc79b4x)"><path data-index="12" fill-rule="evenodd" d="M212.96,571L212.96,60" style="opacity: 0.5; stroke: rgb(255, 0, 0); stroke-opacity: 1; fill: rgb(0, 0, 0); fill-opacity: 0; stroke-width: 2px;"/></g><g class="shape-group" data-index="13" clip-path="url(#clipfc79b4x)"><path data-index="13" fill-rule="evenodd" d="M225.29,571L225.29,60" style="opacity: 0.5; stroke: rgb(255, 0, 0); stroke-opacity: 1; fill: rgb(0, 0, 0); fill-opacity: 0; stroke-width: 2px;"/></g><g class="shape-group" data-index="14" clip-path="url(#clipfc79b4x)"><path data-index="14" fill-rule="evenodd" d="M254,571L254,60" style="opacity: 0.5; stroke: rgb(0, 128, 0); stroke-opacity: 1; fill: rgb(0, 0, 0); fill-opacity: 0; stroke-width: 2px;"/></g><g class="shape-group" data-index="15" clip-path="url(#clipfc79b4x)"><path data-index="15" fill-rule="evenodd" d="M254.25,571L254.25,60" style="opacity: 0.5; stroke: rgb(255, 0, 0); stroke-opacity: 1; fill: rgb(0, 0, 0); fill-opacity: 0; stroke-width: 2px;"/></g><g class="shape-group" data-index="16" clip-path="url(#clipfc79b4x)"><path data-index="16" fill-rule="evenodd" d="M290.48,571L290.48,60" style="opacity: 0.5; stroke: rgb(255, 0, 0); stroke-opacity: 1; fill: rgb(0, 0, 0); fill-opacity: 0; stroke-width: 2px;"/></g><g class="shape-group" data-index="17" clip-path="url(#clipfc79b4x)"><path data-index="17" fill-rule="evenodd" d="M302.31,571L302.31,60" style="opacity: 0.5; stroke: rgb(255, 0, 0); stroke-opacity: 1; fill: rgb(0, 0, 0); fill-opacity: 0; stroke-width: 2px;"/></g><g class="shape-group" data-index="18" clip-path="url(#clipfc79b4x)"><path data-index="18" fill-rule="evenodd" d="M309.95,571L309.95,60" style="opacity: 0.5; stroke: rgb(0, 128, 0); stroke-opacity: 1; fill: rgb(0, 0, 0); fill-opacity: 0; stroke-width: 2px;"/></g><g class="shape-group" data-index="19" clip-path="url(#clipfc79b4x)"><path data-index="19" fill-rule="evenodd" d="M323.01,571L323.01,60" style="opacity: 0.5; stroke: rgb(255, 0, 0); stroke-opacity: 1; fill: rgb(0, 0, 0); fill-opacity: 0; stroke-width: 2px;"/></g><g class="shape-group" data-index="20" clip-path="url(#clipfc79b4x)"><path data-index="20" fill-rule="evenodd" d="M328.07,571L328.07,60" style="opacity: 0.5; stroke: rgb(0, 128, 0); stroke-opacity: 1; fill: rgb(0, 0, 0); fill-opacity: 0; stroke-width: 2px;"/></g><g class="shape-group" data-index="21" clip-path="url(#clipfc79b4x)"><path data-index="21" fill-rule="evenodd" d="M328.68,571L328.68,60" style="opacity: 0.5; stroke: rgb(255, 0, 0); stroke-opacity: 1; fill: rgb(0, 0, 0); fill-opacity: 0; stroke-width: 2px;"/></g><g class="shape-group" data-index="22" clip-path="url(#clipfc79b4x)"><path data-index="22" fill-rule="evenodd" d="M351.85,571L351.85,60" style="opacity: 0.5; stroke: rgb(255, 0, 0); stroke-opacity: 1; fill: rgb(0, 0, 0); fill-opacity: 0; stroke-width: 2px;"/></g><g class="shape-group" data-index="23" clip-path="url(#clipfc79b4x)"><path data-index="23" fill-rule="evenodd" d="M368.98,571L368.98,60" style="opacity: 0.5; stroke: rgb(255, 0, 0); stroke-opacity: 1; fill: rgb(0, 0, 0); fill-opacity: 0; stroke-width: 2px;"/></g><g class="shape-group" data-index="24" clip-path="url(#clipfc79b4x)"><path data-index="24" fill-rule="evenodd" d="M389.19,571L389.19,60" style="opacity: 0.5; stroke: rgb(255, 0, 0); stroke-opacity: 1; fill: rgb(0, 0, 0); fill-opacity: 0; stroke-width: 2px;"/></g><g class="shape-group" data-index="25" clip-path="url(#clipfc79b4x)"><path data-index="25" fill-rule="evenodd" d="M405.21,571L405.21,60" style="opacity: 0.5; stroke: rgb(255, 0, 0); stroke-opacity: 1; fill: rgb(0, 0, 0); fill-opacity: 0; stroke-width: 2px;"/></g><g class="shape-group" data-index="26" clip-path="url(#clipfc79b4x)"><path data-index="26" fill-rule="evenodd" d="M420.62,571L420.62,60" style="opacity: 0.5; stroke: rgb(255, 0, 0); stroke-opacity: 1; fill: rgb(0, 0, 0); fill-opacity: 0; stroke-width: 2px;"/></g><g class="shape-group" data-index="27" clip-path="url(#clipfc79b4x)"><path data-index="27" fill-rule="evenodd" d="M436.76,571L436.76,60" style="opacity: 0.5; stroke: rgb(255, 0, 0); stroke-opacity: 1; fill: rgb(0, 0, 0); fill-opacity: 0; stroke-width: 2px;"/></g><g class="shape-group" data-index="28" clip-path="url(#clipfc79b4x)"><path data-index="28" fill-rule="evenodd" d="M455.86,571L455.86,60" style="opacity: 0.5; stroke: rgb(255, 0, 0); stroke-opacity: 1; fill: rgb(0, 0, 0); fill-opacity: 0; stroke-width: 2px;"/></g><g class="shape-group" data-index="29" clip-path="url(#clipfc79b4x)"><path data-index="29" fill-rule="evenodd" d="M469.42,571L469.42,60" style="opacity: 0.5; stroke: rgb(255, 0, 0); stroke-opacity: 1; fill: rgb(0, 0, 0); fill-opacity: 0; stroke-width: 2px;"/></g><g class="shape-group" data-index="30" clip-path="url(#clipfc79b4x)"><path data-index="30" fill-rule="evenodd" d="M516.5,571L516.5,60" style="opacity: 0.5; stroke: rgb(255, 0, 0); stroke-opacity: 1; fill: rgb(0, 0, 0); fill-opacity: 0; stroke-width: 2px;"/></g><g class="shape-group" data-index="31" clip-path="url(#clipfc79b4x)"><path data-index="31" fill-rule="evenodd" d="M528.3299999999999,571L528.3299999999999,60" style="opacity: 0.5; stroke: rgb(0, 128, 0); stroke-opacity: 1; fill: rgb(0, 0, 0); fill-opacity: 0; stroke-width: 2px;"/></g><g class="shape-group" data-index="32" clip-path="url(#clipfc79b4x)"><path data-index="32" fill-rule="evenodd" d="M529.8,571L529.8,60" style="opacity: 0.5; stroke: rgb(255, 0, 0); stroke-opacity: 1; fill: rgb(0, 0, 0); fill-opacity: 0; stroke-width: 2px;"/></g><g class="shape-group" data-index="33" clip-path="url(#clipfc79b4x)"><path data-index="33" fill-rule="evenodd" d="M550.39,571L550.39,60" style="opacity: 0.5; stroke: rgb(255, 0, 0); stroke-opacity: 1; fill: rgb(0, 0, 0); fill-opacity: 0; stroke-width: 2px;"/></g><g class="shape-group" data-index="34" clip-path="url(#clipfc79b4x)"><path data-index="34" fill-rule="evenodd" d="M566.41,571L566.41,60" style="opacity: 0.5; stroke: rgb(255, 0, 0); stroke-opacity: 1; fill: rgb(0, 0, 0); fill-opacity: 0; stroke-width: 2px;"/></g><g class="shape-group" data-index="35" clip-path="url(#clipfc79b4x)"><path data-index="35" fill-rule="evenodd" d="M584.52,571L584.52,60" style="opacity: 0.5; stroke: rgb(255, 0, 0); stroke-opacity: 1; fill: rgb(0, 0, 0); fill-opacity: 0; stroke-width: 2px;"/></g><g class="shape-group" data-index="36" clip-path="url(#clipfc79b4x)"><path data-index="36" fill-rule="evenodd" d="M606.58,571L606.58,60" style="opacity: 0.5; stroke: rgb(255, 0, 0); stroke-opacity: 1; fill: rgb(0, 0, 0); fill-opacity: 0; stroke-width: 2px;"/></g><g class="shape-group" data-index="37" clip-path="url(#clipfc79b4x)"><path data-index="37" fill-rule="evenodd" d="M615.58,571L615.58,60" style="opacity: 0.5; stroke: rgb(0, 128, 0); stroke-opacity: 1; fill: rgb(0, 0, 0); fill-opacity: 0; stroke-width: 2px;"/></g><g class="shape-group" data-index="38" clip-path="url(#clipfc79b4x)"><path data-index="38" fill-rule="evenodd" d="M616.44,571L616.44,60" style="opacity: 0.5; stroke: rgb(255, 0, 0); stroke-opacity: 1; fill: rgb(0, 0, 0); fill-opacity: 0; stroke-width: 2px;"/></g><g class="shape-group" data-index="39" clip-path="url(#clipfc79b4x)"><path data-index="39" fill-rule="evenodd" d="M632.95,571L632.95,60" style="opacity: 0.5; stroke: rgb(255, 0, 0); stroke-opacity: 1; fill: rgb(0, 0, 0); fill-opacity: 0; stroke-width: 2px;"/></g><g class="shape-group" data-index="40" clip-path="url(#clipfc79b4x)"><path data-index="40" fill-rule="evenodd" d="M666.23,571L666.23,60" style="opacity: 0.5; stroke: rgb(255, 0, 0); stroke-opacity: 1; fill: rgb(0, 0, 0); fill-opacity: 0; stroke-width: 2px;"/></g><g class="shape-group" data-index="41" clip-path="url(#clipfc79b4x)"><path data-index="41" fill-rule="evenodd" d="M666.47,571L666.47,60" style="opacity: 0.5; stroke: rgb(0, 128, 0); stroke-opacity: 1; fill: rgb(0, 0, 0); fill-opacity: 0; stroke-width: 2px;"/></g><g class="shape-group" data-index="42" clip-path="url(#clipfc79b4x)"><path data-index="42" fill-rule="evenodd" d="M689.27,571L689.27,60" style="opacity: 0.5; stroke: rgb(255, 0, 0); stroke-opacity: 1; fill: rgb(0, 0, 0); fill-opacity: 0; stroke-width: 2px;"/></g><g class="shape-group" data-index="43" clip-path="url(#clipfc79b4x)"><path data-index="43" fill-rule="evenodd" d="M689.4,571L689.4,60" style="opacity: 0.5; stroke: rgb(0, 128, 0); stroke-opacity: 1; fill: rgb(0, 0, 0); fill-opacity: 0; stroke-width: 2px;"/></g><g class="shape-group" data-index="44" clip-path="url(#clipfc79b4x)"><path data-index="44" fill-rule="evenodd" d="M706.28,571L706.28,60" style="opacity: 0.5; stroke: rgb(255, 0, 0); stroke-opacity: 1; fill: rgb(0, 0, 0); fill-opacity: 0; stroke-width: 2px;"/></g><g class="shape-group" data-index="45" clip-path="url(#clipfc79b4x)"><path data-index="45" fill-rule="evenodd" d="M744.11,571L744.11,60" style="opacity: 0.5; stroke: rgb(255, 0, 0); stroke-opacity: 1; fill: rgb(0, 0, 0); fill-opacity: 0; stroke-width: 2px;"/></g><g class="shape-group" data-index="46" clip-path="url(#clipfc79b4x)"><path data-index="46" fill-rule="evenodd" d="M744.61,571L744.61,60" style="opacity: 0.5; stroke: rgb(0, 128, 0); stroke-opacity: 1; fill: rgb(0, 0, 0); fill-opacity: 0; stroke-width: 2px;"/></g><g class="shape-group" data-index="47" clip-path="url(#clipfc79b4x)"><path data-index="47" fill-rule="evenodd" d="M756.93,571L756.93,60" style="opacity: 0.5; stroke: rgb(0, 128, 0); stroke-opacity: 1; fill: rgb(0, 0, 0); fill-opacity: 0; stroke-width: 2px;"/></g><g class="shape-group" data-index="48" clip-path="url(#clipfc79b4x)"><path data-index="48" fill-rule="evenodd" d="M758.9,571L758.9,60" style="opacity: 0.5; stroke: rgb(255, 0, 0); stroke-opacity: 1; fill: rgb(0, 0, 0); fill-opacity: 0; stroke-width: 2px;"/></g><g class="shape-group" data-index="49" clip-path="url(#clipfc79b4x)"><path data-index="49" fill-rule="evenodd" d="M771.22,571L771.22,60" style="opacity: 0.5; stroke: rgb(255, 0, 0); stroke-opacity: 1; fill: rgb(0, 0, 0); fill-opacity: 0; stroke-width: 2px;"/></g><g class="shape-group" data-index="50" clip-path="url(#clipfc79b4x)"><path data-index="50" fill-rule="evenodd" d="M777.76,571L777.76,60" style="opacity: 0.5; stroke: rgb(0, 128, 0); stroke-opacity: 1; fill: rgb(0, 0, 0); fill-opacity: 0; stroke-width: 2px;"/></g><g class="shape-group" data-index="51" clip-path="url(#clipfc79b4x)"><path data-index="51" fill-rule="evenodd" d="M785.15,571L785.15,60" style="opacity: 0.5; stroke: rgb(255, 0, 0); stroke-opacity: 1; fill: rgb(0, 0, 0); fill-opacity: 0; stroke-width: 2px;"/></g><g class="shape-group" data-index="52" clip-path="url(#clipfc79b4x)"><path data-index="52" fill-rule="evenodd" d="M792.67,571L792.67,60" style="opacity: 0.5; stroke: rgb(0, 128, 0); stroke-opacity: 1; fill: rgb(0, 0, 0); fill-opacity: 0; stroke-width: 2px;"/></g><g class="shape-group" data-index="53" clip-path="url(#clipfc79b4x)"><path data-index="53" fill-rule="evenodd" d="M798.95,571L798.95,60" style="opacity: 0.5; stroke: rgb(255, 0, 0); stroke-opacity: 1; fill: rgb(0, 0, 0); fill-opacity: 0; stroke-width: 2px;"/></g><g class="shape-group" data-index="54" clip-path="url(#clipfc79b4x)"><path data-index="54" fill-rule="evenodd" d="M834.45,571L834.45,60" style="opacity: 0.5; stroke: rgb(255, 0, 0); stroke-opacity: 1; fill: rgb(0, 0, 0); fill-opacity: 0; stroke-width: 2px;"/></g><g class="shape-group" data-index="55" clip-path="url(#clipfc79b4x)"><path data-index="55" fill-rule="evenodd" d="M850.71,571L850.71,60" style="opacity: 0.5; stroke: rgb(255, 0, 0); stroke-opacity: 1; fill: rgb(0, 0, 0); fill-opacity: 0; stroke-width: 2px;"/></g><g class="shape-group" data-index="56" clip-path="url(#clipfc79b4x)"><path data-index="56" fill-rule="evenodd" d="M854.9,571L854.9,60" style="opacity: 0.5; stroke: rgb(0, 128, 0); stroke-opacity: 1; fill: rgb(0, 0, 0); fill-opacity: 0; stroke-width: 2px;"/></g><g class="shape-group" data-index="57" clip-path="url(#clipfc79b4x)"><path data-index="57" fill-rule="evenodd" d="M866.12,571L866.12,60" style="opacity: 0.5; stroke: rgb(255, 0, 0); stroke-opacity: 1; fill: rgb(0, 0, 0); fill-opacity: 0; stroke-width: 2px;"/></g><g class="shape-group" data-index="58" clip-path="url(#clipfc79b4x)"><path data-index="58" fill-rule="evenodd" d="M867.23,571L867.23,60" style="opacity: 0.5; stroke: rgb(0, 128, 0); stroke-opacity: 1; fill: rgb(0, 0, 0); fill-opacity: 0; stroke-width: 2px;"/></g><g class="shape-group" data-index="59" clip-path="url(#clipfc79b4x)"><path data-index="59" fill-rule="evenodd" d="M884.36,571L884.36,60" style="opacity: 0.5; stroke: rgb(0, 128, 0); stroke-opacity: 1; fill: rgb(0, 0, 0); fill-opacity: 0; stroke-width: 2px;"/></g><g class="shape-group" data-index="60" clip-path="url(#clipfc79b4x)"><path data-index="60" fill-rule="evenodd" d="M887.81,571L887.81,60" style="opacity: 0.5; stroke: rgb(255, 0, 0); stroke-opacity: 1; fill: rgb(0, 0, 0); fill-opacity: 0; stroke-width: 2px;"/></g><g class="shape-group" data-index="61" clip-path="url(#clipfc79b4x)"><path data-index="61" fill-rule="evenodd" d="M906.17,571L906.17,60" style="opacity: 0.5; stroke: rgb(255, 0, 0); stroke-opacity: 1; fill: rgb(0, 0, 0); fill-opacity: 0; stroke-width: 2px;"/></g><g class="shape-group" data-index="62" clip-path="url(#clipfc79b4x)"><path data-index="62" fill-rule="evenodd" d="M919.11,571L919.11,60" style="opacity: 0.5; stroke: rgb(0, 128, 0); stroke-opacity: 1; fill: rgb(0, 0, 0); fill-opacity: 0; stroke-width: 2px;"/></g><g class="shape-group" data-index="63" clip-path="url(#clipfc79b4x)"><path data-index="63" fill-rule="evenodd" d="M919.35,571L919.35,60" style="opacity: 0.5; stroke: rgb(255, 0, 0); stroke-opacity: 1; fill: rgb(0, 0, 0); fill-opacity: 0; stroke-width: 2px;"/></g><g class="shape-group" data-index="64" clip-path="url(#clipfc79b4x)"><path data-index="64" fill-rule="evenodd" d="M945.73,571L945.73,60" style="opacity: 0.5; stroke: rgb(255, 0, 0); stroke-opacity: 1; fill: rgb(0, 0, 0); fill-opacity: 0; stroke-width: 2px;"/></g><g class="shape-group" data-index="65" clip-path="url(#clipfc79b4x)"><path data-index="65" fill-rule="evenodd" d="M962.24,571L962.24,60" style="opacity: 0.5; stroke: rgb(0, 128, 0); stroke-opacity: 1; fill: rgb(0, 0, 0); fill-opacity: 0; stroke-width: 2px;"/></g><g class="shape-group" data-index="66" clip-path="url(#clipfc79b4x)"><path data-index="66" fill-rule="evenodd" d="M977.4,571L977.4,60" style="opacity: 0.5; stroke: rgb(0, 128, 0); stroke-opacity: 1; fill: rgb(0, 0, 0); fill-opacity: 0; stroke-width: 2px;"/></g><g class="shape-group" data-index="67" clip-path="url(#clipfc79b4x)"><path data-index="67" fill-rule="evenodd" d="M979.99,571L979.99,60" style="opacity: 0.5; stroke: rgb(255, 0, 0); stroke-opacity: 1; fill: rgb(0, 0, 0); fill-opacity: 0; stroke-width: 2px;"/></g><g class="shape-group" data-index="68" clip-path="url(#clipfc79b4x)"><path data-index="68" fill-rule="evenodd" d="M990.09,571L990.09,60" style="opacity: 0.5; stroke: rgb(0, 128, 0); stroke-opacity: 1; fill: rgb(0, 0, 0); fill-opacity: 0; stroke-width: 2px;"/></g><g class="shape-group" data-index="69" clip-path="url(#clipfc79b4x)"><path data-index="69" fill-rule="evenodd" d="M1002.66,571L1002.66,60" style="opacity: 0.5; stroke: rgb(255, 0, 0); stroke-opacity: 1; fill: rgb(0, 0, 0); fill-opacity: 0; stroke-width: 2px;"/></g><g class="shape-group" data-index="70" clip-path="url(#clipfc79b4x)"><path data-index="70" fill-rule="evenodd" d="M1019.92,571L1019.92,60" style="opacity: 0.5; stroke: rgb(0, 128, 0); stroke-opacity: 1; fill: rgb(0, 0, 0); fill-opacity: 0; stroke-width: 2px;"/></g><g class="shape-group" data-index="71" clip-path="url(#clipfc79b4x)"><path data-index="71" fill-rule="evenodd" d="M1020.16,571L1020.16,60" style="opacity: 0.5; stroke: rgb(255, 0, 0); stroke-opacity: 1; fill: rgb(0, 0, 0); fill-opacity: 0; stroke-width: 2px;"/></g><g class="shape-group" data-index="72" clip-path="url(#clipfc79b4x)"><path data-index="72" fill-rule="evenodd" d="M1039.63,571L1039.63,60" style="opacity: 0.5; stroke: rgb(255, 0, 0); stroke-opacity: 1; fill: rgb(0, 0, 0); fill-opacity: 0; stroke-width: 2px;"/></g><g class="shape-group" data-index="73" clip-path="url(#clipfc79b4x)"><path data-index="73" fill-rule="evenodd" d="M1042.5900000000001,571L1042.5900000000001,60" style="opacity: 0.5; stroke: rgb(0, 128, 0); stroke-opacity: 1; fill: rgb(0, 0, 0); fill-opacity: 0; stroke-width: 2px;"/></g><g class="shape-group" data-index="74" clip-path="url(#clipfc79b4x)"><path data-index="74" fill-rule="evenodd" d="M1076.73,571L1076.73,60" style="opacity: 0.5; stroke: rgb(255, 0, 0); stroke-opacity: 1; fill: rgb(0, 0, 0); fill-opacity: 0; stroke-width: 2px;"/></g><g class="shape-group" data-index="75" clip-path="url(#clipfc79b4x)"><path data-index="75" fill-rule="evenodd" d="M1077.71,571L1077.71,60" style="opacity: 0.5; stroke: rgb(0, 128, 0); stroke-opacity: 1; fill: rgb(0, 0, 0); fill-opacity: 0; stroke-width: 2px;"/></g><g class="shape-group" data-index="76" clip-path="url(#clipfc79b4x)"><path data-index="76" fill-rule="evenodd" d="M1089.17,571L1089.17,60" style="opacity: 0.5; stroke: rgb(255, 0, 0); stroke-opacity: 1; fill: rgb(0, 0, 0); fill-opacity: 0; stroke-width: 2px;"/></g><g class="shape-group" data-index="77" clip-path="url(#clipfc79b4x)"><path data-index="77" fill-rule="evenodd" d="M1109.51,571L1109.51,60" style="opacity: 0.5; stroke: rgb(255, 0, 0); stroke-opacity: 1; fill: rgb(0, 0, 0); fill-opacity: 0; stroke-width: 2px;"/></g><g class="shape-group" data-index="78" clip-path="url(#clipfc79b4x)"><path data-index="78" fill-rule="evenodd" d="M1126.89,571L1126.89,60" style="opacity: 0.5; stroke: rgb(255, 0, 0); stroke-opacity: 1; fill: rgb(0, 0, 0); fill-opacity: 0; stroke-width: 2px;"/></g><g class="shape-group" data-index="79" clip-path="url(#clipfc79b4x)"><path data-index="79" fill-rule="evenodd" d="M1153.63,571L1153.63,60" style="opacity: 0.5; stroke: rgb(255, 0, 0); stroke-opacity: 1; fill: rgb(0, 0, 0); fill-opacity: 0; stroke-width: 2px;"/></g></g></g><g class="infolayer"><g class="g-gtitle"><text class="gtitle" x="60" y="30" text-anchor="start" dy="0em" style="font-family: 'Open Sans', verdana, arial, sans-serif; font-size: 17px; fill: rgb(42, 63, 95); opacity: 1; font-weight: normal; white-space: pre;">Concept drift detected in the temperature</text></g><g class="g-xtitle"/><g class="g-ytitle"/></g></svg>