<svg class="main-svg" xmlns="http://www.w3.org/2000/svg" xmlns:xlink="http://www.w3.org/1999/xlink" width="1600" height="600" style="" viewBox="0 0 1600 600"><rect x="0" y="0" width="1600" height="600" style="fill: rgb(255, 255, 255); fill-opacity: 1;"/><defs id="defs-3f8fc6"><g class="clips"><clipPath id="clip3f8fc6xyplot" class="plotclip"><rect width="635.4" height="210.8"/></clipPath><clipPath id="clip3f8fc6x2y2plot" class="plotclip"><rect width="635.4" height="210.8"/></clipPath><clipPath id="clip3f8fc6x3y3plot" class="plotclip"><rect width="635.4" height="210.79999999999998"/></clipPath><clipPath id="clip3f8fc6x4y4plot" class="plotclip"><rect width="635.4" height="210.79999999999998"/></clipPath><clipPath class="axesclip" id="clip3f8fc6x"><rect x="28" y="0" width="635.4" height="600"/></clipPath><clipPath class="axesclip" id="clip3f8fc6y"><rect x="0" y="60" width="1600" height="210.8"/></clipPath><clipPath class="axesclip" id="clip3f8fc6xy"><rect x="28" y="60" width="635.4" height="210.8"/></clipPath><clipPath class="axesclip" id="clip3f8fc6y2"><rect x="0" y="60" width="1600" height="210.8"/></clipPath><clipPath class="axesclip" id="clip3f8fc6xy2"><rect x="28" y="60" width="635.4" height="210.8"/></clipPath><clipPath class="axesclip" id="clip3f8fc6y3"><rect x="0" y="345.2" width="1600" height="210.79999999999998"/></clipPath><clipPath class="axesclip" id="clip3f8fc6xy3"><rect x="28" y="345.2" width="635.4" height="210.79999999999998"/></clipPath><clipPath class="axesclip" id="clip3f8fc6y4"><rect x="0" y="345.2" width="1600" height="210.79999999999998"/></clipPath><clipPath class="axesclip" id="clip3f8fc6xy4"><rect x="28" y="345.2" width="635.4" height="210.79999999999998"/></clipPath><clipPath class="axesclip" id="clip3f8fc6x2"><rect x="804.6" y="0" width="635.4" height="600"/></clipPath><clipPath class="axesclip" id="clip3f8fc6x2y"><rect x="804.6" y="60" width="635.4" height="210.8"/></clipPath><clipPath class="axesclip" id="clip3f8fc6x2y2"><rect x="804.6" y="60" width="635.4" height="210.8"/></clipPath><clipPath class="axesclip" id="clip3f8fc6x2y3"><rect x="804.6" y="345.2" width="635.4" height="210.79999999999998"/></clipPath><clipPath class="axesclip" id="clip3f8fc6x2y4"><rect x="804.6" y="345.2" width="635.4" height="210.79999999999998"/></clipPath><clipPath class="axesclip" id="clip3f8fc6x3"><rect x="28" y="0" width="635.4" height="600"/></clipPath><clipPath class="axesclip" id="clip3f8fc6x3y"><rect x="28" y="60" width="635.4" height="210.8"/></clipPath><clipPath class="axesclip" id="clip3f8fc6x3y2"><rect x="28" y="60" width="635.4" height="210.8"/></clipPath><clipPath class="axesclip" id="clip3f8fc6x3y3"><rect x="28" y="345.2" width="635.4" height="210.79999999999998"/></clipPath><clipPath class="axesclip" id="clip3f8fc6x3y4"><rect x="28" y="345.2" width="635.4" height="210.79999999999998"/></clipPath><clipPath class="axesclip" id="clip3f8fc6x4"><rect x="804.6" y="0" width="635.4" height="600"/></clipPath><clipPath class="axesclip" id="clip3f8fc6x4y"><rect x="804.6" y="60" width="635.4" height="210.8"/></clipPath><clipPath class="axesclip" id="clip3f8fc6x4y2"><rect x="804.6" y="60" width="635.4" height="210.8"/></clipPath><clipPath class="axesclip" id="clip3f8fc6x4y3"><rect x="804.6" y="345.2" width="635.4" height="210.79999999999998"/></clipPath><clipPath class="axesclip" id="clip3f8fc6x4y4"><rect x="804.6" y="345.2" width="635.4" height="210.79999999999998"/></clipPath></g><g class="gradients"/><g class="patterns"/></defs><g class="bglayer"><rect class="bg" x="28" y="60" width="635.4" height="210.8" style="fill: rgb(234, 234, 242); fill-opacity: 1; stroke-width: 0;"/><rect class="bg" x="804.6" y="60" width="635.4" height="210.8" style="fill: rgb(234, 234, 242); fill-opacity: 1; stroke-width: 0;"/><rect class="bg" x="28" y="345.2" width="635.4" height="210.79999999999998" style="fill: rgb(234, 234, 242); fill-opacity: 1; stroke-width: 0;"/><rect class="bg" x="804.6" y="345.2" width="635.4" height="210.79999999999998" style="fill: rgb(234, 234, 242); fill-opacity: 1; stroke-width: 0;"/></g><g class="layer-below"><g class="imagelayer"/><g class="shapelayer"/></g><g class="cartesianlayer"><g class="subplot xy"><g class="layer-subplot"><g class="shapelayer"/><g class="imagelayer"/></g><g class="minor-gridlayer"><g class="x"/><g class="y"/></g><g class="gridlayer"><g class="x"><path class="xgrid crisp" transform="translate(35.58,0)" d="M0,60v210.8" style="stroke: rgb(255, 255, 255); stroke-opacity: 1; stroke-width: 1px;"/><path class="xgrid crisp" transform="translate(126.53,0)" d="M0,60v210.8" style="stroke: rgb(255, 255, 255); stroke-opacity: 1; stroke-width: 1px;"/><path class="xgrid crisp" transform="translate(217.48,0)" d="M0,60v210.8" style="stroke: rgb(255, 255, 255); stroke-opacity: 1; stroke-width: 1px;"/><path class="xgrid crisp" transform="translate(308.43,0)" d="M0,60v210.8" style="stroke: rgb(255, 255, 255); stroke-opacity: 1; stroke-width: 1px;"/><path class="xgrid crisp" transform="translate(399.39,0)" d="M0,60v210.8" style="stroke: rgb(255, 255, 255); stroke-opacity: 1; stroke-width: 1px;"/><path class="xgrid crisp" transform="translate(490.34,0)" d="M0,60v210.8" style="stroke: rgb(255, 255, 255); stroke-opacity: 1; stroke-width: 1px;"/><path class="xgrid crisp" transform="translate(581.29,0)" d="M0,60v210.8" style="stroke: rgb(255, 255, 255); stroke-opacity: 1; stroke-width: 1px;"/></g><g class="y"><path class="ygrid crisp" transform="translate(0,269.26)" d="M28,0h635.4" style="stroke: rgb(255, 255, 255); stroke-opacity: 1; stroke-width: 1px;"/><path class="ygrid crisp" transform="translate(0,228.37)" d="M28,0h635.4" style="stroke: rgb(255, 255, 255); stroke-opacity: 1; stroke-width: 1px;"/><path class="ygrid crisp" transform="translate(0,187.48000000000002)" d="M28,0h635.4" style="stroke: rgb(255, 255, 255); stroke-opacity: 1; stroke-width: 1px;"/><path class="ygrid crisp" transform="translate(0,146.59)" d="M28,0h635.4" style="stroke: rgb(255, 255, 255); stroke-opacity: 1; stroke-width: 1px;"/><path class="ygrid crisp" transform="translate(0,105.7)" d="M28,0h635.4" style="stroke: rgb(255, 255, 255); stroke-opacity: 1; stroke-width: 1px;"/><path class="ygrid crisp" transform="translate(0,64.82)" d="M28,0h635.4" style="stroke: rgb(255, 255, 255); stroke-opacity: 1; stroke-width: 1px;"/></g></g><g class="zerolinelayer"/><path class="xlines-below"/><path class="ylines-below"/><g class="overlines-below"/><g class="xaxislayer-below"/><g class="yaxislayer-below"/><g class="overaxes-below"/><g class="plot" transform="translate(28,60)" clip-path="url(#clip3f8fc6xyplot)"><g class="scatterlayer mlayer"><g class="trace scatter tracee81ac2" style="stroke-miterlimit: 2; opacity: 1;"><g class="fills"/><g class="errorbars"/><g class="lines"><path class="js-line" d="M0,138.93L1.26,141.38L2.53,152.83L3.79,160.19L5.05,158.55L6.32,158.55L7.58,157.74L8.84,162.64L10.11,162.64L12.63,167.55L13.9,160.19L16.42,166.73L17.69,161.83L18.95,164.28L20.21,161.83L21.47,164.28L22.74,172.46L24,182.27L25.26,184.72L26.53,182.27L27.79,170.82L29.05,170L30.32,165.91L31.58,170.82L32.84,171.64L34.11,175.73L35.37,183.09L36.63,183.09L37.9,182.27L40.42,192.08L41.69,192.9L42.95,200.26L44.21,198.62L45.48,194.54L46.74,197.81L48,190.45L49.27,174.91L50.53,142.2L51.79,133.2L54.32,118.48L55.58,116.85L56.84,120.94L58.11,120.12L59.37,111.94L60.63,126.66L61.9,132.39L63.16,144.65L65.69,160.19L66.95,170.82L68.21,172.46L69.48,175.73L70.74,178.18L72,186.36L73.27,192.9L74.53,182.27L77.06,198.62L78.32,196.99L83.37,99.68L84.64,91.5L85.9,102.95L87.16,99.68L90.95,118.48L92.22,120.94L93.48,121.76L94.74,125.03L96,130.75L97.27,129.93L98.53,136.47L99.79,130.75L102.32,155.28L103.58,151.19L104.85,156.1L106.11,155.28L107.37,165.1L108.64,155.28L109.9,148.74L111.16,131.57L114.95,76.78L116.22,75.14L118.74,68.6L120.01,75.96L122.53,99.68L123.8,106.22L126.32,116.85L127.59,129.93L128.85,129.11L130.11,135.66L133.9,149.56L135.16,152.83L136.43,156.92L137.69,157.74L138.95,148.74L140.22,129.11L144.01,70.24L145.27,59.61L147.8,50.61L149.06,50.61L150.32,55.52L151.59,66.15L155.38,113.58L156.64,121.76L157.9,125.03L159.17,134.84L160.43,129.11L161.69,129.11L164.22,149.56L165.48,145.47L166.75,158.55L168.01,160.19L169.27,154.47L170.53,138.93L174.32,50.61L175.59,43.25L176.85,39.16L178.11,29.35L179.38,19.54L180.64,21.17L183.17,75.96L184.43,83.32L189.48,123.39L190.75,123.39L193.27,143.02L194.54,146.29L195.8,153.65L197.06,152.83L198.33,169.19L199.59,159.37L205.9,40.8L207.17,38.34L208.43,30.98L209.69,10.54L210.96,17.08L212.22,38.34L216.01,93.95L217.27,109.49L221.06,133.2L222.33,129.11L223.59,136.47L224.85,155.28L226.12,152.01L227.38,161.01L228.64,163.46L229.91,156.1L234.96,55.52L236.22,52.25L237.49,44.07L238.75,29.35L240.01,28.53L241.28,39.16L246.33,119.3L247.59,131.57L250.12,152.01L251.38,152.83L252.64,147.92L253.91,147.92L255.17,149.56L256.43,147.92L257.7,149.56L258.96,148.74L264.01,131.57L265.28,123.39L266.54,118.48L267.8,116.85L269.07,116.03L270.33,118.48L272.86,120.94L274.12,123.39L276.65,125.84L277.91,129.93L280.43,137.29L281.7,136.47L282.96,136.47L284.22,137.29L285.49,137.29L286.75,138.93L288.01,138.93L289.28,139.75L290.54,137.29L291.8,130.75L294.33,124.21L295.59,116.85L296.86,110.31L298.12,94.77L299.38,90.68L300.65,90.68L303.17,98.86L304.44,107.85L305.7,110.31L306.96,116.03L310.75,121.76L312.02,126.66L313.28,122.57L314.54,125.84L315.81,124.21L317.07,128.3L319.59,134.02L320.86,131.57L323.38,116.85L324.65,95.59L325.91,91.5L327.17,80.05L328.44,75.14L329.7,76.78L334.75,104.58L336.02,103.76L341.07,118.48L342.33,120.94L344.86,111.94L346.12,118.48L347.39,115.21L348.65,116.03L349.91,121.76L351.18,120.94L352.44,107.85L353.7,103.76L354.97,98.86L356.23,78.41L357.49,75.96L358.75,75.96L361.28,75.96L362.54,84.96L365.07,122.57L366.33,125.03L368.86,136.47L370.12,131.57L371.39,137.29L372.65,135.66L373.91,143.83L375.18,160.19L377.7,178.18L378.97,171.64L381.49,168.37L382.76,158.55L385.28,145.47L386.55,143.02L387.81,137.29L389.07,119.3L391.6,152.01L392.86,138.93L394.12,138.11L395.39,154.47L396.65,156.1L397.91,147.11L399.18,152.01L400.44,160.19L401.7,159.37L402.97,161.83L404.23,157.74L405.49,163.46L406.76,166.73L408.02,161.01L409.28,161.83L410.55,165.1L411.81,160.19L413.07,158.55L414.34,151.19L415.6,126.66L416.86,122.57L418.13,111.94L419.39,114.4L420.65,157.74L421.92,171.64L423.18,154.47L424.44,162.64L425.71,162.64L426.97,161.83L428.23,165.91L429.5,167.55L430.76,165.1L432.02,165.91L433.28,160.19L434.55,175.73L435.81,172.46L437.07,174.09L438.34,169.19L439.6,187.99L440.86,183.9L442.13,179L443.39,179.82L445.92,160.19L447.18,138.93L448.44,134.02L449.71,134.02L452.23,105.4L453.5,110.31L456.02,140.56L457.29,147.11L458.55,150.38L459.81,163.46L462.34,171.64L463.6,170.82L464.87,173.27L466.13,183.09L468.65,187.18L469.92,184.72L471.18,180.63L472.44,170L473.71,158.55L474.97,129.11L477.5,93.13L478.76,93.95L481.29,134.02L482.55,140.56L483.81,134.02L485.08,151.19L486.34,165.1L487.6,168.37L490.13,170.82L491.39,169.19L493.92,179.82L495.18,183.9L496.45,185.54L497.71,189.63L498.97,183.09L500.24,198.62L501.5,191.26L502.76,191.26L506.55,104.58L507.81,106.22L509.08,93.95L510.34,105.4L511.6,104.58L512.87,97.22L516.66,129.93L517.92,138.93L521.71,161.01L522.97,161.01L524.24,165.91L525.5,174.09L526.76,183.09L528.03,182.27L529.29,171.64L530.55,187.18L531.82,189.63L533.08,170.82L538.13,75.96L539.4,76.78L540.66,98.04L541.92,102.95L543.18,101.31L544.45,111.12L548.24,140.56L549.5,149.56L552.03,156.1L553.29,163.46L554.55,162.64L555.82,165.1L557.08,167.55L558.34,157.74L559.61,167.55L560.87,169.19L562.13,183.9L563.4,161.01L564.66,153.65L565.92,136.47L568.45,115.21L569.71,107.04L572.24,101.31L573.5,102.95L576.03,118.48L577.29,131.57L578.56,142.2L579.82,143.02L581.08,139.75L582.34,148.74L583.61,143.02L584.87,155.28L586.13,164.28L587.4,154.47L589.92,144.65L591.19,157.74L592.45,152.83L593.71,141.38L596.24,103.76L597.5,100.49L600.03,66.97L601.29,79.23L603.82,102.13L605.08,108.67L606.35,120.94L607.61,120.12L608.87,120.12L610.14,127.48L611.4,126.66L612.66,128.3L615.19,129.11L616.45,129.11L617.71,134.02L618.98,131.57L620.24,130.75L621.5,132.39L624.03,142.2L625.29,165.1L627.82,150.38L629.08,149.56L630.35,157.74L631.61,138.93L634.14,121.76L635.4,125.84" style="vector-effect: none; fill: none; stroke: rgb(76, 114, 176); stroke-opacity: 1; stroke-width: 2px; opacity: 1;"/></g><g class="points"/><g class="text"/></g></g></g><g class="overplot"/><path class="xlines-above crisp" d="M0,0" style="fill: none;"/><path class="ylines-above crisp" d="M0,0" style="fill: none;"/><g class="overlines-above"/><g class="xaxislayer-above"><g class="xtick"><text text-anchor="middle" x="0" y="283.8" transform="translate(35.58,0)" style="font-family: 'Open Sans', verdana, arial, sans-serif; font-size: 12px; fill: rgb(36, 36, 36); fill-opacity: 1; white-space: pre; opacity: 1;"><tspan class="line" dy="0em" x="0" y="283.8">Mar 11</tspan><tspan class="line" dy="1.3em" x="0" y="283.8">2004</tspan></text></g><g class="xtick"><text text-anchor="middle" x="0" y="283.8" style="font-family: 'Open Sans', verdana, arial, sans-serif; font-size: 12px; fill: rgb(36, 36, 36); fill-opacity: 1; white-space: pre; opacity: 1;" transform="translate(126.53,0)">Mar 14</text></g><g class="xtick"><text text-anchor="middle" x="0" y="283.8" style="font-family: 'Open Sans', verdana, arial, sans-serif; font-size: 12px; fill: rgb(36, 36, 36); fill-opacity: 1; white-space: pre; opacity: 1;" transform="translate(217.48,0)">Mar 17</text></g><g class="xtick"><text text-anchor="middle" x="0" y="283.8" style="font-family: 'Open Sans', verdana, arial, sans-serif; font-size: 12px; fill: rgb(36, 36, 36); fill-opacity: 1; white-space: pre; opacity: 1;" transform="translate(308.43,0)">Mar 20</text></g><g class="xtick"><text text-anchor="middle" x="0" y="283.8" style="font-family: 'Open Sans', verdana, arial, sans-serif; font-size: 12px; fill: rgb(36, 36, 36); fill-opacity: 1; white-space: pre; opacity: 1;" transform="translate(399.39,0)">Mar 23</text></g><g class="xtick"><text text-anchor="middle" x="0" y="283.8" style="font-family: 'Open Sans', verdana, arial, sans-serif; font-size: 12px; fill: rgb(36, 36, 36); fill-opacity: 1; white-space: pre; opacity: 1;" transform="translate(490.34,0)">Mar 26</text></g><g class="xtick"><text text-anchor="middle" x="0" y="283.8" style="font-family: 'Open Sans', verdana, arial, sans-serif; font-size: 12px; fill: rgb(36, 36, 36); fill-opacity: 1; white-space: pre; opacity: 1;" transform="translate(581.29,0)">Mar 29</text></g></g><g class="yaxislayer-above"><g class="ytick"><text text-anchor="end" x="27" y="4.199999999999999" transform="translate(0,269.26)" style="font-family: 'Open Sans', verdana, arial, sans-serif; font-size: 12px; fill: rgb(36, 36, 36); fill-opacity: 1; white-space: pre; opacity: 1;">5</text></g><g class="ytick"><text text-anchor="end" x="27" y="4.199999999999999" style="font-family: 'Open Sans', verdana, arial, sans-serif; font-size: 12px; fill: rgb(36, 36, 36); fill-opacity: 1; white-space: pre; opacity: 1;" transform="translate(0,228.37)">10</text></g><g class="ytick"><text text-anchor="end" x="27" y="4.199999999999999" style="font-family: 'Open Sans', verdana, arial, sans-serif; font-size: 12px; fill: rgb(36, 36, 36); fill-opacity: 1; white-space: pre; opacity: 1;" transform="translate(0,187.48000000000002)">15</text></g><g class="ytick"><text text-anchor="end" x="27" y="4.199999999999999" style="font-family: 'Open Sans', verdana, arial, sans-serif; font-size: 12px; fill: rgb(36, 36, 36); fill-opacity: 1; white-space: pre; opacity: 1;" transform="translate(0,146.59)">20</text></g><g class="ytick"><text text-anchor="end" x="27" y="4.199999999999999" style="font-family: 'Open Sans', verdana, arial, sans-serif; font-size: 12px; fill: rgb(36, 36, 36); fill-opacity: 1; white-space: pre; opacity: 1;" transform="translate(0,105.7)">25</text></g><g class="ytick"><text text-anchor="end" x="27" y="4.199999999999999" style="font-family: 'Open Sans', verdana, arial, sans-serif; font-size: 12px; fill: rgb(36, 36, 36); fill-opacity: 1; white-space: pre; opacity: 1;" transform="translate(0,64.82)">30</text></g></g><g class="overaxes-above"/></g><g class="subplot x2y2"><g class="layer-subplot"><g class="shapelayer"/><g class="imagelayer"/></g><g class="minor-gridlayer"><g class="x2"/><g class="y2"/></g><g class="gridlayer"><g class="x2"><path class="x2grid crisp" transform="translate(812.1800000000001,0)" d="M0,60v210.8" style="stroke: rgb(255, 255, 255); stroke-opacity: 1; stroke-width: 1px;"/><path class="x2grid crisp" transform="translate(903.13,0)" d="M0,60v210.8" style="stroke: rgb(255, 255, 255); stroke-opacity: 1; stroke-width: 1px;"/><path class="x2grid crisp" transform="translate(994.08,0)" d="M0,60v210.8" style="stroke: rgb(255, 255, 255); stroke-opacity: 1; stroke-width: 1px;"/><path class="x2grid crisp" transform="translate(1085.03,0)" d="M0,60v210.8" style="stroke: rgb(255, 255, 255); stroke-opacity: 1; stroke-width: 1px;"/><path class="x2grid crisp" transform="translate(1175.99,0)" d="M0,60v210.8" style="stroke: rgb(255, 255, 255); stroke-opacity: 1; stroke-width: 1px;"/><path class="x2grid crisp" transform="translate(1266.94,0)" d="M0,60v210.8" style="stroke: rgb(255, 255, 255); stroke-opacity: 1; stroke-width: 1px;"/><path class="x2grid crisp" transform="translate(1357.8899999999999,0)" d="M0,60v210.8" style="stroke: rgb(255, 255, 255); stroke-opacity: 1; stroke-width: 1px;"/></g><g class="y2"><path class="y2grid crisp" transform="translate(0,254.58)" d="M804.6,0h635.4" style="stroke: rgb(255, 255, 255); stroke-opacity: 1; stroke-width: 1px;"/><path class="y2grid crisp" transform="translate(0,212.11)" d="M804.6,0h635.4" style="stroke: rgb(255, 255, 255); stroke-opacity: 1; stroke-width: 1px;"/><path class="y2grid crisp" transform="translate(0,127.16)" d="M804.6,0h635.4" style="stroke: rgb(255, 255, 255); stroke-opacity: 1; stroke-width: 1px;"/><path class="y2grid crisp" transform="translate(0,84.68)" d="M804.6,0h635.4" style="stroke: rgb(255, 255, 255); stroke-opacity: 1; stroke-width: 1px;"/></g></g><g class="zerolinelayer"><path class="y2zl zl crisp" transform="translate(0,169.63)" d="M804.6,0h635.4" style="stroke: rgb(255, 255, 255); stroke-opacity: 1; stroke-width: 1px;"/></g><path class="xlines-below"/><path class="ylines-below"/><g class="overlines-below"/><g class="xaxislayer-below"/><g class="yaxislayer-below"/><g class="overaxes-below"/><g class="plot" transform="translate(804.6,60)" clip-path="url(#clip3f8fc6x2y2plot)"><g class="scatterlayer mlayer"><g class="trace scatter trace4c02e3" style="stroke-miterlimit: 2; opacity: 1;"><g class="fills"/><g class="errorbars"/><g class="lines"><path class="js-line" d="M0,55.92L2.53,99.43L3.79,115.41L7.58,150.83L8.84,155.1L12.63,182.6L13.9,180.94L16.42,200.26L17.69,182.04L24,10.54L25.26,13.06L26.53,17.48L27.79,17.03L29.05,24.43L30.32,55.92L32.84,99.43L34.11,115.41L37.9,150.83L39.16,155.1L42.95,182.6L44.21,180.94L46.74,200.26L48,182.04L54.32,10.54L55.58,13.06L56.84,17.48L58.11,17.03L59.37,24.43L60.63,55.92L63.16,99.43L64.42,115.41L68.21,150.83L69.48,155.1L73.27,182.6L74.53,180.94L77.06,200.26L78.32,182.04L84.64,10.54L85.9,13.06L87.16,17.48L88.43,17.03L89.69,24.43L90.95,55.92L93.48,99.43L94.74,115.41L98.53,150.83L99.79,155.1L103.58,182.6L104.85,180.94L107.37,200.26L108.64,182.04L114.95,10.54L116.22,13.06L117.48,17.48L118.74,17.03L120.01,24.43L121.27,55.92L123.8,99.43L125.06,115.41L128.85,150.83L130.11,155.1L133.9,182.6L135.16,180.94L137.69,200.26L138.95,182.04L145.27,10.54L146.53,13.06L147.8,17.48L149.06,17.03L150.32,24.43L151.59,55.92L154.11,99.43L155.38,115.41L159.17,150.83L160.43,155.1L164.22,182.6L165.48,180.94L168.01,200.26L169.27,182.04L175.59,10.54L176.85,13.06L178.11,17.48L179.38,17.03L180.64,24.43L181.9,55.92L184.43,99.43L185.69,115.41L189.48,150.83L190.75,155.1L194.54,182.6L195.8,180.94L198.33,200.26L199.59,182.04L205.9,10.54L207.17,13.06L208.43,17.48L209.69,17.03L210.96,24.43L212.22,55.92L214.75,99.43L216.01,115.41L219.8,150.83L221.06,155.1L224.85,182.6L226.12,180.94L228.64,200.26L229.91,182.04L236.22,10.54L237.49,13.06L238.75,17.48L240.01,17.03L241.28,24.43L242.54,55.92L245.06,99.43L246.33,115.41L250.12,150.83L251.38,155.1L255.17,182.6L256.43,180.94L258.96,200.26L260.22,182.04L266.54,10.54L267.8,13.06L269.07,17.48L270.33,17.03L271.59,24.43L272.86,55.92L275.38,99.43L276.65,115.41L280.43,150.83L281.7,155.1L285.49,182.6L286.75,180.94L289.28,200.26L290.54,182.04L296.86,10.54L298.12,13.06L299.38,17.48L300.65,17.03L301.91,24.43L303.17,55.92L305.7,99.43L306.96,115.41L310.75,150.83L312.02,155.1L315.81,182.6L317.07,180.94L319.59,200.26L320.86,182.04L327.17,10.54L328.44,13.06L329.7,17.48L330.96,17.03L332.23,24.43L333.49,55.92L336.02,99.43L337.28,115.41L341.07,150.83L342.33,155.1L346.12,182.6L347.39,180.94L349.91,200.26L351.18,182.04L357.49,10.54L358.75,13.06L360.02,17.48L361.28,17.03L362.54,24.43L363.81,55.92L366.33,99.43L367.6,115.41L371.39,150.83L372.65,155.1L376.44,182.6L377.7,180.94L380.23,200.26L381.49,182.04L387.81,10.54L389.07,13.06L390.34,17.48L391.6,17.03L392.86,24.43L394.12,55.92L396.65,99.43L397.91,115.41L401.7,150.83L402.97,155.1L406.76,182.6L408.02,180.94L410.55,200.26L411.81,182.04L418.13,10.54L419.39,13.06L420.65,17.48L421.92,17.03L423.18,24.43L424.44,55.92L426.97,99.43L428.23,115.41L432.02,150.83L433.28,155.1L437.07,182.6L438.34,180.94L440.86,200.26L442.13,182.04L448.44,10.54L449.71,13.06L450.97,17.48L452.23,17.03L453.5,24.43L454.76,55.92L457.29,99.43L458.55,115.41L462.34,150.83L463.6,155.1L467.39,182.6L468.65,180.94L471.18,200.26L472.44,182.04L478.76,10.54L480.02,13.06L481.29,17.48L482.55,17.03L483.81,24.43L485.08,55.92L487.6,99.43L488.87,115.41L492.66,150.83L493.92,155.1L497.71,182.6L498.97,180.94L501.5,200.26L502.76,182.04L509.08,10.54L510.34,13.06L511.6,17.48L512.87,17.03L514.13,24.43L515.39,55.92L517.92,99.43L519.18,115.41L522.97,150.83L524.24,155.1L528.03,182.6L529.29,180.94L531.82,200.26L533.08,182.04L539.4,10.54L540.66,13.06L541.92,17.48L543.18,17.03L544.45,24.43L545.71,55.92L548.24,99.43L549.5,115.41L553.29,150.83L554.55,155.1L558.34,182.6L559.61,180.94L562.13,200.26L563.4,182.04L569.71,10.54L570.98,13.06L572.24,17.48L573.5,17.03L574.77,24.43L576.03,55.92L578.56,99.43L579.82,115.41L583.61,150.83L584.87,155.1L588.66,182.6L589.92,180.94L592.45,200.26L593.71,182.04L600.03,10.54L601.29,13.06L602.56,17.48L603.82,17.03L605.08,24.43L606.35,55.92L608.87,99.43L610.14,115.41L613.93,150.83L615.19,155.1L618.98,182.6L620.24,180.94L622.77,200.26L624.03,182.04L630.35,10.54L631.61,13.06L632.87,17.48L634.14,17.03L635.4,24.43" style="vector-effect: none; fill: none; stroke: rgb(85, 168, 104); stroke-opacity: 1; stroke-width: 2px; opacity: 1;"/></g><g class="points"/><g class="text"/></g></g></g><g class="overplot"/><path class="xlines-above crisp" d="M0,0" style="fill: none;"/><path class="ylines-above crisp" d="M0,0" style="fill: none;"/><g class="overlines-above"/><g class="xaxislayer-above"><g class="x2tick"><text text-anchor="middle" x="0" y="283.8" transform="translate(812.1800000000001,0)" style="font-family: 'Open Sans', verdana, arial, sans-serif; font-size: 12px; fill: rgb(36, 36, 36); fill-opacity: 1; white-space: pre; opacity: 1;"><tspan class="line" dy="0em" x="0" y="283.8">Mar 11</tspan><tspan class="line" dy="1.3em" x="0" y="283.8">2004</tspan></text></g><g class="x2tick"><text text-anchor="middle" x="0" y="283.8" style="font-family: 'Open Sans', verdana, arial, sans-serif; font-size: 12px; fill: rgb(36, 36, 36); fill-opacity: 1; white-space: pre; opacity: 1;" transform="translate(903.13,0)">Mar 14</text></g><g class="x2tick"><text text-anchor="middle" x="0" y="283.8" style="font-family: 'Open Sans', verdana, arial, sans-serif; font-size: 12px; fill: rgb(36, 36, 36); fill-opacity: 1; white-space: pre; opacity: 1;" transform="translate(994.08,0)">Mar 17</text></g><g class="x2tick"><text text-anchor="middle" x="0" y="283.8" style="font-family: 'Open Sans', verdana, arial, sans-serif; font-size: 12px; fill: rgb(36, 36, 36); fill-opacity: 1; white-space: pre; opacity: 1;" transform="translate(1085.03,0)">Mar 20</text></g><g class="x2tick"><text text-anchor="middle" x="0" y="283.8" style="font-family: 'Open Sans', verdana, arial, sans-serif; font-size: 12px; fill: rgb(36, 36, 36); fill-opacity: 1; white-space: pre; opacity: 1;" transform="translate(1175.99,0)">Mar 23</text></g><g class="x2tick"><text text-anchor="middle" x="0" y="283.8" style="font-family: 'Open Sans', verdana, arial, sans-serif; font-size: 12px; fill: rgb(36, 36, 36); fill-opacity: 1; white-space: pre; opacity: 1;" transform="translate(1266.94,0)">Mar 26</text></g><g class="x2tick"><text text-anchor="middle" x="0" y="283.8" style="font-family: 'Open Sans', verdana, arial, sans-serif; font-size: 12px; fill: rgb(36, 36, 36); fill-opacity: 1; white-space: pre; opacity: 1;" transform="translate(1357.8899999999999,0)">Mar 29</text></g></g><g class="yaxislayer-above"><g class="y2tick"><text text-anchor="end" x="803.6" y="4.199999999999999" transform="translate(0,254.58)" style="font-family: 'Open Sans', verdana, arial, sans-serif; font-size: 12px; fill: rgb(36, 36, 36); fill-opacity: 1; white-space: pre; opacity: 1;">−4</text></g><g class="y2tick"><text text-anchor="end" x="803.6" y="4.199999999999999" style="font-family: 'Open Sans', verdana, arial, sans-serif; font-size: 12px; fill: rgb(36, 36, 36); fill-opacity: 1; white-space: pre; opacity: 1;" transform="translate(0,212.11)">−2</text></g><g class="y2tick"><text text-anchor="end" x="803.6" y="4.199999999999999" style="font-family: 'Open Sans', verdana, arial, sans-serif; font-size: 12px; fill: rgb(36, 36, 36); fill-opacity: 1; white-space: pre; opacity: 1;" transform="translate(0,169.63)">0</text></g><g class="y2tick"><text text-anchor="end" x="803.6" y="4.199999999999999" style="font-family: 'Open Sans', verdana, arial, sans-serif; font-size: 12px; fill: rgb(36, 36, 36); fill-opacity: 1; white-space: pre; opacity: 1;" transform="translate(0,127.16)">2</text></g><g class="y2tick"><text text-anchor="end" x="803.6" y="4.199999999999999" style="font-family: 'Open Sans', verdana, arial, sans-serif; font-size: 12px; fill: rgb(36, 36, 36); fill-opacity: 1; white-space: pre; opacity: 1;" transform="translate(0,84.68)">4</text></g></g><g class="overaxes-above"/></g><g class="subplot x3y3"><g class="layer-subplot"><g class="shapelayer"/><g class="imagelayer"/></g><g class="minor-gridlayer"><g class="x3"/><g class="y3"/></g><g class="gridlayer"><g class="x3"><path class="x3grid crisp" transform="translate(35.58,0)" d="M0,345.2v210.79999999999998" style="stroke: rgb(255, 255, 255); stroke-opacity: 1; stroke-width: 1px;"/><path class="x3grid crisp" transform="translate(126.53,0)" d="M0,345.2v210.79999999999998" style="stroke: rgb(255, 255, 255); stroke-opacity: 1; stroke-width: 1px;"/><path class="x3grid crisp" transform="translate(217.48,0)" d="M0,345.2v210.79999999999998" style="stroke: rgb(255, 255, 255); stroke-opacity: 1; stroke-width: 1px;"/><path class="x3grid crisp" transform="translate(308.43,0)" d="M0,345.2v210.79999999999998" style="stroke: rgb(255, 255, 255); stroke-opacity: 1; stroke-width: 1px;"/><path class="x3grid crisp" transform="translate(399.39,0)" d="M0,345.2v210.79999999999998" style="stroke: rgb(255, 255, 255); stroke-opacity: 1; stroke-width: 1px;"/><path class="x3grid crisp" transform="translate(490.34,0)" d="M0,345.2v210.79999999999998" style="stroke: rgb(255, 255, 255); stroke-opacity: 1; stroke-width: 1px;"/><path class="x3grid crisp" transform="translate(581.29,0)" d="M0,345.2v210.79999999999998" style="stroke: rgb(255, 255, 255); stroke-opacity: 1; stroke-width: 1px;"/></g><g class="y3"><path class="y3grid crisp" transform="translate(0,553.72)" d="M28,0h635.4" style="stroke: rgb(255, 255, 255); stroke-opacity: 1; stroke-width: 1px;"/><path class="y3grid crisp" transform="translate(0,517.18)" d="M28,0h635.4" style="stroke: rgb(255, 255, 255); stroke-opacity: 1; stroke-width: 1px;"/><path class="y3grid crisp" transform="translate(0,480.63)" d="M28,0h635.4" style="stroke: rgb(255, 255, 255); stroke-opacity: 1; stroke-width: 1px;"/><path class="y3grid crisp" transform="translate(0,444.09)" d="M28,0h635.4" style="stroke: rgb(255, 255, 255); stroke-opacity: 1; stroke-width: 1px;"/><path class="y3grid crisp" transform="translate(0,407.55)" d="M28,0h635.4" style="stroke: rgb(255, 255, 255); stroke-opacity: 1; stroke-width: 1px;"/><path class="y3grid crisp" transform="translate(0,371)" d="M28,0h635.4" style="stroke: rgb(255, 255, 255); stroke-opacity: 1; stroke-width: 1px;"/></g></g><g class="zerolinelayer"/><path class="xlines-below"/><path class="ylines-below"/><g class="overlines-below"/><g class="xaxislayer-below"/><g class="yaxislayer-below"/><g class="overaxes-below"/><g class="plot" transform="translate(28,345.2)" clip-path="url(#clip3f8fc6x3y3plot)"><g class="scatterlayer mlayer"><g class="trace scatter traceceef93" style="stroke-miterlimit: 2; opacity: 1;"><g class="fills"/><g class="errorbars"/><g class="lines"><path class="js-line" d="M15.16,163.18L18.95,169.66L20.21,171.52L27.79,186.29L29.05,189.6L32.84,198.43L34.11,200.26L35.37,199.84L36.63,197.48L39.16,188.88L40.42,182.75L45.48,161.93L46.74,158.31L50.53,150.66L51.79,149.02L60.63,142.21L61.9,142.1L65.69,142.74L66.95,142.55L73.27,133.04L74.53,132.46L77.06,131.25L78.32,129.65L82.11,121.5L83.37,117.92L89.69,101.25L90.95,98.36L96,86.75L97.27,85.45L99.79,83.59L101.06,81.61L104.85,72.4L106.11,69.28L108.64,65.2L109.9,63.95L112.43,62.12L113.69,61.78L117.48,60.82L118.74,60.37L123.8,59.15L125.06,57.93L137.69,38.67L138.95,37.64L142.74,37.6L144.01,37.64L145.27,37.6L146.53,36.77L149.06,35.47L150.32,35.13L152.85,35.05L154.11,35.44L156.64,36.46L157.9,35.7L162.96,29.31L164.22,26.87L166.75,21.69L168.01,20.82L170.53,18L171.8,16.29L175.59,13.05L176.85,13.05L180.64,13.78L181.9,13.89L190.75,14.8L192.01,14.65L194.54,14.35L195.8,13.74L199.59,10.62L200.85,10.54L204.64,11.83L205.9,12.56L207.17,12.75L208.43,12.18L214.75,12.63L216.01,12.41L219.8,12.67L221.06,13.39L224.85,15.15L226.12,17.01L237.49,34.98L238.75,36.39L241.28,36.2L242.54,35.47L246.33,32.69L247.59,34.45L250.12,43.89L251.38,50.13L255.17,72.24L256.43,80.16L258.96,91.35L260.22,94.55L261.49,96.07L262.75,96.3L265.28,94.7L266.54,93.26L271.59,88.88L272.86,87.97L279.17,84.08L280.43,83.44L282.96,81.34L284.22,79.13L289.28,70.23L290.54,68.86L304.44,56.98L305.7,56.45L308.23,55.15L309.49,53.33L314.54,44.34L315.81,43.39L328.44,39.09L329.7,38.18L334.75,33.76L336.02,32.69L339.81,29.53L341.07,29.08L343.6,28.13L344.86,28.13L348.65,27.29L349.91,28.7L358.75,41.91L360.02,45.41L371.39,88.73L372.65,94.59L378.97,120.32L380.23,123.06L382.76,128.16L384.02,129.61L389.07,138.14L390.34,138.94L391.6,139.05L392.86,138.21L395.39,136.27L396.65,135.66L400.44,134.33L401.7,132.5L404.23,128.96L405.49,129.8L410.55,136.8L411.81,137.45L416.86,141.68L418.13,141.91L423.18,145.41L424.44,147.01L434.55,163.15L435.81,162.27L439.6,148.6L440.86,145.98L444.65,141.94L445.92,141.94L452.23,144.91L453.5,146.24L454.76,146.93L456.02,146.63L457.29,146.05L458.55,144.65L461.08,137.57L462.34,133.23L464.87,126.56L466.13,126.45L473.71,139.93L474.97,141.18L480.02,143.01L481.29,143.62L485.08,144.46L486.34,145.6L488.87,148.11L490.13,147.88L491.39,147.23L492.66,147.46L493.92,148.07L495.18,147.54L496.45,145.64L497.71,142.25L504.03,128.16L505.29,126.34L511.6,121.31L512.87,120.85L519.18,115.79L520.45,114.76L522.97,111.8L524.24,109.59L526.76,108.03L528.03,108.14L536.87,109.02L538.13,108.9L540.66,108.29L541.92,107.15L544.45,103.95L545.71,102.93L548.24,101.1L549.5,100.91L552.03,104.75L553.29,107.95L555.82,112.86L557.08,113.05L563.4,112.52L564.66,112.29L574.77,104.45L576.03,102.85L579.82,95.88L581.08,92.65L587.4,79.44L588.66,79.06L592.45,78.49L593.71,76.93L601.29,65.96L602.56,63.38L607.61,56.3L608.87,55.61L610.14,57.89L611.4,62.58L613.93,72.89L615.19,80.35L617.71,91.73L618.98,94.25L620.24,95.96" style="vector-effect: none; fill: none; stroke: rgb(221, 132, 82); stroke-opacity: 1; stroke-width: 2px; opacity: 1;"/></g><g class="points"/><g class="text"/></g></g></g><g class="overplot"/><path class="xlines-above crisp" d="M0,0" style="fill: none;"/><path class="ylines-above crisp" d="M0,0" style="fill: none;"/><g class="overlines-above"/><g class="xaxislayer-above"><g class="x3tick"><text text-anchor="middle" x="0" y="569" transform="translate(35.58,0)" style="font-family: 'Open Sans', verdana, arial, sans-serif; font-size: 12px; fill: rgb(36, 36, 36); fill-opacity: 1; white-space: pre; opacity: 1;"><tspan class="line" dy="0em" x="0" y="569">Mar 11</tspan><tspan class="line" dy="1.3em" x="0" y="569">2004</tspan></text></g><g class="x3tick"><text text-anchor="middle" x="0" y="569" style="font-family: 'Open Sans', verdana, arial, sans-serif; font-size: 12px; fill: rgb(36, 36, 36); fill-opacity: 1; white-space: pre; opacity: 1;" transform="translate(126.53,0)">Mar 14</text></g><g class="x3tick"><text text-anchor="middle" x="0" y="569" style="font-family: 'Open Sans', verdana, arial, sans-serif; font-size: 12px; fill: rgb(36, 36, 36); fill-opacity: 1; white-space: pre; opacity: 1;" transform="translate(217.48,0)">Mar 17</text></g><g class="x3tick"><text text-anchor="middle" x="0" y="569" style="font-family: 'Open Sans', verdana, arial, sans-serif; font-size: 12px; fill: rgb(36, 36, 36); fill-opacity: 1; white-space: pre; opacity: 1;" transform="translate(308.43,0)">Mar 20</text></g><g class="x3tick"><text text-anchor="middle" x="0" y="569" style="font-family: 'Open Sans', verdana, arial, sans-serif; font-size: 12px; fill: rgb(36, 36, 36); fill-opacity: 1; white-space: pre; opacity: 1;" transform="translate(399.39,0)">Mar 23</text></g><g class="x3tick"><text text-anchor="middle" x="0" y="569" style="font-family: 'Open Sans', verdana, arial, sans-serif; font-size: 12px; fill: rgb(36, 36, 36); fill-opacity: 1; white-space: pre; opacity: 1;" transform="translate(490.34,0)">Mar 26</text></g><g class="x3tick"><text text-anchor="middle" x="0" y="569" style="font-family: 'Open Sans', verdana, arial, sans-serif; font-size: 12px; fill: rgb(36, 36, 36); fill-opacity: 1; white-space: pre; opacity: 1;" transform="translate(581.29,0)">Mar 29</text></g></g><g class="yaxislayer-above"><g class="y3tick"><text text-anchor="end" x="27" y="4.199999999999999" transform="translate(0,553.72)" style="font-family: 'Open Sans', verdana, arial, sans-serif; font-size: 12px; fill: rgb(36, 36, 36); fill-opacity: 1; white-space: pre; opacity: 1;">8</text></g><g class="y3tick"><text text-anchor="end" x="27" y="4.199999999999999" style="font-family: 'Open Sans', verdana, arial, sans-serif; font-size: 12px; fill: rgb(36, 36, 36); fill-opacity: 1; white-space: pre; opacity: 1;" transform="translate(0,517.18)">10</text></g><g class="y3tick"><text text-anchor="end" x="27" y="4.199999999999999" style="font-family: 'Open Sans', verdana, arial, sans-serif; font-size: 12px; fill: rgb(36, 36, 36); fill-opacity: 1; white-space: pre; opacity: 1;" transform="translate(0,480.63)">12</text></g><g class="y3tick"><text text-anchor="end" x="27" y="4.199999999999999" style="font-family: 'Open Sans', verdana, arial, sans-serif; font-size: 12px; fill: rgb(36, 36, 36); fill-opacity: 1; white-space: pre; opacity: 1;" transform="translate(0,444.09)">14</text></g><g class="y3tick"><text text-anchor="end" x="27" y="4.199999999999999" style="font-family: 'Open Sans', verdana, arial, sans-serif; font-size: 12px; fill: rgb(36, 36, 36); fill-opacity: 1; white-space: pre; opacity: 1;" transform="translate(0,407.55)">16</text></g><g class="y3tick"><text text-anchor="end" x="27" y="4.199999999999999" style="font-family: 'Open Sans', verdana, arial, sans-serif; font-size: 12px; fill: rgb(36, 36, 36); fill-opacity: 1; white-space: pre; opacity: 1;" transform="translate(0,371)">18</text></g></g><g class="overaxes-above"/></g><g class="subplot x4y4"><g class="layer-subplot"><g class="shapelayer"/><g class="imagelayer"/></g><g class="minor-gridlayer"><g class="x4"/><g class="y4"/></g><g class="gridlayer"><g class="x4"><path class="x4grid crisp" transform="translate(812.1800000000001,0)" d="M0,345.2v210.79999999999998" style="stroke: rgb(255, 255, 255); stroke-opacity: 1; stroke-width: 1px;"/><path class="x4grid crisp" transform="translate(903.13,0)" d="M0,345.2v210.79999999999998" style="stroke: rgb(255, 255, 255); stroke-opacity: 1; stroke-width: 1px;"/><path class="x4grid crisp" transform="translate(994.08,0)" d="M0,345.2v210.79999999999998" style="stroke: rgb(255, 255, 255); stroke-opacity: 1; stroke-width: 1px;"/><path class="x4grid crisp" transform="translate(1085.03,0)" d="M0,345.2v210.79999999999998" style="stroke: rgb(255, 255, 255); stroke-opacity: 1; stroke-width: 1px;"/><path class="x4grid crisp" transform="translate(1175.99,0)" d="M0,345.2v210.79999999999998" style="stroke: rgb(255, 255, 255); stroke-opacity: 1; stroke-width: 1px;"/><path class="x4grid crisp" transform="translate(1266.94,0)" d="M0,345.2v210.79999999999998" style="stroke: rgb(255, 255, 255); stroke-opacity: 1; stroke-width: 1px;"/><path class="x4grid crisp" transform="translate(1357.8899999999999,0)" d="M0,345.2v210.79999999999998" style="stroke: rgb(255, 255, 255); stroke-opacity: 1; stroke-width: 1px;"/></g><g class="y4"><path class="y4grid crisp" transform="translate(0,526.36)" d="M804.6,0h635.4" style="stroke: rgb(255, 255, 255); stroke-opacity: 1; stroke-width: 1px;"/><path class="y4grid crisp" transform="translate(0,374.02)" d="M804.6,0h635.4" style="stroke: rgb(255, 255, 255); stroke-opacity: 1; stroke-width: 1px;"/></g></g><g class="zerolinelayer"><path class="y4zl zl crisp" transform="translate(0,450.19)" d="M804.6,0h635.4" style="stroke: rgb(255, 255, 255); stroke-opacity: 1; stroke-width: 1px;"/></g><path class="xlines-below"/><path class="ylines-below"/><g class="overlines-below"/><g class="xaxislayer-below"/><g class="yaxislayer-below"/><g class="overaxes-below"/><g class="plot" transform="translate(804.6,345.2)" clip-path="url(#clip3f8fc6x4y4plot)"><g class="scatterlayer mlayer"><g class="trace scatter traced35c42" style="stroke-miterlimit: 2; opacity: 1;"><g class="fills"/><g class="errorbars"/><g class="lines"><path class="js-line" d="M15.16,44.49L16.42,42.08L17.69,44.14L24,196.63L25.26,197.3L26.53,187.37L27.79,164.05L29.05,154.46L30.32,121.59L32.84,96.34L34.11,90.97L35.37,94.81L36.63,87.91L37.9,83.02L39.16,93.32L40.42,100.96L41.69,99.46L42.95,112.44L44.21,114.8L45.48,101.91L46.74,106.22L48,108.12L49.27,105.95L50.53,80.32L51.79,92.92L53.06,107.6L54.32,103.96L55.58,100.09L56.84,105.33L58.11,104.67L59.37,85.05L60.63,90.64L61.9,81.86L63.16,92.75L64.42,93.35L65.69,99.77L66.95,110.85L68.21,109.08L69.48,114.23L70.74,113.78L72,122.34L73.27,130.81L74.53,112.68L77.06,130.3L78.32,141.66L79.58,121.12L80.85,114.09L83.37,80.88L84.64,81.08L85.9,103.52L87.16,96.63L89.69,123.01L90.95,111.97L93.48,92.47L94.74,89.61L96,91.61L97.27,82.29L98.53,88.86L99.79,75.99L101.06,103.02L102.32,110.88L103.58,100.76L104.85,114.01L106.11,106.03L107.37,121.48L108.64,117.7L109.9,131.34L111.16,133.8L112.43,125.76L114.95,97.42L116.22,92.67L117.48,82.48L118.74,78.61L120.01,87.21L121.27,89.06L123.8,90.59L125.06,93.86L126.32,91.42L127.59,108.76L128.85,102.7L130.11,113.34L132.64,123.07L133.9,124.05L135.16,132.83L136.43,133.07L138.95,128.49L140.22,116.93L142.74,102.02L144.01,92.97L146.53,75.24L147.8,65.21L149.06,65.86L150.32,69.98L151.59,67.41L152.85,79.7L155.38,112.01L156.64,116.78L157.9,114.63L159.17,127.86L161.69,110.16L162.96,121.83L164.22,138.59L165.48,134.7L166.75,151.8L168.01,150.77L169.27,154.13L170.53,151.37L174.32,76.24L175.59,75.49L176.85,66.07L178.11,44.24L179.38,26.25L180.64,23.8L183.17,83.51L184.43,85.01L189.48,122.63L190.75,119.63L193.27,141.63L194.54,142.94L195.8,158.35L197.06,148.56L198.33,175.43L199.59,170.83L204.64,79.45L205.9,71.34L207.17,64.8L208.43,48.39L209.69,10.54L210.96,17.13L213.48,56.92L214.75,85.2L216.01,95.26L217.27,114.08L221.06,139.08L222.33,124.19L223.59,129.7L224.85,159.03L226.12,152.57L227.38,158.49L229.91,154.58L231.17,135.12L234.96,70.91L236.22,75.46L237.49,56.93L238.75,25.16L240.01,23.74L241.28,38.62L247.59,136.74L248.85,145.95L250.12,151.76L251.38,145.02L253.91,109.64L255.17,100.76L258.96,70.64L260.22,71.91L261.49,86.28L262.75,114.98L265.28,144.41L266.54,148.77L269.07,141.16L270.33,146.94L271.59,143.99L272.86,125.21L275.38,101.45L276.65,93.61L279.17,91.05L280.43,91.37L285.49,74.23L286.75,80.53L288.01,73.31L289.28,71.5L291.8,94.65L293.07,122.88L295.59,157.71L296.86,158.8L298.12,128.97L299.38,119.17L301.91,122.15L303.17,109.4L304.44,107.12L305.7,100.46L306.96,100.11L308.23,93.58L310.75,89.62L312.02,97.86L313.28,85.56L314.54,84.92L315.81,77.59L317.07,86.75L318.33,83.88L319.59,83.78L322.12,105.83L323.38,124.63L324.65,113.42L325.91,130.57L328.44,111.39L329.7,112.02L332.23,135.96L333.49,128.19L336.02,108.08L337.28,105.32L338.54,102.37L339.81,103.02L341.07,101.65L342.33,103.82L344.86,72.54L346.12,80L347.39,75.67L348.65,67.92L349.91,72.61L351.18,82.63L352.44,81.29L353.7,105.24L354.97,122.49L356.23,107.57L357.49,113.99L358.75,110.57L361.28,101.02L362.54,108.12L363.81,129.68L365.07,127.43L366.33,116.62L367.6,113.54L368.86,108.62L370.12,86.92L371.39,86.95L372.65,75.96L373.91,80.52L375.18,98.98L376.44,102.38L377.7,118.33L380.23,83.81L381.49,91.39L382.76,96.08L384.02,116.15L386.55,148.19L387.81,147.95L389.07,111.07L390.34,136.18L391.6,168.4L392.86,139.42L394.12,116.35L395.39,127.85L396.65,119.73L397.91,91.83L399.18,90.78L400.44,97.91L401.7,91.59L402.97,94.87L404.23,81.82L405.49,83.75L406.76,83.11L408.02,72.28L409.28,63.19L410.55,63.21L411.81,66.61L413.07,87.39L414.34,105.81L415.6,87.3L416.86,103.73L418.13,96.03L419.39,98.16L420.65,174.67L421.92,200.26L423.18,162.36L424.44,153.67L425.71,132.39L426.97,117.73L428.23,112.33L429.5,103.57L430.76,88.07L432.02,81.34L433.28,66.12L434.55,86.83L435.81,73.43L437.07,75.47L438.34,71.8L439.6,100.83L440.86,90.6L442.13,95.96L443.39,123.44L445.92,149.09L447.18,133.59L448.44,136.11L449.71,133.99L452.23,76.68L453.5,79.4L454.76,89.76L456.02,93.32L457.29,94.31L458.55,90.11L459.81,106.72L461.08,111.96L462.34,113.84L463.6,112.58L464.87,112.76L466.13,123.1L467.39,119.14L468.65,122.61L472.44,84.41L473.71,86.28L474.97,63.85L476.23,61.08L477.5,48.95L478.76,62.35L481.29,130.75L482.55,142.98L483.81,125.45L485.08,134.47L486.34,139.88L487.6,133.06L491.39,103.9L492.66,105.01L493.92,113.63L495.18,115.08L496.45,111.67L497.71,117.04L498.97,108.65L500.24,130.63L501.5,114.66L502.76,130.24L505.29,65.57L506.55,59.5L507.81,87.83L509.08,78.29L510.34,98.73L511.6,94.51L512.87,81.5L514.13,101.3L516.66,97.13L517.92,103.07L519.18,109.6L520.45,110.9L521.71,116.6L522.97,111.9L526.76,138.46L528.03,131.77L529.29,112.96L530.55,132.75L531.82,132.27L533.08,110.05L534.34,92.05L535.61,59.98L538.13,44.22L539.4,58.07L540.66,96.35L541.92,103.27L543.18,102.1L544.45,116.18L545.71,115.78L546.97,120.01L548.24,119.6L549.5,125.06L552.03,114.95L553.29,119.68L555.82,108.95L557.08,105.33L558.34,81.97L559.61,101.38L560.87,95.53L562.13,118.43L563.4,88.92L564.66,100.18L567.19,105.29L568.45,117.15L569.71,115.29L570.98,107.71L572.24,100.5L573.5,104.67L574.77,115.77L576.03,108.23L578.56,124.81L579.82,117.06L581.08,103.45L582.34,113.46L583.61,98.7L584.87,121.4L586.13,134.06L587.4,108.98L589.92,87.26L591.19,102.57L594.98,62.57L596.24,72.77L597.5,95.96L598.77,83.7L600.03,73.18L601.29,96.6L603.82,140.09L605.08,148.24L606.35,150.02L607.61,130.54L608.87,119.44L610.14,119.79L612.66,94.35L613.93,84.92L616.45,63.19L617.71,60.64L618.98,48.9L620.24,47.14" style="vector-effect: none; fill: none; stroke: rgb(196, 78, 82); stroke-opacity: 1; stroke-width: 2px; opacity: 1;"/></g><g class="points"/><g class="text"/></g></g></g><g class="overplot"/><path class="xlines-above crisp" d="M0,0" style="fill: none;"/><path class="ylines-above crisp" d="M0,0" style="fill: none;"/><g class="overlines-above"/><g class="xaxislayer-above"><g class="x4tick"><text text-anchor="middle" x="0" y="569" transform="translate(812.1800000000001,0)" style="font-family: 'Open Sans', verdana, arial, sans-serif; font-size: 12px; fill: rgb(36, 36, 36); fill-opacity: 1; white-space: pre; opacity: 1;"><tspan class="line" dy="0em" x="0" y="569">Mar 11</tspan><tspan class="line" dy="1.3em" x="0" y="569">2004</tspan></text></g><g class="x4tick"><text text-anchor="middle" x="0" y="569" style="font-family: 'Open Sans', verdana, arial, sans-serif; font-size: 12px; fill: rgb(36, 36, 36); fill-opacity: 1; white-space: pre; opacity: 1;" transform="translate(903.13,0)">Mar 14</text></g><g class="x4tick"><text text-anchor="middle" x="0" y="569" style="font-family: 'Open Sans', verdana, arial, sans-serif; font-size: 12px; fill: rgb(36, 36, 36); fill-opacity: 1; white-space: pre; opacity: 1;" transform="translate(994.08,0)">Mar 17</text></g><g class="x4tick"><text text-anchor="middle" x="0" y="569" style="font-family: 'Open Sans', verdana, arial, sans-serif; font-size: 12px; fill: rgb(36, 36, 36); fill-opacity: 1; white-space: pre; opacity: 1;" transform="translate(1085.03,0)">Mar 20</text></g><g class="x4tick"><text text-anchor="middle" x="0" y="569" style="font-family: 'Open Sans', verdana, arial, sans-serif; font-size: 12px; fill: rgb(36, 36, 36); fill-opacity: 1; white-space: pre; opacity: 1;" transform="translate(1175.99,0)">Mar 23</text></g><g class="x4tick"><text text-anchor="middle" x="0" y="569" style="font-family: 'Open Sans', verdana, arial, sans-serif; font-size: 12px; fill: rgb(36, 36, 36); fill-opacity: 1; white-space: pre; opacity: 1;" transform="translate(1266.94,0)">Mar 26</text></g><g class="x4tick"><text text-anchor="middle" x="0" y="569" style="font-family: 'Open Sans', verdana, arial, sans-serif; font-size: 12px; fill: rgb(36, 36, 36); fill-opacity: 1; white-space: pre; opacity: 1;" transform="translate(1357.8899999999999,0)">Mar 29</text></g></g><g class="yaxislayer-above"><g class="y4tick"><text text-anchor="end" x="803.6" y="4.199999999999999" transform="translate(0,526.36)" style="font-family: 'Open Sans', verdana, arial, sans-serif; font-size: 12px; fill: rgb(36, 36, 36); fill-opacity: 1; white-space: pre; opacity: 1;">−5</text></g><g class="y4tick"><text text-anchor="end" x="803.6" y="4.199999999999999" style="font-family: 'Open Sans', verdana, arial, sans-serif; font-size: 12px; fill: rgb(36, 36, 36); fill-opacity: 1; white-space: pre; opacity: 1;" transform="translate(0,450.19)">0</text></g><g class="y4tick"><text text-anchor="end" x="803.6" y="4.199999999999999" style="font-family: 'Open Sans', verdana, arial, sans-serif; font-size: 12px; fill: rgb(36, 36, 36); fill-opacity: 1; white-space: pre; opacity: 1;" transform="translate(0,374.02)">5</text></g></g><g class="overaxes-above"/></g></g><g class="polarlayer"/><g class="smithlayer"/><g class="ternarylayer"/><g class="geolayer"/><g class="funnelarealayer"/><g class="pielayer"/><g class="iciclelayer"/><g class="treemaplayer"/><g class="sunburstlayer"/><g class="glimages"/><defs id="topdefs-3f8fc6"><g class="clips"/><clipPath id="legend3f8fc6"><rect width="120" height="86" x="0" y="0"/></clipPath></defs><g class="layer-above"><g class="imagelayer"/><g class="shapelayer"/></g><g class="infolayer"><g class="legend" pointer-events="all" transform="translate(1468.24,60)"><rect class="bg" shape-rendering="crispEdges" style="stroke: rgb(68, 68, 68); stroke-opacity: 1; fill: rgb(255, 255, 255); fill-opacity: 1; stroke-width: 0px;" width="120" height="86" x="0" y="0"/><g class="scrollbox" transform="" clip-path="url(#legend3f8fc6)"><g class="groups"><g class="traces" transform="translate(0,14.5)" style="opacity: 1;"><text class="legendtext" text-anchor="start" x="40" y="4.680000000000001" style="font-family: 'Open Sans', verdana, arial, sans-serif; font-size: 12px; fill: rgb(36, 36, 36); fill-opacity: 1; white-space: pre;">temperature</text><g class="layers" style="opacity: 1;"><g class="legendfill"/><g class="legendlines"><path class="js-line" d="M5,0h30" style="fill: none; stroke: rgb(76, 114, 176); stroke-opacity: 1; stroke-width: 2px;"/></g><g class="legendsymbols"><g class="legendpoints"/></g></g><rect class="legendtoggle" x="0" y="-9.5" width="114.890625" height="19" style="fill: rgb(0, 0, 0); fill-opacity: 0;"/></g><g class="traces" transform="translate(0,33.5)" style="opacity: 1;"><text class="legendtext" text-anchor="start" x="40" y="4.680000000000001" style="font-family: 'Open Sans', verdana, arial, sans-serif; font-size: 12px; fill: rgb(36, 36, 36); fill-opacity: 1; white-space: pre;">trend</text><g class="layers" style="opacity: 1;"><g class="legendfill"/><g class="legendlines"><path class="js-line" d="M5,0h30" style="fill: none; stroke: rgb(221, 132, 82); stroke-opacity: 1; stroke-width: 2px;"/></g><g class="legendsymbols"><g class="legendpoints"/></g></g><rect class="legendtoggle" x="0" y="-9.5" width="114.890625" height="19" style="fill: rgb(0, 0, 0); fill-opacity: 0;"/></g><g class="traces" transform="translate(0,52.5)" style="opacity: 1;"><text class="legendtext" text-anchor="start" x="40" y="4.680000000000001" style="font-family: 'Open Sans', verdana, arial, sans-serif; font-size: 12px; fill: rgb(36, 36, 36); fill-opacity: 1; white-space: pre;">seasonal</text><g class="layers" style="opacity: 1;"><g class="legendfill"/><g class="legendlines"><path class="js-line" d="M5,0h30" style="fill: none; stroke: rgb(85, 168, 104); stroke-opacity: 1; stroke-width: 2px;"/></g><g class="legendsymbols"><g class="legendpoints"/></g></g><rect class="legendtoggle" x="0" y="-9.5" width="114.890625" height="19" style="fill: rgb(0, 0, 0); fill-opacity: 0;"/></g><g class="traces" transform="translate(0,71.5)" style="opacity: 1;"><text class="legendtext" text-anchor="start" x="40" y="4.680000000000001" style="font-family: 'Open Sans', verdana, arial, sans-serif; font-size: 12px; fill: rgb(36, 36, 36); fill-opacity: 1; white-space: pre;">residuals</text><g class="layers" style="opacity: 1;"><g class="legendfill"/><g class="legendlines"><path class="js-line" d="M5,0h30" style="fill: none; stroke: rgb(196, 78, 82); stroke-opacity: 1; stroke-width: 2px;"/></g><g class="legendsymbols"><g class="legendpoints"/></g></g><rect class="legendtoggle" x="0" y="-9.5" width="114.890625" height="19" style="fill: rgb(0, 0, 0); fill-opacity: 0;"/></g></g></g><rect class="scrollbar" rx="20" ry="3" width="0" height="0" style="fill: rgb(128, 139, 164); fill-opacity: 1;" x="0" y="0"/></g><g class="g-gtitle"><text class="gtitle" x="800" y="30" text-anchor="middle" dy="0em" style="font-family: 'Open Sans', verdana, arial, sans-serif; font-size: 17px; fill: rgb(36, 36, 36); opacity: 1; font-weight: normal; white-space: pre;">Additive decomposition of temperature</text></g><g class="g-xtitle"/><g class="g-x2title"/><g class="g-x3title"/><g class="g-x4title"/><g class="g-ytitle"/><g class="g-y2title"/><g class="g-y3title"/><g class="g-y4title"/></g></svg>