<svg class="main-svg" xmlns="http://www.w3.org/2000/svg" xmlns:xlink="http://www.w3.org/1999/xlink" width="1600" height="600" style="" viewBox="0 0 1600 600"><rect x="0" y="0" width="1600" height="600" style="fill: rgb(255, 255, 255); fill-opacity: 1;"/><defs id="defs-eee934"><g class="clips"><clipPath id="clipeee934xyplot" class="plotclip"><rect width="634.95" height="211.22500000000002"/></clipPath><clipPath id="clipeee934x2y2plot" class="plotclip"><rect width="634.9499999999999" height="211.22500000000002"/></clipPath><clipPath id="clipeee934x3y3plot" class="plotclip"><rect width="634.95" height="211.225"/></clipPath><clipPath id="clipeee934x4y4plot" class="plotclip"><rect width="634.9499999999999" height="211.225"/></clipPath><clipPath class="axesclip" id="clipeee934x"><rect x="28" y="0" width="634.95" height="600"/></clipPath><clipPath class="axesclip" id="clipeee934y"><rect x="0" y="60" width="1600" height="211.22500000000002"/></clipPath><clipPath class="axesclip" id="clipeee934xy"><rect x="28" y="60" width="634.95" height="211.22500000000002"/></clipPath><clipPath class="axesclip" id="clipeee934y2"><rect x="0" y="60" width="1600" height="211.22500000000002"/></clipPath><clipPath class="axesclip" id="clipeee934xy2"><rect x="28" y="60" width="634.95" height="211.22500000000002"/></clipPath><clipPath class="axesclip" id="clipeee934y3"><rect x="0" y="345.775" width="1600" height="211.225"/></clipPath><clipPath class="axesclip" id="clipeee934xy3"><rect x="28" y="345.775" width="634.95" height="211.225"/></clipPath><clipPath class="axesclip" id="clipeee934y4"><rect x="0" y="345.775" width="1600" height="211.225"/></clipPath><clipPath class="axesclip" id="clipeee934xy4"><rect x="28" y="345.775" width="634.95" height="211.225"/></clipPath><clipPath class="axesclip" id="clipeee934x2"><rect x="804.0500000000001" y="0" width="634.9499999999999" height="600"/></clipPath><clipPath class="axesclip" id="clipeee934x2y"><rect x="804.0500000000001" y="60" width="634.9499999999999" height="211.22500000000002"/></clipPath><clipPath class="axesclip" id="clipeee934x2y2"><rect x="804.0500000000001" y="60" width="634.9499999999999" height="211.22500000000002"/></clipPath><clipPath class="axesclip" id="clipeee934x2y3"><rect x="804.0500000000001" y="345.775" width="634.9499999999999" height="211.225"/></clipPath><clipPath class="axesclip" id="clipeee934x2y4"><rect x="804.0500000000001" y="345.775" width="634.9499999999999" height="211.225"/></clipPath><clipPath class="axesclip" id="clipeee934x3"><rect x="28" y="0" width="634.95" height="600"/></clipPath><clipPath class="axesclip" id="clipeee934x3y"><rect x="28" y="60" width="634.95" height="211.22500000000002"/></clipPath><clipPath class="axesclip" id="clipeee934x3y2"><rect x="28" y="60" width="634.95" height="211.22500000000002"/></clipPath><clipPath class="axesclip" id="clipeee934x3y3"><rect x="28" y="345.775" width="634.95" height="211.225"/></clipPath><clipPath class="axesclip" id="clipeee934x3y4"><rect x="28" y="345.775" width="634.95" height="211.225"/></clipPath><clipPath class="axesclip" id="clipeee934x4"><rect x="804.0500000000001" y="0" width="634.9499999999999" height="600"/></clipPath><clipPath class="axesclip" id="clipeee934x4y"><rect x="804.0500000000001" y="60" width="634.9499999999999" height="211.22500000000002"/></clipPath><clipPath class="axesclip" id="clipeee934x4y2"><rect x="804.0500000000001" y="60" width="634.9499999999999" height="211.22500000000002"/></clipPath><clipPath class="axesclip" id="clipeee934x4y3"><rect x="804.0500000000001" y="345.775" width="634.9499999999999" height="211.225"/></clipPath><clipPath class="axesclip" id="clipeee934x4y4"><rect x="804.0500000000001" y="345.775" width="634.9499999999999" height="211.225"/></clipPath></g><g class="gradients"/><g class="patterns"/></defs><g class="bglayer"><rect class="bg" x="28" y="60" width="634.95" height="211.22500000000002" style="fill: rgb(234, 234, 242); fill-opacity: 1; stroke-width: 0;"/><rect class="bg" x="804.0500000000001" y="60" width="634.9499999999999" height="211.22500000000002" style="fill: rgb(234, 234, 242); fill-opacity: 1; stroke-width: 0;"/><rect class="bg" x="28" y="345.775" width="634.95" height="211.225" style="fill: rgb(234, 234, 242); fill-opacity: 1; stroke-width: 0;"/><rect class="bg" x="804.0500000000001" y="345.775" width="634.9499999999999" height="211.225" style="fill: rgb(234, 234, 242); fill-opacity: 1; stroke-width: 0;"/></g><g class="layer-below"><g class="imagelayer"/><g class="shapelayer"/></g><g class="cartesianlayer"><g class="subplot xy"><g class="layer-subplot"><g class="shapelayer"/><g class="imagelayer"/></g><g class="minor-gridlayer"><g class="x"/><g class="y"/></g><g class="gridlayer"><g class="x"><path class="xgrid crisp" transform="translate(35.57,0)" d="M0,60v211.22500000000002" style="stroke: rgb(255, 255, 255); stroke-opacity: 1; stroke-width: 1px;"/><path class="xgrid crisp" transform="translate(126.46,0)" d="M0,60v211.22500000000002" style="stroke: rgb(255, 255, 255); stroke-opacity: 1; stroke-width: 1px;"/><path class="xgrid crisp" transform="translate(217.35,0)" d="M0,60v211.22500000000002" style="stroke: rgb(255, 255, 255); stroke-opacity: 1; stroke-width: 1px;"/><path class="xgrid crisp" transform="translate(308.24,0)" d="M0,60v211.22500000000002" style="stroke: rgb(255, 255, 255); stroke-opacity: 1; stroke-width: 1px;"/><path class="xgrid crisp" transform="translate(399.12,0)" d="M0,60v211.22500000000002" style="stroke: rgb(255, 255, 255); stroke-opacity: 1; stroke-width: 1px;"/><path class="xgrid crisp" transform="translate(490.01,0)" d="M0,60v211.22500000000002" style="stroke: rgb(255, 255, 255); stroke-opacity: 1; stroke-width: 1px;"/><path class="xgrid crisp" transform="translate(580.9,0)" d="M0,60v211.22500000000002" style="stroke: rgb(255, 255, 255); stroke-opacity: 1; stroke-width: 1px;"/></g><g class="y"><path class="ygrid crisp" transform="translate(0,269.68)" d="M28,0h634.95" style="stroke: rgb(255, 255, 255); stroke-opacity: 1; stroke-width: 1px;"/><path class="ygrid crisp" transform="translate(0,228.71)" d="M28,0h634.95" style="stroke: rgb(255, 255, 255); stroke-opacity: 1; stroke-width: 1px;"/><path class="ygrid crisp" transform="translate(0,187.74)" d="M28,0h634.95" style="stroke: rgb(255, 255, 255); stroke-opacity: 1; stroke-width: 1px;"/><path class="ygrid crisp" transform="translate(0,146.76999999999998)" d="M28,0h634.95" style="stroke: rgb(255, 255, 255); stroke-opacity: 1; stroke-width: 1px;"/><path class="ygrid crisp" transform="translate(0,105.8)" d="M28,0h634.95" style="stroke: rgb(255, 255, 255); stroke-opacity: 1; stroke-width: 1px;"/><path class="ygrid crisp" transform="translate(0,64.83)" d="M28,0h634.95" style="stroke: rgb(255, 255, 255); stroke-opacity: 1; stroke-width: 1px;"/></g></g><g class="zerolinelayer"/><path class="xlines-below"/><path class="ylines-below"/><g class="overlines-below"/><g class="xaxislayer-below"/><g class="yaxislayer-below"/><g class="overaxes-below"/><g class="plot" transform="translate(28,60)" clip-path="url(#clipeee934xyplot)"><g class="scatterlayer mlayer"><g class="trace scatter traceae555d" style="stroke-miterlimit: 2; opacity: 1;"><g class="fills"/><g class="errorbars"/><g class="lines"><path class="js-line" d="M0,139.21L1.26,141.67L2.52,153.14L3.79,160.51L5.05,158.87L6.31,158.87L7.57,158.05L8.84,162.97L10.1,162.97L12.62,167.89L13.89,160.51L16.41,167.07L17.67,162.15L18.93,164.61L20.2,162.15L21.46,164.61L22.72,172.8L23.98,182.64L25.25,185.1L26.51,182.64L27.77,171.17L29.03,170.35L30.3,166.25L31.56,171.17L32.82,171.98L34.08,176.08L35.35,183.46L36.61,183.46L37.87,182.64L40.39,192.47L41.66,193.29L42.92,200.66L44.18,199.02L45.44,194.93L46.71,198.21L47.97,190.83L49.23,175.26L50.49,142.49L51.76,133.47L54.28,118.72L55.54,117.08L56.8,121.18L58.07,120.36L59.33,112.17L60.59,126.92L61.85,132.65L63.12,144.94L65.64,160.51L66.9,171.17L68.17,172.8L69.43,176.08L70.69,178.54L71.95,186.73L73.21,193.29L74.48,182.64L77,199.02L78.26,197.39L83.31,99.88L84.58,91.68L85.84,103.15L87.1,99.88L90.89,118.72L92.15,121.18L93.41,122L94.67,125.28L95.94,131.01L97.2,130.19L98.46,136.75L99.72,131.01L102.25,155.6L103.51,151.5L104.77,156.42L106.04,155.6L107.3,165.43L108.56,155.6L109.82,149.04L111.08,131.83L114.87,76.93L116.13,75.29L118.66,68.74L119.92,76.11L122.45,99.88L123.71,106.43L126.23,117.08L127.49,130.19L128.76,129.38L130.02,135.93L133.81,149.86L135.07,153.14L136.33,157.24L137.59,158.05L138.86,149.04L140.12,129.38L143.91,70.38L145.17,59.73L147.69,50.71L148.95,50.71L150.22,55.63L151.48,66.28L155.27,113.81L156.53,122L157.79,125.28L159.05,135.11L160.32,129.38L161.58,129.38L164.1,149.86L165.36,145.76L166.63,158.87L167.89,160.51L169.15,154.78L170.41,139.21L174.2,50.71L175.46,43.34L176.73,39.24L177.99,29.41L179.25,19.57L180.51,21.21L183.04,76.11L184.3,83.49L189.35,123.64L190.61,123.64L193.14,143.31L194.4,146.58L195.66,153.96L196.92,153.14L198.19,169.53L199.45,159.69L205.76,40.88L207.02,38.42L208.28,31.05L209.55,10.56L210.81,17.12L212.07,38.42L215.86,94.14L217.12,109.71L220.91,133.47L222.17,129.38L223.43,136.75L224.69,155.6L225.96,152.32L227.22,161.33L228.48,163.79L229.74,156.42L234.79,55.63L236.05,52.35L237.32,44.16L238.58,29.41L239.84,28.59L241.1,39.24L246.15,119.54L247.42,131.83L249.94,152.32L251.2,153.14L252.47,148.22L253.73,148.22L254.99,149.86L256.25,148.22L257.51,149.86L258.78,149.04L263.83,131.83L265.09,123.64L266.35,118.72L267.61,117.08L268.88,116.26L270.14,118.72L272.66,121.18L273.92,123.64L276.45,126.1L277.71,130.19L280.24,137.57L281.5,136.75L282.76,136.75L284.02,137.57L285.29,137.57L286.55,139.21L287.81,139.21L289.07,140.03L290.33,137.57L291.6,131.01L294.12,124.46L295.38,117.08L296.65,110.53L297.91,94.96L299.17,90.86L300.43,90.86L302.96,99.06L304.22,108.07L305.48,110.53L306.75,116.26L310.53,122L311.79,126.92L313.06,122.82L314.32,126.1L315.58,124.46L316.84,128.56L319.37,134.29L320.63,131.83L323.16,117.08L324.42,95.78L325.68,91.68L326.94,80.21L328.2,75.29L329.47,76.93L334.52,104.79L335.78,103.97L340.83,118.72L342.09,121.18L344.62,112.17L345.88,118.72L347.14,115.45L348.4,116.26L349.66,122L350.93,121.18L352.19,108.07L353.45,103.97L354.71,99.06L355.98,78.57L357.24,76.11L358.5,76.11L361.03,76.11L362.29,85.13L364.81,122.82L366.07,125.28L368.6,136.75L369.86,131.83L371.12,137.57L372.39,135.93L373.65,144.12L374.91,160.51L377.44,178.54L378.7,171.98L381.22,168.71L382.48,158.87L385.01,145.76L386.27,143.31L387.53,137.57L388.8,119.54L391.32,152.32L392.58,139.21L393.85,138.39L395.11,154.78L396.37,156.42L397.63,147.4L398.9,152.32L400.16,160.51L401.42,159.69L402.68,162.15L403.94,158.05L405.21,163.79L406.47,167.07L407.73,161.33L408.99,162.15L410.26,165.43L411.52,160.51L412.78,158.87L414.04,151.5L415.31,126.92L416.57,122.82L417.83,112.17L419.09,114.63L420.35,158.05L421.62,171.98L422.88,154.78L424.14,162.97L425.4,162.97L426.67,162.15L427.93,166.25L429.19,167.89L430.45,165.43L431.72,166.25L432.98,160.51L434.24,176.08L435.5,172.8L436.76,174.44L438.03,169.53L439.29,188.37L440.55,184.28L441.81,179.36L443.08,180.18L445.6,160.51L446.86,139.21L448.13,134.29L449.39,134.29L451.91,105.61L453.18,110.53L455.7,140.85L456.96,147.4L458.22,150.68L459.49,163.79L462.01,171.98L463.27,171.17L464.54,173.62L465.8,183.46L468.32,187.55L469.59,185.1L470.85,181L472.11,170.35L473.37,158.87L474.63,129.38L477.16,93.32L478.42,94.14L480.95,134.29L482.21,140.85L483.47,134.29L484.73,151.5L486,165.43L487.26,168.71L489.78,171.17L491.04,169.53L493.57,180.18L494.83,184.28L496.09,185.91L497.36,190.01L498.62,183.46L499.88,199.02L501.14,191.65L502.41,191.65L506.19,104.79L507.46,106.43L508.72,94.14L509.98,105.61L511.24,104.79L512.5,97.42L516.29,130.19L517.55,139.21L521.34,161.33L522.6,161.33L523.87,166.25L525.13,174.44L526.39,183.46L527.65,182.64L528.91,171.98L530.18,187.55L531.44,190.01L532.7,171.17L537.75,76.11L539.01,76.93L540.28,98.24L541.54,103.15L542.8,101.52L544.06,111.35L547.85,140.85L549.11,149.86L551.64,156.42L552.9,163.79L554.16,162.97L555.42,165.43L556.69,167.89L557.95,158.05L559.21,167.89L560.47,169.53L561.74,184.28L563,161.33L564.26,153.96L565.52,136.75L568.05,115.45L569.31,107.25L571.83,101.52L573.1,103.15L576.88,131.83L578.15,142.49L579.41,143.31L580.67,140.03L581.93,149.04L583.19,143.31L585.72,164.61L586.98,154.78L589.51,144.94L590.77,158.05L592.03,153.14L593.29,141.67L595.82,103.97L597.08,100.7L599.6,67.1L600.87,79.39L603.39,102.33L604.65,108.89L605.92,121.18L607.18,120.36L608.44,120.36L609.7,127.74L610.97,126.92L612.23,128.56L614.75,129.38L616.02,129.38L617.28,134.29L618.54,131.83L619.8,131.01L621.06,132.65L623.59,142.49L624.85,165.43L627.38,150.68L628.64,149.86L629.9,158.05L631.16,139.21L633.69,122L634.95,126.1" style="vector-effect: none; fill: none; stroke: rgb(76, 114, 176); stroke-opacity: 1; stroke-width: 2px; opacity: 1;"/></g><g class="points"/><g class="text"/></g></g></g><g class="overplot"/><path class="xlines-above crisp" d="M0,0" style="fill: none;"/><path class="ylines-above crisp" d="M0,0" style="fill: none;"/><g class="overlines-above"/><g class="xaxislayer-above"><g class="xtick"><text text-anchor="middle" x="0" y="284.225" transform="translate(35.57,0)" style="font-family: 'Open Sans', verdana, arial, sans-serif; font-size: 12px; fill: rgb(36, 36, 36); fill-opacity: 1; white-space: pre; opacity: 1;"><tspan class="line" dy="0em" x="0" y="284.225">Mar 11</tspan><tspan class="line" dy="1.3em" x="0" y="284.225">2004</tspan></text></g><g class="xtick"><text text-anchor="middle" x="0" y="284.225" style="font-family: 'Open Sans', verdana, arial, sans-serif; font-size: 12px; fill: rgb(36, 36, 36); fill-opacity: 1; white-space: pre; opacity: 1;" transform="translate(126.46,0)">Mar 14</text></g><g class="xtick"><text text-anchor="middle" x="0" y="284.225" style="font-family: 'Open Sans', verdana, arial, sans-serif; font-size: 12px; fill: rgb(36, 36, 36); fill-opacity: 1; white-space: pre; opacity: 1;" transform="translate(217.35,0)">Mar 17</text></g><g class="xtick"><text text-anchor="middle" x="0" y="284.225" style="font-family: 'Open Sans', verdana, arial, sans-serif; font-size: 12px; fill: rgb(36, 36, 36); fill-opacity: 1; white-space: pre; opacity: 1;" transform="translate(308.24,0)">Mar 20</text></g><g class="xtick"><text text-anchor="middle" x="0" y="284.225" style="font-family: 'Open Sans', verdana, arial, sans-serif; font-size: 12px; fill: rgb(36, 36, 36); fill-opacity: 1; white-space: pre; opacity: 1;" transform="translate(399.12,0)">Mar 23</text></g><g class="xtick"><text text-anchor="middle" x="0" y="284.225" style="font-family: 'Open Sans', verdana, arial, sans-serif; font-size: 12px; fill: rgb(36, 36, 36); fill-opacity: 1; white-space: pre; opacity: 1;" transform="translate(490.01,0)">Mar 26</text></g><g class="xtick"><text text-anchor="middle" x="0" y="284.225" style="font-family: 'Open Sans', verdana, arial, sans-serif; font-size: 12px; fill: rgb(36, 36, 36); fill-opacity: 1; white-space: pre; opacity: 1;" transform="translate(580.9,0)">Mar 29</text></g></g><g class="yaxislayer-above"><g class="ytick"><text text-anchor="end" x="27" y="4.199999999999999" transform="translate(0,269.68)" style="font-family: 'Open Sans', verdana, arial, sans-serif; font-size: 12px; fill: rgb(36, 36, 36); fill-opacity: 1; white-space: pre; opacity: 1;">5</text></g><g class="ytick"><text text-anchor="end" x="27" y="4.199999999999999" style="font-family: 'Open Sans', verdana, arial, sans-serif; font-size: 12px; fill: rgb(36, 36, 36); fill-opacity: 1; white-space: pre; opacity: 1;" transform="translate(0,228.71)">10</text></g><g class="ytick"><text text-anchor="end" x="27" y="4.199999999999999" style="font-family: 'Open Sans', verdana, arial, sans-serif; font-size: 12px; fill: rgb(36, 36, 36); fill-opacity: 1; white-space: pre; opacity: 1;" transform="translate(0,187.74)">15</text></g><g class="ytick"><text text-anchor="end" x="27" y="4.199999999999999" style="font-family: 'Open Sans', verdana, arial, sans-serif; font-size: 12px; fill: rgb(36, 36, 36); fill-opacity: 1; white-space: pre; opacity: 1;" transform="translate(0,146.76999999999998)">20</text></g><g class="ytick"><text text-anchor="end" x="27" y="4.199999999999999" style="font-family: 'Open Sans', verdana, arial, sans-serif; font-size: 12px; fill: rgb(36, 36, 36); fill-opacity: 1; white-space: pre; opacity: 1;" transform="translate(0,105.8)">25</text></g><g class="ytick"><text text-anchor="end" x="27" y="4.199999999999999" style="font-family: 'Open Sans', verdana, arial, sans-serif; font-size: 12px; fill: rgb(36, 36, 36); fill-opacity: 1; white-space: pre; opacity: 1;" transform="translate(0,64.83)">30</text></g></g><g class="overaxes-above"/></g><g class="subplot x2y2"><g class="layer-subplot"><g class="shapelayer"/><g class="imagelayer"/></g><g class="minor-gridlayer"><g class="x2"/><g class="y2"/></g><g class="gridlayer"><g class="x2"><path class="x2grid crisp" transform="translate(811.6200000000001,0)" d="M0,60v211.22500000000002" style="stroke: rgb(255, 255, 255); stroke-opacity: 1; stroke-width: 1px;"/><path class="x2grid crisp" transform="translate(902.5100000000001,0)" d="M0,60v211.22500000000002" style="stroke: rgb(255, 255, 255); stroke-opacity: 1; stroke-width: 1px;"/><path class="x2grid crisp" transform="translate(993.4000000000001,0)" d="M0,60v211.22500000000002" style="stroke: rgb(255, 255, 255); stroke-opacity: 1; stroke-width: 1px;"/><path class="x2grid crisp" transform="translate(1084.29,0)" d="M0,60v211.22500000000002" style="stroke: rgb(255, 255, 255); stroke-opacity: 1; stroke-width: 1px;"/><path class="x2grid crisp" transform="translate(1175.17,0)" d="M0,60v211.22500000000002" style="stroke: rgb(255, 255, 255); stroke-opacity: 1; stroke-width: 1px;"/><path class="x2grid crisp" transform="translate(1266.06,0)" d="M0,60v211.22500000000002" style="stroke: rgb(255, 255, 255); stroke-opacity: 1; stroke-width: 1px;"/><path class="x2grid crisp" transform="translate(1356.95,0)" d="M0,60v211.22500000000002" style="stroke: rgb(255, 255, 255); stroke-opacity: 1; stroke-width: 1px;"/></g><g class="y2"><path class="y2grid crisp" transform="translate(0,254.97)" d="M804.0500000000001,0h634.9499999999999" style="stroke: rgb(255, 255, 255); stroke-opacity: 1; stroke-width: 1px;"/><path class="y2grid crisp" transform="translate(0,212.41)" d="M804.0500000000001,0h634.9499999999999" style="stroke: rgb(255, 255, 255); stroke-opacity: 1; stroke-width: 1px;"/><path class="y2grid crisp" transform="translate(0,127.29)" d="M804.0500000000001,0h634.9499999999999" style="stroke: rgb(255, 255, 255); stroke-opacity: 1; stroke-width: 1px;"/><path class="y2grid crisp" transform="translate(0,84.73)" d="M804.0500000000001,0h634.9499999999999" style="stroke: rgb(255, 255, 255); stroke-opacity: 1; stroke-width: 1px;"/></g></g><g class="zerolinelayer"><path class="y2zl zl crisp" transform="translate(0,169.85)" d="M804.0500000000001,0h634.9499999999999" style="stroke: rgb(255, 255, 255); stroke-opacity: 1; stroke-width: 1px;"/></g><path class="xlines-below"/><path class="ylines-below"/><g class="overlines-below"/><g class="xaxislayer-below"/><g class="yaxislayer-below"/><g class="overaxes-below"/><g class="plot" transform="translate(804.0500000000001,60)" clip-path="url(#clipeee934x2y2plot)"><g class="scatterlayer mlayer"><g class="trace scatter traceff655e" style="stroke-miterlimit: 2; opacity: 1;"><g class="fills"/><g class="errorbars"/><g class="lines"><path class="js-line" d="M0,56.03L2.52,99.64L3.79,115.65L7.57,151.14L8.84,155.42L12.62,182.97L13.89,181.31L16.41,200.66L17.67,182.4L23.98,10.56L25.25,13.08L26.51,17.52L27.77,17.06L29.03,24.48L30.3,56.03L32.82,99.64L34.08,115.65L37.87,151.14L39.13,155.42L42.92,182.97L44.18,181.31L46.71,200.66L47.97,182.4L54.28,10.56L55.54,13.08L56.8,17.52L58.07,17.06L59.33,24.48L60.59,56.03L63.12,99.64L64.38,115.65L68.17,151.14L69.43,155.42L73.21,182.97L74.48,181.31L77,200.66L78.26,182.4L84.58,10.56L85.84,13.08L87.1,17.52L88.36,17.06L89.63,24.48L90.89,56.03L93.41,99.64L94.67,115.65L98.46,151.14L99.72,155.42L103.51,182.97L104.77,181.31L107.3,200.66L108.56,182.4L114.87,10.56L116.13,13.08L117.4,17.52L118.66,17.06L119.92,24.48L121.18,56.03L123.71,99.64L124.97,115.65L128.76,151.14L130.02,155.42L133.81,182.97L135.07,181.31L137.59,200.66L138.86,182.4L145.17,10.56L146.43,13.08L147.69,17.52L148.95,17.06L150.22,24.48L151.48,56.03L154,99.64L155.27,115.65L159.05,151.14L160.32,155.42L164.1,182.97L165.36,181.31L167.89,200.66L169.15,182.4L175.46,10.56L176.73,13.08L177.99,17.52L179.25,17.06L180.51,24.48L181.77,56.03L184.3,99.64L185.56,115.65L189.35,151.14L190.61,155.42L194.4,182.97L195.66,181.31L198.19,200.66L199.45,182.4L205.76,10.56L207.02,13.08L208.28,17.52L209.55,17.06L210.81,24.48L212.07,56.03L214.6,99.64L215.86,115.65L219.64,151.14L220.91,155.42L224.69,182.97L225.96,181.31L228.48,200.66L229.74,182.4L236.05,10.56L237.32,13.08L238.58,17.52L239.84,17.06L241.1,24.48L242.37,56.03L244.89,99.64L246.15,115.65L249.94,151.14L251.2,155.42L254.99,182.97L256.25,181.31L258.78,200.66L260.04,182.4L266.35,10.56L267.61,13.08L268.88,17.52L270.14,17.06L271.4,24.48L272.66,56.03L275.19,99.64L276.45,115.65L280.24,151.14L281.5,155.42L285.29,182.97L286.55,181.31L289.07,200.66L290.33,182.4L296.65,10.56L297.91,13.08L299.17,17.52L300.43,17.06L301.7,24.48L302.96,56.03L305.48,99.64L306.75,115.65L310.53,151.14L311.79,155.42L315.58,182.97L316.84,181.31L319.37,200.66L320.63,182.4L326.94,10.56L328.2,13.08L329.47,17.52L330.73,17.06L331.99,24.48L333.25,56.03L335.78,99.64L337.04,115.65L340.83,151.14L342.09,155.42L345.88,182.97L347.14,181.31L349.66,200.66L350.93,182.4L357.24,10.56L358.5,13.08L359.76,17.52L361.03,17.06L362.29,24.48L363.55,56.03L366.07,99.64L367.34,115.65L371.12,151.14L372.39,155.42L376.17,182.97L377.44,181.31L379.96,200.66L381.22,182.4L387.53,10.56L388.8,13.08L390.06,17.52L391.32,17.06L392.58,24.48L393.85,56.03L396.37,99.64L397.63,115.65L401.42,151.14L402.68,155.42L406.47,182.97L407.73,181.31L410.26,200.66L411.52,182.4L417.83,10.56L419.09,13.08L420.35,17.52L421.62,17.06L422.88,24.48L424.14,56.03L426.67,99.64L427.93,115.65L431.72,151.14L432.98,155.42L436.76,182.97L438.03,181.31L440.55,200.66L441.81,182.4L448.13,10.56L449.39,13.08L450.65,17.52L451.91,17.06L453.18,24.48L454.44,56.03L456.96,99.64L458.22,115.65L462.01,151.14L463.27,155.42L467.06,182.97L468.32,181.31L470.85,200.66L472.11,182.4L478.42,10.56L479.68,13.08L480.95,17.52L482.21,17.06L483.47,24.48L484.73,56.03L487.26,99.64L488.52,115.65L492.31,151.14L493.57,155.42L497.36,182.97L498.62,181.31L501.14,200.66L502.41,182.4L508.72,10.56L509.98,13.08L511.24,17.52L512.5,17.06L513.77,24.48L515.03,56.03L517.55,99.64L518.82,115.65L522.6,151.14L523.87,155.42L527.65,182.97L528.91,181.31L531.44,200.66L532.7,182.4L539.01,10.56L540.28,13.08L541.54,17.52L542.8,17.06L544.06,24.48L545.32,56.03L547.85,99.64L549.11,115.65L552.9,151.14L554.16,155.42L557.95,182.97L559.21,181.31L561.74,200.66L563,182.4L569.31,10.56L570.57,13.08L571.83,17.52L573.1,17.06L574.36,24.48L575.62,56.03L578.15,99.64L579.41,115.65L583.19,151.14L584.46,155.42L588.24,182.97L589.51,181.31L592.03,200.66L593.29,182.4L599.6,10.56L600.87,13.08L602.13,17.52L603.39,17.06L604.65,24.48L605.92,56.03L608.44,99.64L609.7,115.65L613.49,151.14L614.75,155.42L618.54,182.97L619.8,181.31L622.33,200.66L623.59,182.4L629.9,10.56L631.16,13.08L632.43,17.52L633.69,17.06L634.95,24.48" style="vector-effect: none; fill: none; stroke: rgb(85, 168, 104); stroke-opacity: 1; stroke-width: 2px; opacity: 1;"/></g><g class="points"/><g class="text"/></g></g></g><g class="overplot"/><path class="xlines-above crisp" d="M0,0" style="fill: none;"/><path class="ylines-above crisp" d="M0,0" style="fill: none;"/><g class="overlines-above"/><g class="xaxislayer-above"><g class="x2tick"><text text-anchor="middle" x="0" y="284.225" transform="translate(811.6200000000001,0)" style="font-family: 'Open Sans', verdana, arial, sans-serif; font-size: 12px; fill: rgb(36, 36, 36); fill-opacity: 1; white-space: pre; opacity: 1;"><tspan class="line" dy="0em" x="0" y="284.225">Mar 11</tspan><tspan class="line" dy="1.3em" x="0" y="284.225">2004</tspan></text></g><g class="x2tick"><text text-anchor="middle" x="0" y="284.225" style="font-family: 'Open Sans', verdana, arial, sans-serif; font-size: 12px; fill: rgb(36, 36, 36); fill-opacity: 1; white-space: pre; opacity: 1;" transform="translate(902.5100000000001,0)">Mar 14</text></g><g class="x2tick"><text text-anchor="middle" x="0" y="284.225" style="font-family: 'Open Sans', verdana, arial, sans-serif; font-size: 12px; fill: rgb(36, 36, 36); fill-opacity: 1; white-space: pre; opacity: 1;" transform="translate(993.4000000000001,0)">Mar 17</text></g><g class="x2tick"><text text-anchor="middle" x="0" y="284.225" style="font-family: 'Open Sans', verdana, arial, sans-serif; font-size: 12px; fill: rgb(36, 36, 36); fill-opacity: 1; white-space: pre; opacity: 1;" transform="translate(1084.29,0)">Mar 20</text></g><g class="x2tick"><text text-anchor="middle" x="0" y="284.225" style="font-family: 'Open Sans', verdana, arial, sans-serif; font-size: 12px; fill: rgb(36, 36, 36); fill-opacity: 1; white-space: pre; opacity: 1;" transform="translate(1175.17,0)">Mar 23</text></g><g class="x2tick"><text text-anchor="middle" x="0" y="284.225" style="font-family: 'Open Sans', verdana, arial, sans-serif; font-size: 12px; fill: rgb(36, 36, 36); fill-opacity: 1; white-space: pre; opacity: 1;" transform="translate(1266.06,0)">Mar 26</text></g><g class="x2tick"><text text-anchor="middle" x="0" y="284.225" style="font-family: 'Open Sans', verdana, arial, sans-serif; font-size: 12px; fill: rgb(36, 36, 36); fill-opacity: 1; white-space: pre; opacity: 1;" transform="translate(1356.95,0)">Mar 29</text></g></g><g class="yaxislayer-above"><g class="y2tick"><text text-anchor="end" x="803.0500000000001" y="4.199999999999999" transform="translate(0,254.97)" style="font-family: 'Open Sans', verdana, arial, sans-serif; font-size: 12px; fill: rgb(36, 36, 36); fill-opacity: 1; white-space: pre; opacity: 1;">−4</text></g><g class="y2tick"><text text-anchor="end" x="803.0500000000001" y="4.199999999999999" style="font-family: 'Open Sans', verdana, arial, sans-serif; font-size: 12px; fill: rgb(36, 36, 36); fill-opacity: 1; white-space: pre; opacity: 1;" transform="translate(0,212.41)">−2</text></g><g class="y2tick"><text text-anchor="end" x="803.0500000000001" y="4.199999999999999" style="font-family: 'Open Sans', verdana, arial, sans-serif; font-size: 12px; fill: rgb(36, 36, 36); fill-opacity: 1; white-space: pre; opacity: 1;" transform="translate(0,169.85)">0</text></g><g class="y2tick"><text text-anchor="end" x="803.0500000000001" y="4.199999999999999" style="font-family: 'Open Sans', verdana, arial, sans-serif; font-size: 12px; fill: rgb(36, 36, 36); fill-opacity: 1; white-space: pre; opacity: 1;" transform="translate(0,127.29)">2</text></g><g class="y2tick"><text text-anchor="end" x="803.0500000000001" y="4.199999999999999" style="font-family: 'Open Sans', verdana, arial, sans-serif; font-size: 12px; fill: rgb(36, 36, 36); fill-opacity: 1; white-space: pre; opacity: 1;" transform="translate(0,84.73)">4</text></g></g><g class="overaxes-above"/></g><g class="subplot x3y3"><g class="layer-subplot"><g class="shapelayer"/><g class="imagelayer"/></g><g class="minor-gridlayer"><g class="x3"/><g class="y3"/></g><g class="gridlayer"><g class="x3"><path class="x3grid crisp" transform="translate(35.57,0)" d="M0,345.775v211.225" style="stroke: rgb(255, 255, 255); stroke-opacity: 1; stroke-width: 1px;"/><path class="x3grid crisp" transform="translate(126.46,0)" d="M0,345.775v211.225" style="stroke: rgb(255, 255, 255); stroke-opacity: 1; stroke-width: 1px;"/><path class="x3grid crisp" transform="translate(217.35,0)" d="M0,345.775v211.225" style="stroke: rgb(255, 255, 255); stroke-opacity: 1; stroke-width: 1px;"/><path class="x3grid crisp" transform="translate(308.24,0)" d="M0,345.775v211.225" style="stroke: rgb(255, 255, 255); stroke-opacity: 1; stroke-width: 1px;"/><path class="x3grid crisp" transform="translate(399.12,0)" d="M0,345.775v211.225" style="stroke: rgb(255, 255, 255); stroke-opacity: 1; stroke-width: 1px;"/><path class="x3grid crisp" transform="translate(490.01,0)" d="M0,345.775v211.225" style="stroke: rgb(255, 255, 255); stroke-opacity: 1; stroke-width: 1px;"/><path class="x3grid crisp" transform="translate(580.9,0)" d="M0,345.775v211.225" style="stroke: rgb(255, 255, 255); stroke-opacity: 1; stroke-width: 1px;"/></g><g class="y3"><path class="y3grid crisp" transform="translate(0,554.7149999999999)" d="M28,0h634.95" style="stroke: rgb(255, 255, 255); stroke-opacity: 1; stroke-width: 1px;"/><path class="y3grid crisp" transform="translate(0,518.095)" d="M28,0h634.95" style="stroke: rgb(255, 255, 255); stroke-opacity: 1; stroke-width: 1px;"/><path class="y3grid crisp" transform="translate(0,481.485)" d="M28,0h634.95" style="stroke: rgb(255, 255, 255); stroke-opacity: 1; stroke-width: 1px;"/><path class="y3grid crisp" transform="translate(0,444.865)" d="M28,0h634.95" style="stroke: rgb(255, 255, 255); stroke-opacity: 1; stroke-width: 1px;"/><path class="y3grid crisp" transform="translate(0,408.245)" d="M28,0h634.95" style="stroke: rgb(255, 255, 255); stroke-opacity: 1; stroke-width: 1px;"/><path class="y3grid crisp" transform="translate(0,371.635)" d="M28,0h634.95" style="stroke: rgb(255, 255, 255); stroke-opacity: 1; stroke-width: 1px;"/></g></g><g class="zerolinelayer"/><path class="xlines-below"/><path class="ylines-below"/><g class="overlines-below"/><g class="xaxislayer-below"/><g class="yaxislayer-below"/><g class="overaxes-below"/><g class="plot" transform="translate(28,345.775)" clip-path="url(#clipeee934x3y3plot)"><g class="scatterlayer mlayer"><g class="trace scatter trace1a0d0f" style="stroke-miterlimit: 2; opacity: 1;"><g class="fills"/><g class="errorbars"/><g class="lines"><path class="js-line" d="M15.15,163.51L18.93,170L20.2,171.87L27.77,186.67L29.03,189.98L32.82,198.83L34.08,200.66L35.35,200.24L36.61,197.88L39.13,189.26L40.39,183.12L45.44,162.25L46.71,158.63L50.49,150.96L51.76,149.32L60.59,142.5L61.85,142.38L65.64,143.03L66.9,142.84L73.21,133.3L74.48,132.73L77,131.51L78.26,129.91L82.05,121.75L83.31,118.16L89.63,101.45L90.89,98.56L95.94,86.92L97.2,85.63L99.72,83.76L100.99,81.77L104.77,72.54L106.04,69.42L108.56,65.33L109.82,64.08L112.35,62.24L113.61,61.9L117.4,60.95L118.66,60.49L123.71,59.27L124.97,58.05L137.59,38.75L138.86,37.72L141.38,37.68L142.64,37.68L145.17,37.68L146.43,36.84L148.95,35.54L150.22,35.2L152.74,35.13L154,35.51L156.53,36.54L157.79,35.77L162.84,29.37L164.1,26.92L166.63,21.74L167.89,20.86L170.41,18.04L171.68,16.32L175.46,13.08L176.73,13.08L180.51,13.8L181.77,13.92L190.61,14.83L191.87,14.68L194.4,14.38L195.66,13.77L199.45,10.64L200.71,10.56L204.5,11.86L205.76,12.58L207.02,12.77L208.28,12.2L214.6,12.66L215.86,12.43L219.64,12.7L220.91,13.42L224.69,15.18L225.96,17.05L237.32,35.05L238.58,36.46L241.1,36.27L242.37,35.54L246.15,32.76L247.42,34.51L249.94,43.97L251.2,50.23L254.99,72.39L256.25,80.32L258.78,91.54L260.04,94.74L261.3,96.27L262.56,96.5L265.09,94.89L266.35,93.45L271.4,89.06L272.66,88.14L278.97,84.25L280.24,83.6L282.76,81.51L284.02,79.29L289.07,70.37L290.33,69L304.22,57.1L305.48,56.56L308.01,55.26L309.27,53.43L314.32,44.43L315.58,43.48L328.2,39.17L329.47,38.25L334.52,33.83L335.78,32.76L339.57,29.59L340.83,29.14L343.35,28.18L344.62,28.18L348.4,27.34L349.66,28.76L358.5,41.99L359.76,45.5L369.86,83.72L371.12,88.91L378.7,120.56L379.96,123.31L382.48,128.42L383.75,129.87L388.8,138.42L390.06,139.22L391.32,139.33L392.58,138.49L395.11,136.55L396.37,135.94L400.16,134.6L401.42,132.77L403.94,129.22L405.21,130.06L410.26,137.08L411.52,137.73L416.57,141.96L417.83,142.19L422.88,145.7L424.14,147.3L434.24,163.47L435.5,162.6L439.29,148.9L440.55,146.27L444.34,142.23L445.6,142.23L451.91,145.2L453.18,146.54L454.44,147.23L455.7,146.92L456.96,146.35L458.22,144.94L460.75,137.84L462.01,133.49L464.54,126.82L465.8,126.71L473.37,140.21L474.63,141.47L479.68,143.3L480.95,143.91L484.73,144.75L486,145.89L488.52,148.41L489.78,148.18L491.04,147.53L492.31,147.76L493.57,148.37L494.83,147.84L496.09,145.93L497.36,142.53L503.67,128.42L504.93,126.59L511.24,121.56L512.5,121.1L518.82,116.03L520.08,115L522.6,112.02L523.87,109.81L526.39,108.24L527.65,108.36L536.49,109.24L537.75,109.12L540.28,108.51L541.54,107.37L544.06,104.16L545.32,103.13L547.85,101.3L549.11,101.11L551.64,104.96L552.9,108.17L555.42,113.09L556.69,113.28L563,112.75L564.26,112.52L574.36,104.66L575.62,103.06L579.41,96.08L580.67,92.83L586.98,79.6L588.24,79.22L592.03,78.65L593.29,77.08L600.87,66.1L602.13,63.5L607.18,56.41L608.44,55.72L609.7,58.01L610.97,62.7L613.49,73.04L614.75,80.51L617.28,91.92L618.54,94.44L619.8,96.15" style="vector-effect: none; fill: none; stroke: rgb(221, 132, 82); stroke-opacity: 1; stroke-width: 2px; opacity: 1;"/></g><g class="points"/><g class="text"/></g></g></g><g class="overplot"/><path class="xlines-above crisp" d="M0,0" style="fill: none;"/><path class="ylines-above crisp" d="M0,0" style="fill: none;"/><g class="overlines-above"/><g class="xaxislayer-above"><g class="x3tick"><text text-anchor="middle" x="0" y="570" transform="translate(35.57,0)" style="font-family: 'Open Sans', verdana, arial, sans-serif; font-size: 12px; fill: rgb(36, 36, 36); fill-opacity: 1; white-space: pre; opacity: 1;"><tspan class="line" dy="0em" x="0" y="570">Mar 11</tspan><tspan class="line" dy="1.3em" x="0" y="570">2004</tspan></text></g><g class="x3tick"><text text-anchor="middle" x="0" y="570" style="font-family: 'Open Sans', verdana, arial, sans-serif; font-size: 12px; fill: rgb(36, 36, 36); fill-opacity: 1; white-space: pre; opacity: 1;" transform="translate(126.46,0)">Mar 14</text></g><g class="x3tick"><text text-anchor="middle" x="0" y="570" style="font-family: 'Open Sans', verdana, arial, sans-serif; font-size: 12px; fill: rgb(36, 36, 36); fill-opacity: 1; white-space: pre; opacity: 1;" transform="translate(217.35,0)">Mar 17</text></g><g class="x3tick"><text text-anchor="middle" x="0" y="570" style="font-family: 'Open Sans', verdana, arial, sans-serif; font-size: 12px; fill: rgb(36, 36, 36); fill-opacity: 1; white-space: pre; opacity: 1;" transform="translate(308.24,0)">Mar 20</text></g><g class="x3tick"><text text-anchor="middle" x="0" y="570" style="font-family: 'Open Sans', verdana, arial, sans-serif; font-size: 12px; fill: rgb(36, 36, 36); fill-opacity: 1; white-space: pre; opacity: 1;" transform="translate(399.12,0)">Mar 23</text></g><g class="x3tick"><text text-anchor="middle" x="0" y="570" style="font-family: 'Open Sans', verdana, arial, sans-serif; font-size: 12px; fill: rgb(36, 36, 36); fill-opacity: 1; white-space: pre; opacity: 1;" transform="translate(490.01,0)">Mar 26</text></g><g class="x3tick"><text text-anchor="middle" x="0" y="570" style="font-family: 'Open Sans', verdana, arial, sans-serif; font-size: 12px; fill: rgb(36, 36, 36); fill-opacity: 1; white-space: pre; opacity: 1;" transform="translate(580.9,0)">Mar 29</text></g></g><g class="yaxislayer-above"><g class="y3tick"><text text-anchor="end" x="27" y="4.199999999999999" transform="translate(0,554.7149999999999)" style="font-family: 'Open Sans', verdana, arial, sans-serif; font-size: 12px; fill: rgb(36, 36, 36); fill-opacity: 1; white-space: pre; opacity: 1;">8</text></g><g class="y3tick"><text text-anchor="end" x="27" y="4.199999999999999" style="font-family: 'Open Sans', verdana, arial, sans-serif; font-size: 12px; fill: rgb(36, 36, 36); fill-opacity: 1; white-space: pre; opacity: 1;" transform="translate(0,518.095)">10</text></g><g class="y3tick"><text text-anchor="end" x="27" y="4.199999999999999" style="font-family: 'Open Sans', verdana, arial, sans-serif; font-size: 12px; fill: rgb(36, 36, 36); fill-opacity: 1; white-space: pre; opacity: 1;" transform="translate(0,481.485)">12</text></g><g class="y3tick"><text text-anchor="end" x="27" y="4.199999999999999" style="font-family: 'Open Sans', verdana, arial, sans-serif; font-size: 12px; fill: rgb(36, 36, 36); fill-opacity: 1; white-space: pre; opacity: 1;" transform="translate(0,444.865)">14</text></g><g class="y3tick"><text text-anchor="end" x="27" y="4.199999999999999" style="font-family: 'Open Sans', verdana, arial, sans-serif; font-size: 12px; fill: rgb(36, 36, 36); fill-opacity: 1; white-space: pre; opacity: 1;" transform="translate(0,408.245)">16</text></g><g class="y3tick"><text text-anchor="end" x="27" y="4.199999999999999" style="font-family: 'Open Sans', verdana, arial, sans-serif; font-size: 12px; fill: rgb(36, 36, 36); fill-opacity: 1; white-space: pre; opacity: 1;" transform="translate(0,371.635)">18</text></g></g><g class="overaxes-above"/></g><g class="subplot x4y4"><g class="layer-subplot"><g class="shapelayer"/><g class="imagelayer"/></g><g class="minor-gridlayer"><g class="x4"/><g class="y4"/></g><g class="gridlayer"><g class="x4"><path class="x4grid crisp" transform="translate(811.6200000000001,0)" d="M0,345.775v211.225" style="stroke: rgb(255, 255, 255); stroke-opacity: 1; stroke-width: 1px;"/><path class="x4grid crisp" transform="translate(902.5100000000001,0)" d="M0,345.775v211.225" style="stroke: rgb(255, 255, 255); stroke-opacity: 1; stroke-width: 1px;"/><path class="x4grid crisp" transform="translate(993.4000000000001,0)" d="M0,345.775v211.225" style="stroke: rgb(255, 255, 255); stroke-opacity: 1; stroke-width: 1px;"/><path class="x4grid crisp" transform="translate(1084.29,0)" d="M0,345.775v211.225" style="stroke: rgb(255, 255, 255); stroke-opacity: 1; stroke-width: 1px;"/><path class="x4grid crisp" transform="translate(1175.17,0)" d="M0,345.775v211.225" style="stroke: rgb(255, 255, 255); stroke-opacity: 1; stroke-width: 1px;"/><path class="x4grid crisp" transform="translate(1266.06,0)" d="M0,345.775v211.225" style="stroke: rgb(255, 255, 255); stroke-opacity: 1; stroke-width: 1px;"/><path class="x4grid crisp" transform="translate(1356.95,0)" d="M0,345.775v211.225" style="stroke: rgb(255, 255, 255); stroke-opacity: 1; stroke-width: 1px;"/></g><g class="y4"><path class="y4grid crisp" transform="translate(0,527.295)" d="M804.0500000000001,0h634.9499999999999" style="stroke: rgb(255, 255, 255); stroke-opacity: 1; stroke-width: 1px;"/><path class="y4grid crisp" transform="translate(0,374.655)" d="M804.0500000000001,0h634.9499999999999" style="stroke: rgb(255, 255, 255); stroke-opacity: 1; stroke-width: 1px;"/></g></g><g class="zerolinelayer"><path class="y4zl zl crisp" transform="translate(0,450.97499999999997)" d="M804.0500000000001,0h634.9499999999999" style="stroke: rgb(255, 255, 255); stroke-opacity: 1; stroke-width: 1px;"/></g><path class="xlines-below"/><path class="ylines-below"/><g class="overlines-below"/><g class="xaxislayer-below"/><g class="yaxislayer-below"/><g class="overaxes-below"/><g class="plot" transform="translate(804.0500000000001,345.775)" clip-path="url(#clipeee934x4y4plot)"><g class="scatterlayer mlayer"><g class="trace scatter tracedbca82" style="stroke-miterlimit: 2; opacity: 1;"><g class="fills"/><g class="errorbars"/><g class="lines"><path class="js-line" d="M15.15,44.58L16.41,42.16L17.67,44.23L23.98,197.03L25.25,197.7L26.51,187.74L27.77,164.38L29.03,154.77L30.3,121.83L32.82,96.53L34.08,91.15L35.35,95.01L36.61,88.09L37.87,83.19L39.13,93.51L40.39,101.16L41.66,99.66L42.92,112.67L44.18,115.03L45.44,102.11L46.71,106.43L47.97,108.33L49.23,106.17L50.49,80.49L51.76,93.1L53.02,107.81L54.28,104.17L55.54,100.29L56.8,105.54L58.07,104.88L59.33,85.22L60.59,90.83L61.85,82.03L63.12,92.94L64.38,93.54L65.64,99.97L66.9,111.08L68.17,109.29L69.43,114.46L70.69,114.01L71.95,122.58L73.21,131.08L74.48,112.9L77,130.57L78.26,141.95L79.53,121.37L80.79,114.32L83.31,81.04L84.58,81.24L85.84,103.73L87.1,96.83L89.63,123.26L90.89,112.2L93.41,92.65L94.67,89.79L95.94,91.79L97.2,82.46L98.46,89.04L99.72,76.14L100.99,103.23L102.25,111.1L103.51,100.96L104.77,114.24L106.04,106.25L107.3,121.73L108.56,117.94L109.82,131.61L111.08,134.07L112.35,126.02L116.13,92.85L117.4,82.64L118.66,78.77L119.92,87.38L121.18,89.24L122.45,89.72L123.71,90.78L124.97,94.05L126.23,91.6L127.49,108.98L128.76,102.9L130.02,113.57L132.54,123.32L133.81,124.3L135.07,133.1L136.33,133.34L138.86,128.75L140.12,117.17L142.64,102.23L143.91,93.15L146.43,75.39L147.69,65.35L148.95,65.99L150.22,70.12L151.48,67.55L152.74,79.86L155.27,112.24L156.53,117.01L157.79,114.86L159.05,128.12L161.58,110.38L162.84,122.08L164.1,138.87L165.36,134.97L166.63,152.1L167.89,151.08L169.15,154.45L170.41,151.67L174.2,76.4L175.46,75.65L176.73,66.2L177.99,44.33L179.25,26.3L180.51,23.85L183.04,83.68L184.3,85.18L189.35,122.87L190.61,119.87L193.14,141.92L194.4,143.23L195.66,158.67L196.92,148.86L198.19,175.79L199.45,171.17L204.5,79.61L205.76,71.48L207.02,64.93L208.28,48.49L209.55,10.56L210.81,17.17L213.33,57.03L214.6,85.37L215.86,95.45L217.12,114.31L220.91,139.36L222.17,124.44L223.43,129.96L224.69,159.35L225.96,152.88L227.22,158.81L229.74,154.89L231.01,135.39L234.79,71.05L236.05,75.61L237.32,57.05L238.58,25.21L239.84,23.79L241.1,38.7L247.42,137.01L248.68,146.25L249.94,152.07L251.2,145.31L253.73,109.86L254.99,100.96L258.78,70.78L260.04,72.05L261.3,86.45L262.56,115.21L265.09,144.7L266.35,149.07L268.88,141.44L270.14,147.24L271.4,144.28L272.66,125.46L275.19,101.65L276.45,93.79L278.97,91.23L280.24,91.55L285.29,74.38L286.55,80.69L287.81,73.46L289.07,71.64L291.6,94.84L292.86,123.13L295.38,158.03L296.65,159.12L297.91,129.23L299.17,119.41L301.7,122.4L302.96,109.62L304.22,107.34L305.48,100.67L306.75,100.31L308.01,93.77L310.53,89.8L311.79,98.05L313.06,85.74L314.32,85.09L315.58,77.75L316.84,86.92L318.11,84.05L319.37,83.95L321.89,106.04L323.16,124.88L324.42,113.65L325.68,130.84L328.2,111.61L329.47,112.25L331.99,136.23L333.25,128.45L335.78,108.3L337.04,105.53L338.3,102.57L339.57,103.22L340.83,101.85L342.09,104.03L344.62,72.69L345.88,80.17L347.14,75.83L348.4,68.05L349.66,72.75L350.93,82.8L352.19,81.46L353.45,105.45L354.71,122.74L355.98,107.78L357.24,114.22L358.5,110.79L361.03,101.22L362.29,108.34L363.55,129.94L364.81,127.69L366.07,116.85L367.34,113.76L368.6,108.84L369.86,87.1L371.12,87.13L372.39,76.11L373.65,80.68L374.91,99.18L376.17,102.59L377.44,118.56L379.96,83.98L381.22,91.58L382.48,96.28L383.75,116.39L386.27,148.49L387.53,148.25L388.8,111.3L390.06,136.45L391.32,168.74L392.58,139.7L393.85,116.59L395.11,128.1L396.37,119.97L397.63,92.01L398.9,90.97L400.16,98.1L401.42,91.77L402.68,95.06L403.94,81.98L405.21,83.92L406.47,83.28L407.73,72.42L408.99,63.31L410.26,63.34L411.52,66.74L412.78,87.56L414.04,106.02L415.31,87.48L416.57,103.94L417.83,96.22L419.09,98.35L420.35,175.02L421.62,200.66L422.88,162.69L424.14,153.98L425.4,132.65L426.67,117.97L427.93,112.56L429.19,103.78L430.45,88.24L431.72,81.5L432.98,66.25L434.24,87.01L435.5,73.58L436.76,75.62L438.03,71.95L439.29,101.03L440.55,90.78L441.81,96.16L443.08,123.69L445.6,149.39L446.86,133.86L448.13,136.38L449.39,134.26L451.91,76.83L453.18,79.56L454.44,89.94L455.7,93.51L456.96,94.5L458.22,90.3L459.49,106.93L460.75,112.19L462.01,114.07L463.27,112.81L464.54,112.99L465.8,123.35L467.06,119.38L468.32,122.86L472.11,84.58L473.37,86.45L474.63,63.98L475.9,61.21L477.16,49.05L478.42,62.48L480.95,131.01L482.21,143.26L483.47,125.7L484.73,134.74L486,140.16L487.26,133.33L491.04,104.11L492.31,105.22L493.57,113.86L494.83,115.31L496.09,111.9L497.36,117.28L498.62,108.87L499.88,130.89L501.14,114.89L502.41,130.5L504.93,65.7L506.19,59.62L507.46,88L508.72,78.44L509.98,98.93L511.24,94.7L512.5,81.67L513.77,101.5L516.29,97.32L517.55,103.28L518.82,109.82L520.08,111.13L521.34,116.83L522.6,112.13L526.39,138.74L527.65,132.03L528.91,113.19L530.18,133.02L531.44,132.54L532.7,110.27L533.96,92.24L535.23,60.1L537.75,44.31L539.01,58.19L540.28,96.54L541.54,103.47L542.8,102.31L544.06,116.42L545.32,116.01L546.59,120.25L547.85,119.84L549.11,125.31L551.64,115.18L552.9,119.92L555.42,109.17L556.69,105.54L557.95,82.14L559.21,101.58L560.47,95.72L561.74,118.67L563,89.1L564.26,100.38L566.78,105.51L568.05,117.39L569.31,115.52L570.57,107.93L571.83,100.71L573.1,104.88L574.36,116L575.62,108.44L578.15,125.06L579.41,117.29L580.67,103.66L581.93,113.69L583.19,98.9L584.46,121.65L585.72,134.33L586.98,109.2L589.51,87.43L590.77,102.78L594.56,62.69L595.82,72.92L597.08,96.16L598.34,83.87L599.6,73.32L600.87,96.8L603.39,140.37L604.65,148.54L605.92,150.33L607.18,130.81L608.44,119.68L609.7,120.03L612.23,94.54L613.49,85.09L616.02,63.32L617.28,60.76L618.54,49L619.8,47.24" style="vector-effect: none; fill: none; stroke: rgb(196, 78, 82); stroke-opacity: 1; stroke-width: 2px; opacity: 1;"/></g><g class="points"/><g class="text"/></g></g></g><g class="overplot"/><path class="xlines-above crisp" d="M0,0" style="fill: none;"/><path class="ylines-above crisp" d="M0,0" style="fill: none;"/><g class="overlines-above"/><g class="xaxislayer-above"><g class="x4tick"><text text-anchor="middle" x="0" y="570" transform="translate(811.6200000000001,0)" style="font-family: 'Open Sans', verdana, arial, sans-serif; font-size: 12px; fill: rgb(36, 36, 36); fill-opacity: 1; white-space: pre; opacity: 1;"><tspan class="line" dy="0em" x="0" y="570">Mar 11</tspan><tspan class="line" dy="1.3em" x="0" y="570">2004</tspan></text></g><g class="x4tick"><text text-anchor="middle" x="0" y="570" style="font-family: 'Open Sans', verdana, arial, sans-serif; font-size: 12px; fill: rgb(36, 36, 36); fill-opacity: 1; white-space: pre; opacity: 1;" transform="translate(902.5100000000001,0)">Mar 14</text></g><g class="x4tick"><text text-anchor="middle" x="0" y="570" style="font-family: 'Open Sans', verdana, arial, sans-serif; font-size: 12px; fill: rgb(36, 36, 36); fill-opacity: 1; white-space: pre; opacity: 1;" transform="translate(993.4000000000001,0)">Mar 17</text></g><g class="x4tick"><text text-anchor="middle" x="0" y="570" style="font-family: 'Open Sans', verdana, arial, sans-serif; font-size: 12px; fill: rgb(36, 36, 36); fill-opacity: 1; white-space: pre; opacity: 1;" transform="translate(1084.29,0)">Mar 20</text></g><g class="x4tick"><text text-anchor="middle" x="0" y="570" style="font-family: 'Open Sans', verdana, arial, sans-serif; font-size: 12px; fill: rgb(36, 36, 36); fill-opacity: 1; white-space: pre; opacity: 1;" transform="translate(1175.17,0)">Mar 23</text></g><g class="x4tick"><text text-anchor="middle" x="0" y="570" style="font-family: 'Open Sans', verdana, arial, sans-serif; font-size: 12px; fill: rgb(36, 36, 36); fill-opacity: 1; white-space: pre; opacity: 1;" transform="translate(1266.06,0)">Mar 26</text></g><g class="x4tick"><text text-anchor="middle" x="0" y="570" style="font-family: 'Open Sans', verdana, arial, sans-serif; font-size: 12px; fill: rgb(36, 36, 36); fill-opacity: 1; white-space: pre; opacity: 1;" transform="translate(1356.95,0)">Mar 29</text></g></g><g class="yaxislayer-above"><g class="y4tick"><text text-anchor="end" x="803.0500000000001" y="4.199999999999999" transform="translate(0,527.295)" style="font-family: 'Open Sans', verdana, arial, sans-serif; font-size: 12px; fill: rgb(36, 36, 36); fill-opacity: 1; white-space: pre; opacity: 1;">−5</text></g><g class="y4tick"><text text-anchor="end" x="803.0500000000001" y="4.199999999999999" style="font-family: 'Open Sans', verdana, arial, sans-serif; font-size: 12px; fill: rgb(36, 36, 36); fill-opacity: 1; white-space: pre; opacity: 1;" transform="translate(0,450.97499999999997)">0</text></g><g class="y4tick"><text text-anchor="end" x="803.0500000000001" y="4.199999999999999" style="font-family: 'Open Sans', verdana, arial, sans-serif; font-size: 12px; fill: rgb(36, 36, 36); fill-opacity: 1; white-space: pre; opacity: 1;" transform="translate(0,374.655)">5</text></g></g><g class="overaxes-above"/></g></g><g class="polarlayer"/><g class="smithlayer"/><g class="ternarylayer"/><g class="geolayer"/><g class="funnelarealayer"/><g class="pielayer"/><g class="iciclelayer"/><g class="treemaplayer"/><g class="sunburstlayer"/><g class="glimages"/><defs id="topdefs-eee934"><g class="clips"/><clipPath id="legendeee934"><rect width="121" height="86" x="0" y="0"/></clipPath></defs><g class="layer-above"><g class="imagelayer"/><g class="shapelayer"/></g><g class="infolayer"><g class="legend" pointer-events="all" transform="translate(1467.22,60)"><rect class="bg" shape-rendering="crispEdges" style="stroke: rgb(68, 68, 68); stroke-opacity: 1; fill: rgb(255, 255, 255); fill-opacity: 1; stroke-width: 0px;" width="121" height="86" x="0" y="0"/><g class="scrollbox" transform="" clip-path="url(#legendeee934)"><g class="groups"><g class="traces" transform="translate(0,14.5)" style="opacity: 1;"><text class="legendtext" text-anchor="start" x="40" y="4.680000000000001" style="font-family: 'Open Sans', verdana, arial, sans-serif; font-size: 12px; fill: rgb(36, 36, 36); fill-opacity: 1; white-space: pre;">temperature</text><g class="layers" style="opacity: 1;"><g class="legendfill"/><g class="legendlines"><path class="js-line" d="M5,0h30" style="fill: none; stroke: rgb(76, 114, 176); stroke-opacity: 1; stroke-width: 2px;"/></g><g class="legendsymbols"><g class="legendpoints"/></g></g><rect class="legendtoggle" x="0" y="-9.5" width="115.09375" height="19" style="fill: rgb(0, 0, 0); fill-opacity: 0;"/></g><g class="traces" transform="translate(0,33.5)" style="opacity: 1;"><text class="legendtext" text-anchor="start" x="40" y="4.680000000000001" style="font-family: 'Open Sans', verdana, arial, sans-serif; font-size: 12px; fill: rgb(36, 36, 36); fill-opacity: 1; white-space: pre;">trend</text><g class="layers" style="opacity: 1;"><g class="legendfill"/><g class="legendlines"><path class="js-line" d="M5,0h30" style="fill: none; stroke: rgb(221, 132, 82); stroke-opacity: 1; stroke-width: 2px;"/></g><g class="legendsymbols"><g class="legendpoints"/></g></g><rect class="legendtoggle" x="0" y="-9.5" width="115.09375" height="19" style="fill: rgb(0, 0, 0); fill-opacity: 0;"/></g><g class="traces" transform="translate(0,52.5)" style="opacity: 1;"><text class="legendtext" text-anchor="start" x="40" y="4.680000000000001" style="font-family: 'Open Sans', verdana, arial, sans-serif; font-size: 12px; fill: rgb(36, 36, 36); fill-opacity: 1; white-space: pre;">seasonal</text><g class="layers" style="opacity: 1;"><g class="legendfill"/><g class="legendlines"><path class="js-line" d="M5,0h30" style="fill: none; stroke: rgb(85, 168, 104); stroke-opacity: 1; stroke-width: 2px;"/></g><g class="legendsymbols"><g class="legendpoints"/></g></g><rect class="legendtoggle" x="0" y="-9.5" width="115.09375" height="19" style="fill: rgb(0, 0, 0); fill-opacity: 0;"/></g><g class="traces" transform="translate(0,71.5)" style="opacity: 1;"><text class="legendtext" text-anchor="start" x="40" y="4.680000000000001" style="font-family: 'Open Sans', verdana, arial, sans-serif; font-size: 12px; fill: rgb(36, 36, 36); fill-opacity: 1; white-space: pre;">residuals</text><g class="layers" style="opacity: 1;"><g class="legendfill"/><g class="legendlines"><path class="js-line" d="M5,0h30" style="fill: none; stroke: rgb(196, 78, 82); stroke-opacity: 1; stroke-width: 2px;"/></g><g class="legendsymbols"><g class="legendpoints"/></g></g><rect class="legendtoggle" x="0" y="-9.5" width="115.09375" height="19" style="fill: rgb(0, 0, 0); fill-opacity: 0;"/></g></g></g><rect class="scrollbar" rx="20" ry="3" width="0" height="0" style="fill: rgb(128, 139, 164); fill-opacity: 1;" x="0" y="0"/></g><g class="g-gtitle"><text class="gtitle" x="800" y="30" text-anchor="middle" dy="0em" style="font-family: 'Open Sans', verdana, arial, sans-serif; font-size: 17px; fill: rgb(36, 36, 36); opacity: 1; font-weight: normal; white-space: pre;">Additive decomposition of temperature</text></g><g class="g-xtitle"/><g class="g-x2title"/><g class="g-x3title"/><g class="g-x4title"/><g class="g-ytitle"/><g class="g-y2title"/><g class="g-y3title"/><g class="g-y4title"/></g></svg>