<svg class="main-svg" xmlns="http://www.w3.org/2000/svg" xmlns:xlink="http://www.w3.org/1999/xlink" width="1200" height="600" style="" viewBox="0 0 1200 600"><rect x="0" y="0" width="1200" height="600" style="fill: rgb(255, 255, 255); fill-opacity: 1;"/><defs id="defs-ac7088"><g class="clips"><clipPath id="clipac7088xyplot" class="plotclip"><rect width="1152" height="512"/></clipPath><clipPath class="axesclip" id="clipac7088x"><rect x="28" y="0" width="1152" height="600"/></clipPath><clipPath class="axesclip" id="clipac7088y"><rect x="0" y="60" width="1200" height="512"/></clipPath><clipPath class="axesclip" id="clipac7088xy"><rect x="28" y="60" width="1152" height="512"/></clipPath></g><g class="gradients"/><g class="patterns"/></defs><g class="bglayer"><rect class="bg" x="28" y="60" width="1152" height="512" style="fill: rgb(229, 236, 246); fill-opacity: 1; stroke-width: 0;"/></g><g class="layer-below"><g class="imagelayer"/><g class="shapelayer"/></g><g class="cartesianlayer"><g class="subplot xy"><g class="layer-subplot"><g class="shapelayer"/><g class="imagelayer"/></g><g class="minor-gridlayer"><g class="x"/><g class="y"/></g><g class="gridlayer"><g class="x"><path class="xgrid crisp" transform="translate(151.13,0)" d="M0,60v512" style="stroke: rgb(255, 255, 255); stroke-opacity: 1; stroke-width: 1px;"/><path class="xgrid crisp" transform="translate(274.26,0)" d="M0,60v512" style="stroke: rgb(255, 255, 255); stroke-opacity: 1; stroke-width: 1px;"/><path class="xgrid crisp" transform="translate(397.39,0)" d="M0,60v512" style="stroke: rgb(255, 255, 255); stroke-opacity: 1; stroke-width: 1px;"/><path class="xgrid crisp" transform="translate(520.52,0)" d="M0,60v512" style="stroke: rgb(255, 255, 255); stroke-opacity: 1; stroke-width: 1px;"/><path class="xgrid crisp" transform="translate(643.65,0)" d="M0,60v512" style="stroke: rgb(255, 255, 255); stroke-opacity: 1; stroke-width: 1px;"/><path class="xgrid crisp" transform="translate(766.78,0)" d="M0,60v512" style="stroke: rgb(255, 255, 255); stroke-opacity: 1; stroke-width: 1px;"/><path class="xgrid crisp" transform="translate(889.91,0)" d="M0,60v512" style="stroke: rgb(255, 255, 255); stroke-opacity: 1; stroke-width: 1px;"/><path class="xgrid crisp" transform="translate(1013.04,0)" d="M0,60v512" style="stroke: rgb(255, 255, 255); stroke-opacity: 1; stroke-width: 1px;"/><path class="xgrid crisp" transform="translate(1136.17,0)" d="M0,60v512" style="stroke: rgb(255, 255, 255); stroke-opacity: 1; stroke-width: 1px;"/></g><g class="y"><path class="ygrid crisp" transform="translate(0,428.47)" d="M28,0h1152" style="stroke: rgb(255, 255, 255); stroke-opacity: 1; stroke-width: 1px;"/><path class="ygrid crisp" transform="translate(0,329.38)" d="M28,0h1152" style="stroke: rgb(255, 255, 255); stroke-opacity: 1; stroke-width: 1px;"/><path class="ygrid crisp" transform="translate(0,230.28)" d="M28,0h1152" style="stroke: rgb(255, 255, 255); stroke-opacity: 1; stroke-width: 1px;"/><path class="ygrid crisp" transform="translate(0,131.18)" d="M28,0h1152" style="stroke: rgb(255, 255, 255); stroke-opacity: 1; stroke-width: 1px;"/></g></g><g class="zerolinelayer"><path class="xzl zl crisp" transform="translate(28,0)" d="M0,60v512" style="stroke: rgb(255, 255, 255); stroke-opacity: 1; stroke-width: 2px;"/><path class="yzl zl crisp" transform="translate(0,527.5699999999999)" d="M28,0h1152" style="stroke: rgb(255, 255, 255); stroke-opacity: 1; stroke-width: 2px;"/></g><path class="xlines-below"/><path class="ylines-below"/><g class="overlines-below"/><g class="xaxislayer-below"/><g class="yaxislayer-below"/><g class="overaxes-below"/><g class="plot" transform="translate(28,60)" clip-path="url(#clipac7088xyplot)"><g class="scatterlayer mlayer"><g class="trace scatter trace2eff1a" style="stroke-miterlimit: 2; opacity: 1;"><g class="fills"/><g class="errorbars"/><g class="lines"><path class="js-line" d="M0,332.8L1.23,367.48L1.35,358.57L2.46,388.29L2.59,385.32L2.71,371.45L2.96,365.5L3.08,371.45L3.32,377.39L3.45,386.31L3.69,385.32L3.82,391.27L4.19,407.12L4.56,404.15L4.68,395.23L5.79,300.1L5.91,317.94L7.51,405.14L7.63,403.16L7.76,372.44L8.25,275.32L8.74,302.08L8.87,308.03L9.85,343.7L9.97,352.62L10.1,347.66L10.22,353.61L10.34,352.62L10.47,364.51L11.57,247.58L11.7,256.5L11.82,272.35L13.3,354.6L13.42,355.59L14.53,225.78L14.78,244.6L14.9,265.41L16.01,345.68L16.13,340.73L16.38,358.57L16.62,332.8L16.75,291.18L17.48,188.12L17.61,190.1L17.73,230.73L18.96,341.72L19.09,350.64L19.21,349.65L19.33,369.47L19.82,258.48L19.95,226.77L20.44,177.22L20.69,210.91L20.81,238.66L21.92,352.62L22.04,348.66L22.16,359.56L22.29,362.53L22.41,353.61L22.53,325.86L23.39,199.02L23.52,211.9L23.64,239.65L24.5,349.65L24.87,345.68L25,343.7L25.12,345.68L25.36,338.75L25.49,332.8L26.23,305.05L26.6,311L26.72,313.97L27.09,321.9L27.21,326.85L28.07,332.8L28.2,333.79L28.94,298.12L29.06,279.29L29.3,274.33L29.55,284.24L29.67,295.14L31.15,326.85L31.27,323.88L31.4,315.95L32.01,255.5L32.38,275.32L32.51,284.24L33.37,311L33.49,306.04L33.61,300.1L34.11,311.99L34.23,311L34.35,295.14L35.22,256.5L35.34,267.4L36.2,330.82L36.32,328.84L36.45,338.75L36.82,380.37L37.19,368.47L37.31,356.58L37.92,309.02L38.05,327.85L38.17,348.66L38.42,331.81L38.66,353.61L38.91,348.66L39.03,358.57L39.28,360.55L39.4,355.59L39.52,362.53L39.65,366.49L40.14,358.57L40.26,356.58L40.76,300.1L40.88,303.07L41,355.59L41.13,372.44L41.25,351.63L41.74,365.5L41.86,367.48L42.23,358.57L42.36,377.39L42.73,369.47L42.85,392.26L43.46,358.57L43.59,332.8L44.08,292.17L44.2,298.12L44.33,319.92L45.56,388.29L45.68,391.27L46.05,370.46L46.17,356.58L46.54,277.31L46.91,326.85L47.04,334.78L47.16,326.85L47.28,347.66L47.4,364.51L48.76,405.14L49.01,396.22L49.13,357.57L49.62,278.3L49.99,282.26L50.11,298.12L51.71,391.27L51.84,394.24L52.45,256.5L52.95,287.22L53.07,299.11L54.3,367.48L54.42,355.59L54.79,387.3L55.04,350.64L55.16,329.83L55.78,287.22L56.02,299.11L56.15,308.03L57.13,363.52L57.26,351.63L57.62,355.59L57.87,335.77L57.99,306.04L58.49,245.59L58.86,288.21L58.98,296.13L59.84,320.91L59.96,320.91L60.83,336.76L60.95,364.51L61.81,311.99L62.06,313.97L62.18,325.86L63.17,378.38L63.29,366.49L63.41,358.57L63.66,373.43L63.78,349.65L63.9,307.03L64.89,233.7L65.01,241.63L66.24,356.58L66.37,355.59L66.49,354.6L66.86,332.8L66.98,300.1L67.72,194.06L67.97,226.77L68.09,257.49L69.32,331.81L69.45,329.83L69.57,335.77L69.69,317.94L69.81,299.11L70.68,211.9L70.8,218.84L70.92,232.71L72.4,339.74L72.52,331.81L73.51,208.93L73.63,225.78L73.75,239.65L74.62,321.9L74.99,313.97L75.11,309.02L75.36,339.74L75.85,312.98L75.97,303.07L76.34,274.33L76.46,253.52L76.59,247.58L76.71,266.41L76.83,272.35L78.06,327.85L78.31,324.87L78.43,315.95L79.05,260.46L79.3,276.31L79.42,283.25L79.54,281.27L79.66,294.15L80.65,312.98L80.77,312.98L80.9,308.03L81.14,315.95L81.27,326.85L81.51,318.93L81.63,332.8L82.13,288.21L82.25,324.87L82.37,359.56L82.62,289.2L82.99,368.47L83.11,370.46L83.85,392.26L84.22,387.3L84.34,387.3L85.58,254.51L85.7,276.31L86.81,327.85L86.93,327.85L89.15,327.85L89.27,348.66L90.01,366.49L90.25,358.57L90.38,344.69L91.36,248.57L91.49,258.48L91.61,286.22L92.84,390.28L92.96,391.27L93.09,394.24L93.21,386.31L93.33,381.36L93.82,242.62L94.32,259.47L94.44,273.34L95.3,331.81L95.43,327.85L95.55,322.89L96.78,347.66L96.9,356.58L97.15,354.6L97.27,369.47L97.76,362.53L97.89,362.53L98.01,365.5L98.26,361.54L98.63,362.53L98.75,357.57L99,368.47L99.24,348.66L99.37,340.73L99.49,342.71L99.61,330.82L99.98,303.07L100.47,315.95L100.6,321.9L101.83,366.49L101.95,365.5L102.07,360.55L102.94,255.5L103.18,265.41L103.31,282.26L103.55,290.19L103.68,304.06L104.91,377.39L105.03,366.49L106.01,254.51L106.26,273.34L106.38,286.22L107.74,352.62L107.86,351.63L107.98,340.73L108.6,277.31L108.72,311.99L108.85,323.88L109.09,322.89L109.59,330.82L109.71,333.79L110.45,344.69L110.57,342.71L110.69,340.73L110.94,343.7L111.06,340.73L111.19,333.79L111.92,272.35L112.17,290.19L112.29,300.1L112.79,299.11L113.16,309.02L113.28,312.98L113.77,330.82L114.14,326.85L114.26,323.88L115.25,294.15L115.37,299.11L115.5,305.05L116.48,338.75L116.6,325.86L116.73,328.84L117.22,274.33L117.59,304.06L117.71,347.66L118.45,369.47L118.57,360.55L118.7,366.49L119.19,373.43L119.44,370.46L119.56,368.47L119.93,345.68L120.05,323.88L120.91,210.91L121.04,211.9L121.16,243.61L122.27,359.56L122.39,355.59L122.51,367.48L122.64,366.49L122.76,350.64L123.87,197.04L123.99,211.9L124.11,216.86L125.59,346.67L125.72,329.83L125.84,316.94L126.82,157.4L126.95,176.23L127.07,211.9L128.3,327.85L128.42,326.85L128.55,325.86L128.67,328.84L128.79,314.96L128.92,278.3L129.66,170.28L129.78,175.24L129.9,200.01L131.13,311.99L131.26,300.1L131.5,328.84L131.75,302.08L131.87,269.38L132.24,198.03L132.73,200.01L132.86,195.06L133.6,353.61L134.21,343.7L134.33,343.7L134.83,317.94L134.95,303.07L135.69,267.4L135.94,284.24L136.06,291.18L137.04,328.84L137.17,327.85L137.29,329.83L137.54,324.87L137.66,318.93L138.52,262.44L138.64,269.38L138.77,283.25L140.37,324.87L140.49,310.01L141.23,188.12L141.72,200.01L141.85,224.78L143.32,329.83L143.45,318.93L143.57,308.03L144.55,186.14L144.68,197.04L144.8,226.77L146.28,339.74L146.4,320.91L146.52,308.03L147.02,213.88L147.39,252.53L147.51,255.5L148.99,314.96L149.23,310.01L149.36,303.07L149.85,309.02L150.34,242.62L150.46,260.46L150.59,259.47L150.71,261.45L150.83,271.36L151.82,311.99L152.06,302.08L152.19,302.08L152.43,292.17L152.56,275.32L153.3,208.93L153.42,214.87L153.54,232.71L155.14,337.75L155.27,325.86L156.37,210.91L156.5,224.78L156.62,243.61L157.73,312.98L157.85,309.02L157.98,311L158.47,295.14L158.59,255.5L159.21,161.36L159.45,205.96L159.58,220.82L160.81,312.98L160.93,311.99L161.42,292.17L161.55,266.41L161.79,254.51L162.16,270.37L162.28,270.37L162.78,308.03L162.9,303.07L163.02,284.24L163.39,279.29L164.01,323.88L164.13,317.94L164.25,305.05L164.5,306.04L164.62,297.13L164.87,301.09L165.36,292.17L165.49,298.12L165.61,294.15L165.73,310.01L165.86,317.94L166.35,348.66L166.72,337.75L166.84,336.76L166.96,337.75L167.09,321.9L167.46,267.4L167.58,284.24L167.7,338.75L168.07,345.68L168.44,312.98L168.56,318.93L168.69,331.81L168.81,345.68L168.93,314.96L169.43,331.81L169.55,329.83L170.04,319.92L170.17,305.05L170.29,309.02L170.41,283.25L170.66,257.49L171.03,277.31L171.15,326.85L171.4,341.72L171.89,334.78L172.01,335.77L172.38,322.89L172.5,325.86L172.63,359.56L172.75,394.24L173.24,332.8L173.37,321.9L173.61,335.77L173.86,306.04L173.98,269.38L174.23,271.36L174.35,291.18L175.46,347.66L175.58,345.68L175.71,349.65L175.83,355.59L175.95,337.75L176.08,301.09L176.57,276.31L176.69,321.9L177.31,291.18L177.43,305.05L177.55,312.98L178.41,330.82L178.54,326.85L178.78,334.78L178.91,321.9L180.02,217.85L180.14,235.69L180.26,259.47L181.49,354.6L181.62,348.66L181.74,355.59L181.86,341.72L181.99,323.88L182.85,204.97L183.09,206.95L183.22,225.78L184.57,328.84L184.69,323.88L184.82,313.97L185.43,250.55L185.68,295.14L185.8,298.12L186.05,292.17L186.29,293.16L186.42,302.08L186.54,301.09L186.66,308.03L186.79,313.97L187.03,305.05L187.28,309.02L187.4,307.03L187.65,310.01L187.9,309.02L188.02,303.07L189.13,266.41L189.25,271.36L190.36,313.97L190.48,309.02L190.6,297.13L191.71,186.14L191.96,194.06L192.08,217.85L193.07,295.14L193.19,320.91L193.31,322.89L193.44,311.99L193.56,315.95L193.68,309.02L193.81,293.16L194.67,188.12L194.91,209.92L195.04,231.72L196.39,333.79L196.64,330.82L196.76,306.04L197.62,155.42L197.87,166.32L197.99,201.99L199.35,311L199.47,309.02L199.59,293.16L200.82,202.98L200.95,226.77L201.93,269.38L202.06,257.49L202.3,299.11L202.79,266.41L202.92,216.86L203.53,148.48L203.78,161.36L203.9,195.06L205.13,306.04L205.38,305.05L205.5,305.05L206.49,154.43L206.73,182.17L206.86,205.96L207.72,289.2L207.97,271.36L208.09,273.34L208.34,311L208.7,262.44L208.83,208.93L209.57,144.52L209.69,158.39L209.81,193.07L211.29,319.92L211.41,305.05L212.4,142.53L212.64,168.3L212.77,194.06L214.12,311L214.25,304.06L214.37,297.13L215.35,178.21L215.48,181.18L215.6,215.87L215.85,224.78L215.97,246.59L217.08,292.17L217.2,290.19L217.32,280.28L218.19,182.17L218.43,210.91L218.55,211.9L219.79,311.99L220.16,304.06L220.28,294.15L221.26,211.9L221.51,224.78L221.63,243.61L222.99,352.62L223.11,334.78L223.23,316.94L223.48,277.31L223.6,220.82L224.22,144.52L224.47,149.47L224.59,173.25L226.31,173.25L226.44,265.41L227.05,147.49L227.3,152.44L227.42,160.37L228.9,313.97L229.02,309.02L230.25,157.4L230.38,176.23L230.5,200.01L231.98,319.92L232.1,306.04L232.22,285.23L233.08,174.25L233.21,190.1L233.33,233.7L234.32,284.24L234.44,289.2L234.81,292.17L234.93,290.19L235.05,285.23L236.16,231.72L236.41,245.59L236.53,252.53L237.64,299.11L237.76,297.13L237.89,296.13L238.99,150.46L239.36,178.21L239.49,196.05L240.72,305.05L240.84,303.07L241.21,260.46L241.33,213.88L241.7,161.36L242.07,189.11L242.2,201L243.55,304.06L243.67,301.09L244.54,253.52L244.66,229.74L244.78,212.89L245.27,239.65L245.4,254.51L246.38,284.24L246.51,280.28L246.63,269.38L246.87,272.35L247,261.45L247.86,152.44L248.11,181.18L248.23,198.03L249.71,293.16L249.83,279.29L250.94,179.2L251.06,180.19L251.18,198.03L252.42,279.29L252.54,277.31L254.02,187.13L254.14,204.97L255.49,276.31L255.74,271.36L255.86,260.46L256.36,163.34L256.73,194.06L256.85,203.97L256.97,166.32L257.46,239.65L257.59,248.57L257.96,256.5L258.08,294.15L258.2,293.16L258.33,298.12L258.45,303.07L258.57,301.09L258.7,286.22L259.56,200.01L259.8,210.91L259.93,206.95L261.03,291.18L261.16,283.25L261.28,297.13L261.65,270.37L261.77,252.53L262.64,111.81L262.88,135.6L263,165.33L263.13,167.31L263.25,200.01L264.36,273.34L264.48,287.22L265.1,156.41L265.22,133.62L265.71,92.99L265.84,104.88L265.96,145.51L267.31,266.41L267.44,264.42L267.56,252.53L268.42,65.24L268.79,75.15L268.91,97.94L270.27,274.33L270.39,269.38L271.5,67.22L271.75,82.09L271.87,112.81L273.22,276.31L273.35,271.36L273.72,213.88L273.84,170.28L274.46,96.95L274.7,116.77L274.83,128.66L276.06,261.45L276.18,281.27L276.8,198.03L276.92,147.49L277.04,151.45L277.16,119.74L277.41,100.91L277.66,118.75L277.78,145.51L278.4,220.82L278.64,215.87L278.77,207.94L279.5,264.42L279.75,246.59L279.87,252.53L280,225.78L280.61,252.53L280.74,262.44L281.84,279.29L281.97,278.3L283.2,213.88L283.32,224.78L283.44,230.73L283.57,227.76L283.69,234.69L283.81,246.59L284.68,262.44L284.8,259.47L284.92,261.45L285.17,270.37L285.29,260.46L285.41,232.71L286.4,117.76L286.52,144.52L286.65,162.35L287.88,266.41L288,256.5L288.12,263.43L288.37,240.64L288.49,228.75L289.23,134.61L289.48,138.57L289.6,157.4L290.83,281.27L290.96,267.4L291.08,286.22L291.32,250.55L291.45,217.85L292.19,155.42L292.43,156.41L292.56,163.34L294.03,265.41L294.16,261.45L295.02,94.97L295.39,114.79L295.51,139.56L296.74,257.49L296.87,252.53L298.59,109.83L298.71,109.83L302.53,109.83L302.65,280.28L302.78,287.22L303.02,261.45L303.14,236.68L304.01,159.38L304.25,169.29L304.38,184.15L305.24,269.38L305.48,259.47L305.61,271.36L305.85,291.18L306.1,263.43L306.22,241.63L307.09,135.6L307.21,139.56L307.33,153.43L308.56,261.45L308.69,252.53L308.81,266.41L309.18,229.74L309.3,185.15L309.67,116.77L310.16,145.51L310.29,157.4L311.64,257.49L311.89,250.55L312.01,222.8L313,112.81L313.12,117.76L313.24,137.58L314.1,239.65L314.35,238.66L314.47,252.53L314.6,250.55L314.72,268.39L315.95,108.84L316.07,116.77L316.2,141.54L317.3,274.33L317.43,257.49L317.67,283.25L317.92,250.55L318.04,224.78L318.78,87.04L318.91,98.93L319.03,130.64L320.38,237.67L320.51,229.74L320.75,234.69L320.88,222.8L321,198.03L321.86,49.38L321.98,57.31L322.11,82.09L323.22,241.63L323.34,229.74L323.71,233.7L323.83,214.87L324.69,67.22L324.94,80.1L325.06,100.91L326.29,221.81L326.42,210.91L326.66,222.8L326.79,199.02L326.91,187.13L327.77,91L327.89,99.92L328.02,101.9L329.37,223.79L329.49,205.96L329.99,128.66L330.11,100.91L330.23,104.88L330.36,101.9L330.48,78.12L330.73,74.16L331.22,151.45L331.34,168.3L332.33,235.69L332.45,225.78L332.57,218.84L333.43,90.01L333.8,101.9L333.93,125.69L335.16,216.86L335.28,218.84L335.4,221.81L335.53,212.89L335.65,196.05L336.39,83.08L336.64,99.92L336.76,122.71L338.24,267.4L338.48,255.5L338.61,237.67L339.59,91L339.71,101.9L339.84,117.76L341.07,257.49L341.19,266.41L341.81,174.25L341.93,131.63L342.42,78.12L342.79,112.81L342.92,147.49L344.02,272.35L344.27,258.48L344.39,253.52L345.38,67.22L345.75,97.94L345.87,134.61L347.1,251.54L347.23,251.54L347.84,128.66L347.96,89.02L348.33,69.2L348.58,76.14L348.7,91.99L349.81,221.81L349.93,214.87L350.18,230.73L350.43,201L350.55,174.25L351.04,45.42L351.53,79.11L351.66,101.9L352.89,224.78L353.26,210.91L353.38,185.15L353.75,136.59L353.87,68.21L354.24,52.36L354.49,80.1L354.61,106.86L355.97,203.97L356.09,201L356.21,200.01L356.46,196.05L356.58,165.33L356.95,126.68L357.32,146.5L357.45,148.48L359.05,258.48L359.17,249.56L359.91,137.58L360.28,146.5L360.4,152.44L361.63,265.41L361.88,263.43L362,256.5L362.12,265.41L362.25,234.69L362.37,212.89L363.23,140.55L363.36,150.46L363.48,174.25L364.34,262.44L364.46,257.49L364.59,242.62L364.96,284.24L365.33,252.53L365.45,235.69L365.69,185.15L366.19,221.81L366.31,229.74L367.42,285.23L367.54,281.27L367.66,306.04L367.91,307.03L368.03,296.13L368.16,277.31L368.77,125.69L369.02,169.29L369.14,187.13L369.39,150.46L369.76,209.92L369.88,217.85L370.87,281.27L370.99,270.37L371.11,248.57L372.22,110.82L372.34,112.81L372.47,147.49L373.7,255.5L373.82,258.48L373.94,256.5L374.07,240.64L374.93,99.92L375.18,115.78L375.3,133.62L376.41,247.58L376.53,253.52L376.65,266.41L377.02,245.59L377.15,227.76L378.01,90.01L378.13,97.94L378.25,111.81L379.36,257.49L379.49,256.5L379.61,253.52L379.85,258.48L379.98,241.63L380.96,60.28L381.21,96.95L381.33,130.64L382.69,267.4L382.81,256.5L383.18,154.43L383.3,107.85L383.92,57.31L384.04,70.19L384.16,94.97L385.4,247.58L385.52,257.49L385.64,255.5L385.76,240.64L386.75,57.31L387,75.15L387.12,93.98L388.35,235.69L388.47,218.84L388.6,230.73L388.84,200.01L388.97,176.23L389.71,43.44L389.95,58.3L390.07,88.03L391.06,211.9L391.18,196.05L391.31,206.95L391.55,238.66L391.92,189.11L392.04,131.63L392.78,44.43L392.91,55.33L393.03,75.15L394.26,231.72L394.38,220.82L394.51,219.83L394.63,222.8L394.75,205.96L395.74,25.6L395.98,65.24L396.11,99.92L397.34,233.7L397.46,218.84L397.59,224.78L397.71,203.97L397.83,180.19L398.57,40.46L398.82,60.28L398.94,84.07L400.17,218.84L400.29,223.79L400.42,225.78L400.54,217.85L400.66,203.97L401.28,88.03L401.65,104.88L401.77,119.74L402.63,232.71L402.88,222.8L403,219.83L403.25,244.6L403.62,224.78L403.74,220.82L404.48,155.42L404.73,170.28L404.85,194.06L404.97,182.17L405.47,201L405.59,203.97L406.2,216.86L406.33,215.87L406.45,204.97L407.44,107.85L407.68,124.7L407.81,140.55L408.79,211.9L408.91,209.92L409.04,223.79L409.28,238.66L409.65,207.94L409.78,177.22L410.51,142.53L410.64,146.5L410.76,156.41L411.75,241.63L411.87,233.7L412.24,267.4L412.48,245.59L412.61,209.92L413.47,102.9L413.59,126.68L413.72,117.76L413.84,147.49L413.96,174.25L415.19,257.49L415.32,253.52L415.44,229.74L416.3,85.06L416.55,96.95L416.67,113.8L417.78,238.66L417.9,232.71L418.27,239.65L418.39,225.78L418.52,201.99L419.38,78.12L419.5,89.02L419.63,104.88L420.73,232.71L420.86,231.72L420.98,232.71L421.1,243.61L422.33,67.22L422.46,80.1L422.58,97.94L423.81,234.69L423.94,226.77L424.06,236.68L424.3,219.83L424.43,197.04L425.17,69.2L425.41,86.05L425.54,104.88L426.64,214.87L426.77,214.87L427.01,223.79L427.14,212.89L427.26,199.02L428.24,91L428.37,101.9L428.49,115.78L429.35,207.94L429.48,199.02L429.6,190.1L429.72,211.9L430.21,196.05L430.34,179.2L431.2,91L431.32,95.96L431.45,115.78L432.43,202.98L432.55,210.91L432.92,219.83L434.15,78.12L434.28,89.02L434.4,130.64L435.14,219.83L435.26,215.87L435.39,215.87L435.88,243.61L436,226.77L436.12,204.97L436.74,88.03L436.86,128.66L436.99,183.16L437.73,262.44L437.85,238.66L437.97,242.62L438.71,255.5L438.83,250.55L438.96,249.56L439.33,213.88L439.45,177.22L439.7,114.79L440.19,145.51L440.31,172.26L441.42,236.68L441.54,250.55L443.02,86.05L443.14,102.9L443.27,121.72L444.5,230.73L444.62,231.72L444.74,235.69L444.87,226.77L444.99,218.84L445.98,119.74L446.1,120.73L446.22,132.62L447.33,226.77L447.45,231.72L447.7,237.67L447.82,226.77L447.95,214.87L449.05,126.68L449.18,126.68L450.41,225.78L450.53,234.69L450.65,235.69L450.78,224.78L451.76,66.23L452.01,75.15L452.13,83.08L453.12,202.98L453.24,201L453.49,210.91L453.73,201.99L453.86,191.09L454.72,83.08L454.96,96.95L455.09,108.84L456.19,213.88L456.32,202.98L456.44,211.9L456.81,195.06L456.93,176.23L457.8,90.01L457.92,99.92L458.04,118.75L459.15,209.92L459.27,215.87L459.52,217.85L459.89,165.33L460.01,136.59L460.38,107.85L460.75,120.73L460.87,130.64L462.11,219.83L462.23,217.85L462.35,213.88L462.6,229.74L462.72,219.83L462.84,190.1L463.71,82.09L463.83,101.9L463.95,118.75L465.18,245.59L465.31,244.6L465.68,230.73L465.8,206.95L466.17,88.03L466.66,91.99L466.78,103.89L467.89,224.78L468.02,221.81L468.14,236.68L468.38,256.5L468.63,233.7L468.75,199.02L469.62,74.16L469.74,83.08L469.86,118.75L470.97,226.77L471.09,226.77L471.34,247.58L471.59,226.77L471.71,197.04L472.57,83.08L472.69,90.01L474.05,244.6L474.17,240.64L474.29,231.72L474.54,197.04L474.66,174.25L475.53,106.86L475.65,102.9L475.77,106.86L475.9,137.58L476.63,193.07L476.88,182.17L477,193.07L477.25,199.02L477.37,194.06L477.5,180.19L478.48,72.18L478.6,75.15L478.73,98.93L479.71,196.05L479.84,185.15L479.96,181.18L480.08,199.02L480.21,208.93L480.7,148.48L480.82,114.79L480.94,113.8L481.07,115.78L481.19,120.73L481.31,119.74L481.44,102.9L482.67,219.83L482.79,216.86L482.91,226.77L483.65,180.19L483.78,166.32L483.9,146.5L484.27,201L484.39,189.11L484.51,185.15L486.12,283.25L486.24,273.34L487.35,88.03L487.47,97.94L487.59,124.7L488.7,257.49L488.82,263.43L490.3,97.94L490.55,121.72L490.67,162.35L492.03,268.39L492.15,263.43L493.26,88.03L493.38,101.9L493.5,131.63L494.49,232.71L494.61,224.78L494.73,240.64L495.1,220.82L495.23,205.96L496.21,107.85L496.34,117.76L496.46,145.51L497.32,236.68L497.44,228.75L497.57,231.72L497.69,239.65L498.31,232.71L498.43,232.71L503.35,232.71L503.48,271.36L503.6,269.38L503.72,244.6L503.85,274.33L504.22,222.8L504.34,171.27L505.08,111.81L505.2,112.81L505.32,135.6L506.43,251.54L506.55,259.47L506.92,256.5L507.05,242.62L508.03,108.84L508.16,114.79L508.28,134.61L509.26,232.71L509.39,221.81L509.76,254.51L510,231.72L510.13,212.89L510.99,132.62L511.23,147.49L511.36,186.14L512.59,249.56L512.71,246.59L513.2,172.26L513.33,155.42L513.57,156.41L513.82,132.62L513.94,125.69L515.54,272.35L515.67,271.36L516.04,206.95L516.16,179.2L516.9,115.78L517.14,137.58L517.27,170.28L518.5,259.47L518.62,251.54L518.74,253.52L518.87,241.63L519.85,84.07L519.98,98.93L520.1,109.83L521.08,229.74L521.21,217.85L521.33,227.76L521.7,249.56L521.82,232.71L521.95,202.98L522.93,78.12L523.05,100.91L524.16,217.85L524.29,239.65L524.65,249.56L524.78,235.69L524.9,202.98L525.76,64.25L525.89,76.14L526.01,104.88L526.87,198.03L526.99,195.06L527.12,199.02L527.49,215.87L527.73,200.01L527.86,171.27L528.23,125.69L528.72,140.55L528.84,141.54L530.32,234.69L530.44,232.71L530.57,233.7L530.69,226.77L531.67,169.29L531.8,174.25L533.03,250.55L533.4,238.66L533.52,232.71L534.14,145.51L534.63,146.5L534.75,153.43L536.11,215.87L536.23,215.87L536.6,215.87L536.72,242.62L537.71,242.62L537.83,146.5L539.06,255.5L539.18,252.53L539.43,272.35L539.55,259.47L539.68,219.83L540.54,87.04L540.66,94.97L540.78,118.75L541.77,232.71L541.89,227.76L542.02,224.78L542.14,245.59L542.26,246.59L542.39,255.5L543.49,121.72L543.62,136.59L543.74,154.43L544.73,237.67L544.85,233.7L544.97,234.69L545.34,270.37L545.59,229.74L545.71,183.16L546.45,111.81L546.57,128.66L546.7,150.46L547.68,249.56L547.8,245.59L547.93,253.52L548.05,251.54L548.17,252.53L548.3,263.43L548.79,169.29L549.16,192.08L549.28,215.87L549.53,190.1L549.77,212.89L549.9,223.79L550.88,275.32L551.25,265.41L551.37,251.54L552.36,118.75L552.48,127.67L552.61,155.42L553.84,270.37L553.96,263.43L554.45,204.97L554.58,180.19L555.07,130.64L555.19,171.27L555.31,193.07L555.56,184.15L555.68,221.81L556.18,277.31L556.55,264.42L556.67,262.44L557.04,268.39L557.16,260.46L557.28,257.49L558.39,201L558.52,204.97L558.64,218.84L559.75,278.3L559.87,275.32L559.99,272.35L560.24,265.41L560.36,253.52L560.61,282.26L561.22,232.71L561.35,231.72L562.58,269.38L562.7,272.35L562.83,273.34L562.95,271.36L563.07,267.4L563.19,272.35L563.32,267.4L563.44,249.56L564.18,230.73L564.3,233.7L564.43,237.67L566.03,269.38L566.15,262.44L567.13,179.2L567.26,186.14L568.61,281.27L568.74,276.31L568.98,301.09L569.1,283.25L569.23,247.58L570.09,124.7L570.21,138.57L570.34,170.28L571.57,274.33L571.69,267.4L571.94,282.26L572.06,268.39L572.18,234.69L573.04,127.67L573.17,129.65L573.29,165.33L574.52,261.45L574.65,281.27L574.89,287.22L575.01,273.34L575.14,243.61L576,155.42L576.12,158.39L576.25,185.15L577.6,288.21L577.72,286.22L577.85,284.24L577.97,268.39L578.96,141.54L579.08,148.48L579.2,182.17L580.06,255.5L580.31,245.59L580.43,258.48L581.91,155.42L582.03,154.43L583.02,254.51L583.14,246.59L583.26,242.62L583.51,265.41L583.88,250.55L584,239.65L584.25,203.97L584.74,212.89L584.87,220.82L585.48,328.84L585.73,313.97L585.85,312.98L586.34,315.95L586.71,314.96L586.84,311.99L587.82,248.57L587.94,258.48L588.07,268.39L589.67,346.67L589.79,322.89L590.28,242.62L590.65,248.57L590.78,235.69L591.02,254.51L591.14,266.41L592.25,328.84L592.62,318.93L592.75,300.1L593.85,218.84L593.98,246.59L595.33,349.65L595.45,347.66L595.58,333.79L595.95,259.47L596.07,224.78L596.69,181.18L596.81,190.1L596.93,222.8L598.16,322.89L598.29,298.12L598.53,319.92L598.78,279.29L598.9,245.59L599.64,184.15L599.76,198.03L599.89,216.86L600.87,294.15L601,277.31L601.12,303.07L601.73,283.25L601.86,267.4L602.47,208.93L602.84,223.79L602.97,233.7L604.2,279.29L604.32,281.27L605.55,205.96L605.67,211.9L605.8,216.86L606.78,265.41L606.91,256.5L607.03,264.42L607.27,268.39L607.4,267.4L607.52,258.48L608.51,204.97L608.63,215.87L609.98,267.4L610.11,268.39L610.35,271.36L610.48,265.41L610.6,253.52L611.22,196.05L611.58,201L611.71,222.8L613.19,298.12L613.31,286.22L613.55,270.37L613.68,240.64L614.42,181.18L614.66,209.92L614.79,226.77L616.26,295.14L616.39,284.24L617.37,162.35L617.49,173.25L617.62,200.01L619.1,288.21L619.22,293.16L619.59,244.6L619.71,212.89L620.33,174.25L620.45,183.16L620.57,212.89L621.93,271.36L622.05,268.39L622.17,272.35L622.3,260.46L622.42,244.6L623.28,184.15L623.4,190.1L623.53,217.85L624.88,287.22L625.01,287.22L626.11,183.16L626.48,205.96L626.61,217.85L627.35,250.55L627.47,258.48L627.71,256.5L627.96,263.43L628.08,260.46L628.21,254.51L629.07,174.25L629.32,183.16L629.44,200.01L631.04,256.5L631.16,247.58L631.29,228.75L631.53,221.81L631.65,224.78L631.78,259.47L632.02,275.32L632.39,258.48L632.52,258.48L632.64,257.49L633.62,290.19L633.87,283.25L633.99,273.34L634.36,277.31L635.1,237.67L635.23,252.53L636.21,288.21L636.33,286.22L636.46,286.22L636.7,300.1L637.07,290.19L637.2,288.21L637.32,287.22L637.44,272.35L637.56,261.45L637.93,285.23L638.06,290.19L639.29,322.89L639.41,324.87L639.66,325.86L639.78,321.9L639.9,325.86L640.03,328.84L640.52,289.2L640.89,309.02L641.01,315.95L641.38,321.9L641.63,319.92L641.75,316.94L641.87,315.95L642.12,318.93L642.24,319.92L643.11,306.04L643.23,265.41L643.6,247.58L643.97,254.51L644.09,272.35L645.2,324.87L645.32,311L645.45,316.94L645.69,322.89L645.94,312.98L646.06,296.13L646.31,225.78L646.8,237.67L646.92,254.51L647.54,283.25L647.66,323.88L647.78,306.04L647.91,327.85L648.4,318.93L648.52,323.88L648.77,318.93L648.89,310.01L649.88,249.56L650,270.37L650.37,321.9L650.74,314.96L650.86,304.06L650.99,305.05L651.11,314.96L651.36,309.02L651.48,318.93L651.6,329.83L652.83,245.59L652.96,260.46L654.19,330.82L654.31,323.88L654.43,328.84L654.56,342.71L654.8,324.87L654.93,301.09L655.3,247.58L655.79,269.38L655.91,272.35L657.14,328.84L657.39,316.94L657.51,316.94L658.13,286.22L658.25,275.32L658.62,241.63L659.11,257.49L659.24,261.45L660.1,285.23L660.22,282.26L660.34,285.23L660.59,281.27L660.71,270.37L661.58,212.89L661.82,223.79L661.94,230.73L662.93,261.45L663.05,255.5L663.18,255.5L663.3,256.5L663.42,254.51L663.55,250.55L664.41,198.03L664.78,200.01L664.9,210.91L666.25,282.26L666.5,271.36L666.62,265.41L667.61,201L667.73,207.94L667.85,226.77L669.33,288.21L669.46,293.16L669.95,236.68L670.07,219.83L670.56,198.03L670.69,213.88L670.81,236.68L672.04,282.26L672.16,289.2L672.29,296.13L672.53,269.38L672.66,278.3L672.78,255.5L673.52,204.97L673.64,219.83L673.76,240.64L674.87,314.96L675.24,311L675.37,309.02L675.49,306.04L675.61,282.26L676.47,253.52L676.6,252.53L678.07,320.91L678.2,311.99L678.32,307.03L678.44,306.04L678.57,292.17L678.94,243.61L679.06,223.79L679.31,220.82L679.43,229.74L679.55,237.67L681.03,301.09L681.15,293.16L681.77,259.47L682.01,274.33L682.14,284.24L682.51,269.38L682.75,276.31L682.88,287.22L683.86,322.89L684.11,313.97L684.23,311.99L684.48,302.08L684.6,283.25L684.97,253.52L685.46,261.45L685.59,266.41L686.08,265.41L686.45,287.22L686.57,285.23L686.69,282.26L686.82,287.22L687.06,276.31L687.19,267.4L687.56,234.69L687.68,271.36L688.05,272.35L688.42,267.4L688.54,269.38L689.4,300.1L689.53,300.1L689.89,302.08L690.26,300.1L690.39,295.14L691,233.7L691.37,246.59L691.5,253.52L692.97,288.21L693.1,265.41L693.22,263.43L693.34,276.31L693.71,226.77L694.2,239.65L694.33,245.59L695.68,285.23L695.81,285.23L696.67,211.9L697.04,230.73L697.16,231.72L699.01,308.03L699.13,298.12L699.75,212.89L700.11,215.87L700.24,225.78L701.59,305.05L701.72,301.09L701.96,299.11L702.08,281.27L702.82,203.97L703.07,213.88L703.19,218.84L704.79,311L704.92,299.11L705.04,309.02L705.16,291.18L705.29,263.43L705.9,201.99L706.15,221.81L706.27,238.66L707.87,308.03L707.99,307.03L708.12,304.06L708.24,273.34L708.98,222.8L709.1,239.65L709.23,255.5L710.33,314.96L710.46,312.98L710.58,299.11L710.83,328.84L711.2,285.23L711.32,269.38L711.81,249.56L712.06,261.45L712.18,268.39L712.67,278.3L712.8,281.27L713.91,319.92L714.03,313.97L714.15,303.07L714.4,289.2L714.89,301.09L715.01,309.02L715.75,369.47L716.24,353.61L716.37,355.59L716.86,361.54L716.98,359.56L717.11,347.66L717.48,334.78L717.6,337.75L717.72,353.61L717.85,337.75L718.21,362.53L718.34,373.43L719.57,435.86L719.69,430.91L719.82,419.01L720.8,330.82L720.92,358.57L721.79,403.16L721.91,399.19L722.4,387.3L722.52,405.14L723.39,373.43L723.51,363.52L723.63,354.6L724.12,362.53L724.25,368.47L724.49,363.52L724.74,371.45L724.86,375.41L724.99,376.4L725.11,387.3L725.36,393.25L725.6,379.38L725.73,376.4L726.46,336.76L726.83,353.61L726.96,352.62L727.94,337.75L728.06,337.75L729.54,292.17L729.67,301.09L729.79,299.11L729.91,307.03L730.16,304.06L730.28,311L730.53,310.01L731.14,312.98L731.27,311L731.51,308.03L731.64,319.92L731.76,312.98L731.88,290.19L732.5,254.51L732.62,261.45L732.74,277.31L734.22,373.43L734.47,366.49L734.59,362.53L734.96,354.6L735.08,344.69L735.33,346.67L735.45,363.52L735.82,395.23L736.07,377.39L736.19,368.47L736.44,355.59L736.93,358.57L737.05,361.54L737.3,364.51L737.55,361.54L737.67,357.57L737.92,330.82L738.53,333.79L738.65,333.79L739.76,358.57L739.89,356.58L740.13,361.54L740.25,366.49L740.5,367.48L740.62,355.59L741.24,288.21L741.49,293.16L741.61,302.08L742.96,406.13L743.09,400.19L743.21,411.09L743.58,393.25L743.7,354.6L744.32,295.14L744.56,309.02L744.69,331.81L746.04,409.1L746.29,400.19L746.41,391.27L747.15,281.27L747.64,296.13L747.77,301.09L749.24,323.88L749.37,321.9L749.49,316.94L750.35,286.22L750.47,292.17L750.6,296.13L752.32,405.14L752.44,396.22L752.57,349.65L753.31,315.95L753.43,333.79L754.41,419.01L754.54,415.05L754.66,425.95L755.28,454.69L755.4,435.86L755.52,396.22L756.14,316.94L756.38,337.75L756.51,351.63L757.86,441.81L757.99,430.91L759.46,379.38L759.59,377.39L760.08,391.27L760.69,389.29L760.82,386.31L761.56,350.64L761.68,335.77L762.17,326.85L762.29,332.8L762.42,336.76L763.28,368.47L763.4,364.51L763.53,362.53L763.77,363.52L763.9,370.46L764.02,373.43L764.27,365.5L764.39,357.57L764.76,312.98L765.13,331.81L765.25,345.68L766.6,424.96L766.73,427.93L766.97,427.93L767.1,423.97L768.08,301.09L768.21,314.96L768.33,330.82L769.56,381.36L769.68,378.38L769.81,377.39L770.18,362.53L770.3,344.69L770.91,311L771.28,313.97L771.41,312.98L772.51,349.65L772.76,345.68L772.88,340.73L773.99,305.05L774.12,312.98L775.22,363.52L775.35,365.5L775.59,356.58L775.72,379.38L775.84,373.43L775.96,382.35L776.82,334.78L776.95,335.77L777.07,356.58L777.19,372.44L777.81,363.52L777.93,366.49L778.79,381.36L778.92,372.44L779.66,283.25L780.03,289.2L780.15,302.08L780.27,296.13L780.76,309.02L780.89,312.98L781.63,353.61L781.75,350.64L781.87,345.68L782.73,315.95L782.86,322.89L782.98,342.71L784.46,385.32L784.58,379.38L784.7,381.36L784.95,373.43L785.07,364.51L785.32,330.82L785.81,341.72L785.94,345.68L786.18,343.7L786.31,350.64L786.55,357.57L787.04,351.63L787.17,349.65L787.78,339.74L787.91,335.77L788.64,277.31L788.89,302.08L789.01,311L790.37,329.83L790.49,330.82L790.74,331.81L790.86,329.83L790.98,322.89L791.72,279.29L791.85,292.17L791.97,304.06L793.32,354.6L793.45,353.61L793.57,344.69L793.94,346.67L794.06,344.69L794.19,338.75L794.31,350.64L794.92,337.75L795.05,337.75L795.42,328.84L795.66,338.75L795.79,344.69L796.03,346.67L796.16,345.68L796.28,341.72L796.53,344.69L796.65,336.76L796.89,339.74L797.02,338.75L797.76,355.59L797.88,348.66L798,347.66L798.86,335.77L798.99,341.72L799.23,350.64L799.6,341.72L799.73,334.78L800.47,266.41L800.59,282.26L800.71,296.13L801.94,352.62L802.07,349.65L802.19,344.69L802.56,351.63L803.3,275.32L803.42,277.31L803.54,292.17L804.28,323.88L804.53,318.93L804.65,321.9L804.77,315.95L804.9,345.68L805.02,352.62L806.01,309.02L806.13,296.13L806.62,316.94L806.74,307.03L806.87,304.06L807.24,331.81L807.73,321.9L807.85,316.94L808.71,325.86L808.84,321.9L809.45,312.98L809.58,320.91L809.7,322.89L809.82,317.94L810.07,334.78L810.19,345.68L810.44,349.65L810.56,331.81L810.68,321.9L811.05,348.66L811.18,351.63L811.3,353.61L811.42,345.68L811.55,339.74L812.16,281.27L812.41,293.16L812.53,309.02L813.39,344.69L813.52,343.7L813.64,349.65L814.01,363.52L814.13,390.28L815.12,280.28L815.36,291.18L815.49,308.03L817.33,427.93L817.46,419.01L818.2,294.15L818.44,325.86L818.57,346.67L820.17,412.08L820.29,404.15L820.41,395.23L821.27,309.02L821.4,327.85L821.52,342.71L823.12,408.11L823.24,399.19L823.86,328.84L823.98,317.94L824.84,301.09L824.97,301.09L833.46,301.09L833.59,335.77L833.96,342.71L834.08,339.74L834.2,337.75L835.19,375.41L835.31,342.71L835.56,303.07L836.05,319.92L836.17,336.76L837.9,445.77L838.14,435.86L838.27,418.02L838.64,394.24L838.88,420.01L839,421L839.25,421L839.37,416.04L840.11,386.31L840.24,371.45L840.97,384.33L841.22,379.38L841.34,376.4L841.96,370.46L842.08,379.38L843.68,424.96L843.81,419.01L843.93,417.03L844.79,379.38L844.91,380.37L845.04,389.29L846.88,422.98L847.01,420.01L847.5,365.5L847.87,372.44L847.99,387.3L849.35,452.71L849.47,427.93L849.72,455.68L850.09,424.96L850.21,402.17L850.83,355.59L851.07,388.29L851.19,397.21L852.3,425.95L852.43,424.96L853.66,360.55L854.15,366.49L854.27,366.49L854.64,366.49L854.77,374.42L854.89,372.44L855.26,377.39L855.38,378.38L855.63,379.38L855.75,377.39L855.87,378.38L856,370.46L856.49,346.67L856.86,354.6L856.98,356.58L857.23,355.59L857.35,365.5L857.6,358.57L857.72,351.63L857.97,355.59L858.09,351.63L858.21,360.55L858.46,359.56L858.83,364.51L858.95,362.53L859.07,353.61L859.44,319.92L859.94,333.79L860.06,345.68L860.68,356.58L860.92,352.62L861.04,353.61L861.41,343.7L861.54,345.68L861.66,353.61L862.4,318.93L862.52,344.69L862.89,334.78L863.14,339.74L863.26,344.69L864.74,377.39L864.86,362.53L865.35,324.87L865.72,337.75L865.85,344.69L866.34,372.44L866.46,382.35L867.32,374.42L867.45,367.48L867.69,375.41L867.94,362.53L868.06,357.57L868.43,348.66L868.8,355.59L868.93,356.58L870.28,383.34L870.4,381.36L870.53,383.34L870.77,360.55L870.9,351.63L871.02,342.71L871.26,354.6L871.51,345.68L871.63,370.46L872.74,401.18L872.87,392.26L872.99,394.24L873.11,399.19L873.36,387.3L873.48,383.34L874.47,335.77L874.59,354.6L875.82,419.01L875.94,424.96L876.07,425.95L876.19,432.89L876.44,441.81L876.56,428.92L876.68,421L877.42,340.73L877.67,378.38L877.79,387.3L878.65,422.98L878.78,436.85L878.9,435.86L879.02,436.85L879.14,443.79L879.39,446.76L879.88,388.29L880.01,365.5L880.25,333.79L880.62,379.38L880.75,379.38L881.61,385.32L881.73,385.32L887.27,385.32L887.39,373.43L888.01,393.25L888.13,389.29L888.26,382.35L889.12,322.89L889.49,332.8L889.61,334.78L889.73,333.79L889.98,336.76L890.1,336.76L890.23,343.7L890.6,342.71L890.72,348.66L890.84,361.54L891.95,304.06L892.07,306.04L892.32,312.98L892.44,323.88L894.17,408.11L894.29,405.14L894.41,391.27L895.15,335.77L895.27,356.58L895.4,380.37L896.14,414.06L896.26,404.15L896.38,398.2L897,387.3L897.12,401.18L897.24,400.19L897.37,379.38L897.74,330.82L898.23,338.75L898.35,343.7L898.48,346.67L898.72,335.77L898.85,333.79L898.97,327.85L899.34,336.76L899.58,331.81L899.71,333.79L899.83,343.7L900.2,330.82L900.32,331.81L900.45,328.84L900.69,300.1L901.19,311.99L901.31,314.96L902.91,345.68L903.03,340.73L903.16,337.75L903.28,340.73L903.52,331.81L903.65,328.84L903.77,324.87L904.26,328.84L904.39,330.82L905,348.66L905.25,344.69L905.37,337.75L905.86,351.63L906.11,343.7L906.23,340.73L906.73,330.82L907.1,334.78L907.22,335.77L907.59,342.71L907.71,348.66L908.2,356.58L908.33,353.61L908.45,361.54L908.94,381.36L909.19,369.47L909.31,350.64L909.93,311L910.17,325.86L910.3,327.85L911.4,406.13L911.77,391.27L911.9,386.31L912.64,326.85L912.88,333.79L913.01,345.68L914.48,424.96L914.61,415.05L914.73,411.09L915.71,346.67L915.96,365.5L916.08,386.31L916.33,385.32L916.82,404.15L916.95,419.01L917.07,420.01L917.19,434.87L917.32,443.79L917.56,425.95L917.81,432.89L917.93,427.93L918.42,379.38L918.55,362.53L918.67,345.68L919.04,381.36L919.16,389.29L920.27,430.91L920.64,428.92L920.76,411.09L920.89,407.12L921.01,378.38L921.38,349.65L921.75,358.57L921.87,365.5L922.98,423.97L923.1,427.93L923.72,449.73L923.84,443.79L923.96,421.99L924.7,339.74L924.83,354.6L924.95,376.4L925.81,437.84L926.06,434.87L926.18,422.98L926.3,436.85L926.8,424.96L926.92,412.08L927.53,418.02L927.66,416.04L927.78,415.05L927.9,418.02L928.03,417.03L928.15,404.15L928.4,355.59L928.89,369.47L929.01,399.19L929.26,421L929.63,398.2L929.75,397.21L930,415.05L930.12,405.14L930.24,382.35L930.37,368.47L930.98,382.35L931.11,378.38L931.23,376.4L931.6,381.36L931.72,382.35L932.09,390.28L932.21,397.21L932.34,398.2L932.46,393.25L932.58,398.2L932.83,385.32L932.95,344.69L933.57,314.96L933.69,331.81L933.81,353.61L935.05,414.06L935.17,413.07L935.29,409.1L936.15,357.57L936.28,340.73L936.52,333.79L936.65,334.78L936.77,347.66L936.89,348.66L937.02,364.51L938.25,416.04L938.37,412.08L938.86,352.62L938.99,328.84L939.36,311L939.6,324.87L939.72,334.78L941.45,442.8L941.57,436.85L942.43,379.38L942.56,397.21L942.68,411.09L942.93,414.06L943.05,395.23L943.66,427.93L943.91,410.1L944.03,402.17L944.65,381.36L944.77,368.47L944.9,350.64L945.39,362.53L945.51,379.38L946.74,422.98L946.87,424.96L947.11,434.87L947.6,433.88L947.73,418.02L947.85,411.09L948.22,422.98L948.47,418.02L948.59,424.96L948.84,424.96L948.96,432.89L949.08,426.94L949.58,428.92L949.7,437.84L949.94,440.82L951.3,411.09L951.42,420.01L951.67,415.05L952.04,421.99L952.16,427.93L953.15,421.99L953.27,421.99L953.52,409.1L953.64,398.2L954.01,395.23L955.49,437.84L955.61,432.89L956.96,421L957.09,425.95L957.95,433.88L958.07,433.88L958.32,433.88L958.44,448.74L958.81,457.66L959.18,453.7L959.3,450.73L960.16,423.97L960.29,427.93L960.41,434.87L961.03,439.82L961.15,438.83L961.27,429.91L962.13,440.82L962.26,434.87L962.87,386.31L963.24,390.28L963.37,405.14L964.1,438.83L964.35,427.93L964.47,427.93L964.72,433.88L965.09,430.91L965.21,423.97L966.07,327.85L966.2,338.75L966.32,364.51L967.55,442.8L967.68,449.73L968.17,430.91L968.29,423.97L969.03,333.79L969.28,360.55L969.4,374.42L970.75,441.81L970.88,432.89L971,440.82L971.25,410.1L971.37,371.45L971.98,323.88L972.11,336.76L972.23,363.52L973.59,455.68L973.71,446.76L973.95,454.69L974.08,446.76L974.2,417.03L974.94,311.99L975.19,346.67L975.31,365.5L976.79,449.73L976.91,444.78L977.03,423.97L977.4,318.93L977.89,355.59L978.02,354.6L979.25,446.76L979.37,452.71L979.62,459.64L979.86,447.75L979.99,426.94L980.73,371.45L980.85,372.44L980.97,382.35L982.33,459.64L982.45,455.68L982.94,464.6L983.07,426.94L983.44,357.57L983.93,376.4L984.05,399.19L985.16,428.92L985.28,429.91L985.78,438.83L985.9,412.08L986.27,339.74L986.76,348.66L986.88,363.52L987.75,399.19L987.87,398.2L987.99,397.21L988.61,409.1L988.73,408.11L988.85,402.17L989.59,329.83L989.96,332.8L990.08,332.8L999.07,332.8L999.2,383.34L999.44,397.21L999.57,410.1L1000.18,426.94L1000.43,416.04L1000.55,408.11L1001.66,357.57L1001.78,358.57L1001.91,358.57L1002.03,354.6L1002.27,366.49L1002.4,367.48L1003.38,387.3L1003.51,381.36L1003.63,373.43L1004.37,270.37L1004.61,298.12L1004.74,313.97L1006.21,399.19L1006.34,378.38L1006.46,374.42L1007.2,331.81L1007.57,332.8L1007.69,350.64L1008.92,399.19L1009.05,399.19L1009.29,408.11L1009.54,403.16L1009.66,374.42L1009.91,340.73L1010.52,353.61L1010.65,364.51L1012,435.86L1012.25,432.89L1012.37,416.04L1012.99,372.44L1013.23,375.41L1013.36,379.38L1014.09,418.02L1014.59,411.09L1014.71,410.1L1014.83,411.09L1014.96,399.19L1015.2,404.15L1015.33,402.17L1015.45,391.27L1015.57,367.48L1016.19,379.38L1016.31,378.38L1016.43,375.41L1016.56,384.33L1016.68,392.26L1017.67,412.08L1017.79,404.15L1017.91,399.19L1018.16,404.15L1018.28,399.19L1018.4,384.33L1018.77,350.64L1019.27,352.62L1019.39,357.57L1020.87,448.74L1020.99,448.74L1021.24,461.63L1021.48,436.85L1021.61,425.95L1021.98,330.82L1022.47,352.62L1022.59,359.56L1023.58,391.27L1023.95,388.29L1024.07,390.28L1024.31,380.37L1024.44,367.48L1024.56,362.53L1024.68,377.39L1024.81,389.29L1025.18,382.35L1025.3,384.33L1025.42,388.29L1026.65,427.93L1026.78,428.92L1026.9,434.87L1027.15,417.03L1027.39,429.91L1027.52,406.13L1027.89,387.3L1028.25,395.23L1028.38,410.1L1028.5,414.06L1028.87,412.08L1028.99,404.15L1029.12,405.14L1029.24,423.97L1029.49,442.8L1029.98,433.88L1030.1,426.94L1030.35,407.12L1030.47,377.39L1030.59,354.6L1030.84,403.16L1031.09,394.24L1031.21,404.15L1032.44,432.89L1032.56,435.86L1032.93,422.98L1033.18,424.96L1033.3,436.85L1033.43,439.82L1033.55,428.92L1033.67,417.03L1033.8,411.09L1034.29,420.01L1034.41,420.01L1035.03,435.86L1035.15,417.03L1035.52,438.83L1035.89,429.91L1036.01,426.94L1036.14,428.92L1036.38,421.99L1036.5,413.07L1036.87,383.34L1037.24,401.18L1037.37,407.12L1037.49,405.14L1037.74,412.08L1037.86,413.07L1038.6,418.02L1038.72,416.04L1038.84,415.05L1039.21,385.32L1039.34,360.55L1039.46,338.75L1040.08,345.68L1040.2,366.49L1041.43,444.78L1041.55,429.91L1042.54,369.47L1042.91,378.38L1043.03,394.24L1043.77,409.1L1043.89,405.14L1044.02,413.07L1044.75,453.7L1044.88,442.8L1045,430.91L1045.37,342.71L1045.86,385.32L1045.99,389.29L1047.09,427.93L1047.22,428.92L1047.46,431.9L1047.59,439.82L1047.71,442.8L1048.08,434.87L1048.2,436.85L1048.32,430.91L1048.45,427.93L1048.82,434.87L1048.94,441.81L1050.29,468.56L1050.42,470.54L1050.66,473.52L1050.79,469.55L1050.91,461.63L1051.77,426.94L1051.9,428.92L1052.88,467.57L1053,468.56L1053.74,486.4L1053.87,472.53L1054.73,350.64L1054.85,352.62L1054.97,377.39L1056.08,431.9L1056.21,433.88L1056.45,439.82L1056.7,429.91L1056.82,409.1L1056.94,395.23L1057.07,431.9L1057.56,408.11L1057.68,405.14L1058.91,428.92L1059.04,422.98L1059.53,436.85L1059.65,430.91L1059.78,418.02L1060.51,343.7L1060.88,360.55L1061.01,379.38L1062.36,436.85L1062.48,421.99L1062.61,418.02L1063.1,328.84L1063.59,338.75L1063.72,352.62L1064.45,403.16L1064.58,400.19L1064.7,398.2L1064.95,396.22L1065.07,400.19L1065.19,410.1L1065.44,413.07L1065.56,409.1L1065.69,395.23L1066.18,320.91L1066.67,353.61L1066.79,367.48L1067.78,417.03L1067.9,415.05L1068.03,416.04L1068.15,422.98L1068.52,409.1L1068.64,399.19L1069.01,362.53L1069.5,371.45L1069.63,374.42L1070.98,462.62L1071.1,453.7L1071.35,464.6L1071.47,458.65L1071.6,426.94L1072.46,304.06L1072.58,311L1072.7,336.76L1074.06,444.78L1074.18,447.75L1074.67,385.32L1074.8,363.52L1075.54,289.2L1075.66,322.89L1075.78,340.73L1076.89,427.93L1077.26,424.96L1077.38,420.01L1078.37,267.4L1078.49,271.36L1078.61,304.06L1079.85,423.97L1080.09,422.98L1080.22,429.91L1080.46,397.21L1080.58,357.57L1081.2,276.31L1081.45,287.22L1081.57,309.02L1082.55,368.47L1082.68,366.49L1082.8,365.5L1082.92,370.46L1083.05,376.4L1083.29,362.53L1083.42,342.71L1083.91,289.2L1084.4,294.15L1084.53,312.98L1085.02,352.62L1085.51,344.69L1085.63,341.72L1085.88,345.68L1086.5,329.83L1086.62,333.79L1086.74,336.76L1086.86,326.85L1086.99,297.13L1087.11,270.37L1087.6,317.94L1087.73,320.91L1088.22,336.76L1088.34,351.63L1088.83,384.33L1089.08,369.47L1089.2,360.55L1090.19,267.4L1090.31,280.28L1090.44,290.19L1091.91,375.41L1092.04,367.48L1092.16,364.51L1092.28,338.75L1093.14,233.7L1093.27,241.63L1093.39,266.41L1094.74,388.29L1094.87,393.25L1094.99,392.26L1095.11,381.36L1096.1,182.17L1096.35,228.75L1096.47,259.47L1097.7,370.46L1097.82,378.38L1097.95,389.29L1098.07,373.43L1098.19,336.76L1098.93,187.13L1099.18,207.94L1099.3,242.62L1100.78,396.22L1100.9,393.25L1101.39,281.27L1101.52,247.58L1101.89,210.91L1102.26,248.57L1102.38,278.3L1103.12,352.62L1103.36,345.68L1103.49,346.67L1103.73,350.64L1103.98,346.67L1104.1,340.73L1104.6,294.15L1104.72,274.33L1104.96,252.53L1105.21,287.22L1105.33,307.03L1106.32,336.76L1106.44,338.75L1106.81,344.69L1106.93,335.77L1107.06,328.84L1107.8,238.66L1108.04,254.51L1108.17,276.31L1109.27,337.75L1109.4,346.67L1109.52,352.62L1109.89,333.79L1110.01,321.9L1110.75,231.72L1111.12,260.46L1111.24,283.25L1112.48,362.53L1112.6,359.56L1112.72,365.5L1113.83,214.87L1113.95,240.64L1114.08,256.5L1115.31,323.88L1115.43,318.93L1115.55,326.85L1115.68,328.84L1115.8,314.96L1116.54,224.78L1116.91,237.67L1117.03,242.62L1118.39,344.69L1118.51,339.74L1118.63,349.65L1118.76,334.78L1118.88,308.03L1119.25,309.02L1119.62,228.75L1119.86,247.58L1119.99,256.5L1121.22,332.8L1121.46,331.81L1121.59,327.85L1122.7,252.53L1122.82,259.47L1122.94,265.41L1124.05,308.03L1124.17,307.03L1124.3,306.04L1124.54,308.03L1124.67,304.06L1124.79,295.14L1125.65,212.89L1125.9,250.55L1126.02,272.35L1127.13,310.01L1127.25,311L1127.62,316.94L1127.74,323.88L1128.36,283.25L1128.48,307.03L1128.61,314.96L1128.85,330.82L1129.34,324.87L1129.47,322.89L1129.96,331.81L1130.45,327.85L1130.58,318.93L1131.44,218.84L1131.81,242.62L1131.93,273.34L1132.79,334.78L1132.91,326.85L1133.04,331.81L1133.28,339.74L1133.53,324.87L1133.65,315.95L1133.9,273.34L1134.52,286.22L1134.64,286.22L1134.76,284.24L1134.88,298.12L1136.12,366.49L1136.36,361.54L1136.49,347.66L1137.35,203.97L1137.59,228.75L1137.72,254.51L1138.83,337.75L1138.95,339.74L1139.07,345.68L1139.32,341.72L1139.44,301.09L1140.06,229.74L1140.3,244.6L1140.43,254.51L1140.55,255.5L1140.67,269.38L1141.78,332.8L1141.9,331.81L1142.03,333.79L1142.27,331.81L1142.4,308.03L1142.64,304.06L1142.77,280.28L1143.01,270.37L1143.26,275.32L1143.38,280.28L1143.5,276.31L1143.63,298.12L1144.74,349.65L1144.86,356.58L1145.1,361.54L1145.23,357.57L1145.35,326.85L1146.09,249.56L1146.46,259.47L1146.58,283.25L1147.57,348.66L1147.69,363.52L1148.18,379.38L1148.31,333.79L1149.17,170.28L1149.41,181.18L1149.54,241.63L1150.65,355.59L1150.77,350.64L1151.01,373.43L1151.26,333.79L1151.38,287.22L1152,185.15" style="vector-effect: none; fill: none; stroke: rgb(99, 110, 250); stroke-opacity: 1; stroke-width: 2px; opacity: 1;"/></g><g class="points"/><g class="text"/></g></g></g><g class="overplot"/><path class="xlines-above crisp" d="M0,0" style="fill: none;"/><path class="ylines-above crisp" d="M0,0" style="fill: none;"/><g class="overlines-above"/><g class="xaxislayer-above"><g class="xtick"><text text-anchor="middle" x="0" y="585" transform="translate(28,0)" style="font-family: 'Open Sans', verdana, arial, sans-serif; font-size: 12px; fill: rgb(42, 63, 95); fill-opacity: 1; white-space: pre; opacity: 1;">0</text></g><g class="xtick"><text text-anchor="middle" x="0" y="585" style="font-family: 'Open Sans', verdana, arial, sans-serif; font-size: 12px; fill: rgb(42, 63, 95); fill-opacity: 1; white-space: pre; opacity: 1;" transform="translate(151.13,0)">1000</text></g><g class="xtick"><text text-anchor="middle" x="0" y="585" style="font-family: 'Open Sans', verdana, arial, sans-serif; font-size: 12px; fill: rgb(42, 63, 95); fill-opacity: 1; white-space: pre; opacity: 1;" transform="translate(274.26,0)">2000</text></g><g class="xtick"><text text-anchor="middle" x="0" y="585" style="font-family: 'Open Sans', verdana, arial, sans-serif; font-size: 12px; fill: rgb(42, 63, 95); fill-opacity: 1; white-space: pre; opacity: 1;" transform="translate(397.39,0)">3000</text></g><g class="xtick"><text text-anchor="middle" x="0" y="585" style="font-family: 'Open Sans', verdana, arial, sans-serif; font-size: 12px; fill: rgb(42, 63, 95); fill-opacity: 1; white-space: pre; opacity: 1;" transform="translate(520.52,0)">4000</text></g><g class="xtick"><text text-anchor="middle" x="0" y="585" style="font-family: 'Open Sans', verdana, arial, sans-serif; font-size: 12px; fill: rgb(42, 63, 95); fill-opacity: 1; white-space: pre; opacity: 1;" transform="translate(643.65,0)">5000</text></g><g class="xtick"><text text-anchor="middle" x="0" y="585" style="font-family: 'Open Sans', verdana, arial, sans-serif; font-size: 12px; fill: rgb(42, 63, 95); fill-opacity: 1; white-space: pre; opacity: 1;" transform="translate(766.78,0)">6000</text></g><g class="xtick"><text text-anchor="middle" x="0" y="585" style="font-family: 'Open Sans', verdana, arial, sans-serif; font-size: 12px; fill: rgb(42, 63, 95); fill-opacity: 1; white-space: pre; opacity: 1;" transform="translate(889.91,0)">7000</text></g><g class="xtick"><text text-anchor="middle" x="0" y="585" style="font-family: 'Open Sans', verdana, arial, sans-serif; font-size: 12px; fill: rgb(42, 63, 95); fill-opacity: 1; white-space: pre; opacity: 1;" transform="translate(1013.04,0)">8000</text></g><g class="xtick"><text text-anchor="middle" x="0" y="585" style="font-family: 'Open Sans', verdana, arial, sans-serif; font-size: 12px; fill: rgb(42, 63, 95); fill-opacity: 1; white-space: pre; opacity: 1;" transform="translate(1136.17,0)">9000</text></g></g><g class="yaxislayer-above"><g class="ytick"><text text-anchor="end" x="27" y="4.199999999999999" transform="translate(0,527.5699999999999)" style="font-family: 'Open Sans', verdana, arial, sans-serif; font-size: 12px; fill: rgb(42, 63, 95); fill-opacity: 1; white-space: pre; opacity: 1;">0</text></g><g class="ytick"><text text-anchor="end" x="27" y="4.199999999999999" style="font-family: 'Open Sans', verdana, arial, sans-serif; font-size: 12px; fill: rgb(42, 63, 95); fill-opacity: 1; white-space: pre; opacity: 1;" transform="translate(0,428.47)">10</text></g><g class="ytick"><text text-anchor="end" x="27" y="4.199999999999999" style="font-family: 'Open Sans', verdana, arial, sans-serif; font-size: 12px; fill: rgb(42, 63, 95); fill-opacity: 1; white-space: pre; opacity: 1;" transform="translate(0,329.38)">20</text></g><g class="ytick"><text text-anchor="end" x="27" y="4.199999999999999" style="font-family: 'Open Sans', verdana, arial, sans-serif; font-size: 12px; fill: rgb(42, 63, 95); fill-opacity: 1; white-space: pre; opacity: 1;" transform="translate(0,230.28)">30</text></g><g class="ytick"><text text-anchor="end" x="27" y="4.199999999999999" style="font-family: 'Open Sans', verdana, arial, sans-serif; font-size: 12px; fill: rgb(42, 63, 95); fill-opacity: 1; white-space: pre; opacity: 1;" transform="translate(0,131.18)">40</text></g></g><g class="overaxes-above"/></g></g><g class="polarlayer"/><g class="smithlayer"/><g class="ternarylayer"/><g class="geolayer"/><g class="funnelarealayer"/><g class="pielayer"/><g class="iciclelayer"/><g class="treemaplayer"/><g class="sunburstlayer"/><g class="glimages"/><defs id="topdefs-ac7088"><g class="clips"/></defs><g class="layer-above"><g class="imagelayer"/><g class="shapelayer"><g class="shape-group" data-index="0" clip-path="url(#clipac7088x)"><path data-index="0" fill-rule="evenodd" d="M40.31,572L40.31,60" style="opacity: 0.5; stroke: rgb(255, 0, 0); stroke-opacity: 1; fill: rgb(0, 0, 0); fill-opacity: 0; stroke-width: 2px;"/></g><g class="shape-group" data-index="1" clip-path="url(#clipac7088x)"><path data-index="1" fill-rule="evenodd" d="M66.53999999999999,572L66.53999999999999,60" style="opacity: 0.5; stroke: rgb(255, 0, 0); stroke-opacity: 1; fill: rgb(0, 0, 0); fill-opacity: 0; stroke-width: 2px;"/></g><g class="shape-group" data-index="2" clip-path="url(#clipac7088x)"><path data-index="2" fill-rule="evenodd" d="M67.16,572L67.16,60" style="opacity: 0.5; stroke: rgb(0, 128, 0); stroke-opacity: 1; fill: rgb(0, 0, 0); fill-opacity: 0; stroke-width: 2px;"/></g><g class="shape-group" data-index="3" clip-path="url(#clipac7088x)"><path data-index="3" fill-rule="evenodd" d="M88.33,572L88.33,60" style="opacity: 0.5; stroke: rgb(255, 0, 0); stroke-opacity: 1; fill: rgb(0, 0, 0); fill-opacity: 0; stroke-width: 2px;"/></g><g class="shape-group" data-index="4" clip-path="url(#clipac7088x)"><path data-index="4" fill-rule="evenodd" d="M98.8,572L98.8,60" style="opacity: 0.5; stroke: rgb(255, 0, 0); stroke-opacity: 1; fill: rgb(0, 0, 0); fill-opacity: 0; stroke-width: 2px;"/></g><g class="shape-group" data-index="5" clip-path="url(#clipac7088x)"><path data-index="5" fill-rule="evenodd" d="M112.34,572L112.34,60" style="opacity: 0.5; stroke: rgb(255, 0, 0); stroke-opacity: 1; fill: rgb(0, 0, 0); fill-opacity: 0; stroke-width: 2px;"/></g><g class="shape-group" data-index="6" clip-path="url(#clipac7088x)"><path data-index="6" fill-rule="evenodd" d="M117.64,572L117.64,60" style="opacity: 0.5; stroke: rgb(0, 128, 0); stroke-opacity: 1; fill: rgb(0, 0, 0); fill-opacity: 0; stroke-width: 2px;"/></g><g class="shape-group" data-index="7" clip-path="url(#clipac7088x)"><path data-index="7" fill-rule="evenodd" d="M152.11,572L152.11,60" style="opacity: 0.5; stroke: rgb(255, 0, 0); stroke-opacity: 1; fill: rgb(0, 0, 0); fill-opacity: 0; stroke-width: 2px;"/></g><g class="shape-group" data-index="8" clip-path="url(#clipac7088x)"><path data-index="8" fill-rule="evenodd" d="M168.12,572L168.12,60" style="opacity: 0.5; stroke: rgb(255, 0, 0); stroke-opacity: 1; fill: rgb(0, 0, 0); fill-opacity: 0; stroke-width: 2px;"/></g><g class="shape-group" data-index="9" clip-path="url(#clipac7088x)"><path data-index="9" fill-rule="evenodd" d="M194.35,572L194.35,60" style="opacity: 0.5; stroke: rgb(255, 0, 0); stroke-opacity: 1; fill: rgb(0, 0, 0); fill-opacity: 0; stroke-width: 2px;"/></g><g class="shape-group" data-index="10" clip-path="url(#clipac7088x)"><path data-index="10" fill-rule="evenodd" d="M197.43,572L197.43,60" style="opacity: 0.5; stroke: rgb(0, 128, 0); stroke-opacity: 1; fill: rgb(0, 0, 0); fill-opacity: 0; stroke-width: 2px;"/></g><g class="shape-group" data-index="11" clip-path="url(#clipac7088x)"><path data-index="11" fill-rule="evenodd" d="M213.8,572L213.8,60" style="opacity: 0.5; stroke: rgb(255, 0, 0); stroke-opacity: 1; fill: rgb(0, 0, 0); fill-opacity: 0; stroke-width: 2px;"/></g><g class="shape-group" data-index="12" clip-path="url(#clipac7088x)"><path data-index="12" fill-rule="evenodd" d="M226.12,572L226.12,60" style="opacity: 0.5; stroke: rgb(255, 0, 0); stroke-opacity: 1; fill: rgb(0, 0, 0); fill-opacity: 0; stroke-width: 2px;"/></g><g class="shape-group" data-index="13" clip-path="url(#clipac7088x)"><path data-index="13" fill-rule="evenodd" d="M254.93,572L254.93,60" style="opacity: 0.5; stroke: rgb(0, 128, 0); stroke-opacity: 1; fill: rgb(0, 0, 0); fill-opacity: 0; stroke-width: 2px;"/></g><g class="shape-group" data-index="14" clip-path="url(#clipac7088x)"><path data-index="14" fill-rule="evenodd" d="M255.05,572L255.05,60" style="opacity: 0.5; stroke: rgb(255, 0, 0); stroke-opacity: 1; fill: rgb(0, 0, 0); fill-opacity: 0; stroke-width: 2px;"/></g><g class="shape-group" data-index="15" clip-path="url(#clipac7088x)"><path data-index="15" fill-rule="evenodd" d="M291.25,572L291.25,60" style="opacity: 0.5; stroke: rgb(255, 0, 0); stroke-opacity: 1; fill: rgb(0, 0, 0); fill-opacity: 0; stroke-width: 2px;"/></g><g class="shape-group" data-index="16" clip-path="url(#clipac7088x)"><path data-index="16" fill-rule="evenodd" d="M303.07,572L303.07,60" style="opacity: 0.5; stroke: rgb(255, 0, 0); stroke-opacity: 1; fill: rgb(0, 0, 0); fill-opacity: 0; stroke-width: 2px;"/></g><g class="shape-group" data-index="17" clip-path="url(#clipac7088x)"><path data-index="17" fill-rule="evenodd" d="M310.83,572L310.83,60" style="opacity: 0.5; stroke: rgb(0, 128, 0); stroke-opacity: 1; fill: rgb(0, 0, 0); fill-opacity: 0; stroke-width: 2px;"/></g><g class="shape-group" data-index="18" clip-path="url(#clipac7088x)"><path data-index="18" fill-rule="evenodd" d="M323.76,572L323.76,60" style="opacity: 0.5; stroke: rgb(255, 0, 0); stroke-opacity: 1; fill: rgb(0, 0, 0); fill-opacity: 0; stroke-width: 2px;"/></g><g class="shape-group" data-index="19" clip-path="url(#clipac7088x)"><path data-index="19" fill-rule="evenodd" d="M328.68,572L328.68,60" style="opacity: 0.5; stroke: rgb(0, 128, 0); stroke-opacity: 1; fill: rgb(0, 0, 0); fill-opacity: 0; stroke-width: 2px;"/></g><g class="shape-group" data-index="20" clip-path="url(#clipac7088x)"><path data-index="20" fill-rule="evenodd" d="M329.42,572L329.42,60" style="opacity: 0.5; stroke: rgb(255, 0, 0); stroke-opacity: 1; fill: rgb(0, 0, 0); fill-opacity: 0; stroke-width: 2px;"/></g><g class="shape-group" data-index="21" clip-path="url(#clipac7088x)"><path data-index="21" fill-rule="evenodd" d="M352.57,572L352.57,60" style="opacity: 0.5; stroke: rgb(255, 0, 0); stroke-opacity: 1; fill: rgb(0, 0, 0); fill-opacity: 0; stroke-width: 2px;"/></g><g class="shape-group" data-index="22" clip-path="url(#clipac7088x)"><path data-index="22" fill-rule="evenodd" d="M369.68,572L369.68,60" style="opacity: 0.5; stroke: rgb(255, 0, 0); stroke-opacity: 1; fill: rgb(0, 0, 0); fill-opacity: 0; stroke-width: 2px;"/></g><g class="shape-group" data-index="23" clip-path="url(#clipac7088x)"><path data-index="23" fill-rule="evenodd" d="M389.88,572L389.88,60" style="opacity: 0.5; stroke: rgb(255, 0, 0); stroke-opacity: 1; fill: rgb(0, 0, 0); fill-opacity: 0; stroke-width: 2px;"/></g><g class="shape-group" data-index="24" clip-path="url(#clipac7088x)"><path data-index="24" fill-rule="evenodd" d="M405.88,572L405.88,60" style="opacity: 0.5; stroke: rgb(255, 0, 0); stroke-opacity: 1; fill: rgb(0, 0, 0); fill-opacity: 0; stroke-width: 2px;"/></g><g class="shape-group" data-index="25" clip-path="url(#clipac7088x)"><path data-index="25" fill-rule="evenodd" d="M421.28,572L421.28,60" style="opacity: 0.5; stroke: rgb(255, 0, 0); stroke-opacity: 1; fill: rgb(0, 0, 0); fill-opacity: 0; stroke-width: 2px;"/></g><g class="shape-group" data-index="26" clip-path="url(#clipac7088x)"><path data-index="26" fill-rule="evenodd" d="M437.41,572L437.41,60" style="opacity: 0.5; stroke: rgb(255, 0, 0); stroke-opacity: 1; fill: rgb(0, 0, 0); fill-opacity: 0; stroke-width: 2px;"/></g><g class="shape-group" data-index="27" clip-path="url(#clipac7088x)"><path data-index="27" fill-rule="evenodd" d="M456.49,572L456.49,60" style="opacity: 0.5; stroke: rgb(255, 0, 0); stroke-opacity: 1; fill: rgb(0, 0, 0); fill-opacity: 0; stroke-width: 2px;"/></g><g class="shape-group" data-index="28" clip-path="url(#clipac7088x)"><path data-index="28" fill-rule="evenodd" d="M470.04,572L470.04,60" style="opacity: 0.5; stroke: rgb(255, 0, 0); stroke-opacity: 1; fill: rgb(0, 0, 0); fill-opacity: 0; stroke-width: 2px;"/></g><g class="shape-group" data-index="29" clip-path="url(#clipac7088x)"><path data-index="29" fill-rule="evenodd" d="M517.0699999999999,572L517.0699999999999,60" style="opacity: 0.5; stroke: rgb(255, 0, 0); stroke-opacity: 1; fill: rgb(0, 0, 0); fill-opacity: 0; stroke-width: 2px;"/></g><g class="shape-group" data-index="30" clip-path="url(#clipac7088x)"><path data-index="30" fill-rule="evenodd" d="M528.52,572L528.52,60" style="opacity: 0.5; stroke: rgb(0, 128, 0); stroke-opacity: 1; fill: rgb(0, 0, 0); fill-opacity: 0; stroke-width: 2px;"/></g><g class="shape-group" data-index="31" clip-path="url(#clipac7088x)"><path data-index="31" fill-rule="evenodd" d="M530.37,572L530.37,60" style="opacity: 0.5; stroke: rgb(255, 0, 0); stroke-opacity: 1; fill: rgb(0, 0, 0); fill-opacity: 0; stroke-width: 2px;"/></g><g class="shape-group" data-index="32" clip-path="url(#clipac7088x)"><path data-index="32" fill-rule="evenodd" d="M550.93,572L550.93,60" style="opacity: 0.5; stroke: rgb(255, 0, 0); stroke-opacity: 1; fill: rgb(0, 0, 0); fill-opacity: 0; stroke-width: 2px;"/></g><g class="shape-group" data-index="33" clip-path="url(#clipac7088x)"><path data-index="33" fill-rule="evenodd" d="M566.94,572L566.94,60" style="opacity: 0.5; stroke: rgb(255, 0, 0); stroke-opacity: 1; fill: rgb(0, 0, 0); fill-opacity: 0; stroke-width: 2px;"/></g><g class="shape-group" data-index="34" clip-path="url(#clipac7088x)"><path data-index="34" fill-rule="evenodd" d="M585.04,572L585.04,60" style="opacity: 0.5; stroke: rgb(255, 0, 0); stroke-opacity: 1; fill: rgb(0, 0, 0); fill-opacity: 0; stroke-width: 2px;"/></g><g class="shape-group" data-index="35" clip-path="url(#clipac7088x)"><path data-index="35" fill-rule="evenodd" d="M607.08,572L607.08,60" style="opacity: 0.5; stroke: rgb(255, 0, 0); stroke-opacity: 1; fill: rgb(0, 0, 0); fill-opacity: 0; stroke-width: 2px;"/></g><g class="shape-group" data-index="36" clip-path="url(#clipac7088x)"><path data-index="36" fill-rule="evenodd" d="M616.19,572L616.19,60" style="opacity: 0.5; stroke: rgb(0, 128, 0); stroke-opacity: 1; fill: rgb(0, 0, 0); fill-opacity: 0; stroke-width: 2px;"/></g><g class="shape-group" data-index="37" clip-path="url(#clipac7088x)"><path data-index="37" fill-rule="evenodd" d="M616.93,572L616.93,60" style="opacity: 0.5; stroke: rgb(255, 0, 0); stroke-opacity: 1; fill: rgb(0, 0, 0); fill-opacity: 0; stroke-width: 2px;"/></g><g class="shape-group" data-index="38" clip-path="url(#clipac7088x)"><path data-index="38" fill-rule="evenodd" d="M633.43,572L633.43,60" style="opacity: 0.5; stroke: rgb(255, 0, 0); stroke-opacity: 1; fill: rgb(0, 0, 0); fill-opacity: 0; stroke-width: 2px;"/></g><g class="shape-group" data-index="39" clip-path="url(#clipac7088x)"><path data-index="39" fill-rule="evenodd" d="M666.67,572L666.67,60" style="opacity: 0.5; stroke: rgb(255, 0, 0); stroke-opacity: 1; fill: rgb(0, 0, 0); fill-opacity: 0; stroke-width: 2px;"/></g><g class="shape-group" data-index="40" clip-path="url(#clipac7088x)"><path data-index="40" fill-rule="evenodd" d="M666.92,572L666.92,60" style="opacity: 0.5; stroke: rgb(0, 128, 0); stroke-opacity: 1; fill: rgb(0, 0, 0); fill-opacity: 0; stroke-width: 2px;"/></g><g class="shape-group" data-index="41" clip-path="url(#clipac7088x)"><path data-index="41" fill-rule="evenodd" d="M689.7,572L689.7,60" style="opacity: 0.5; stroke: rgb(255, 0, 0); stroke-opacity: 1; fill: rgb(0, 0, 0); fill-opacity: 0; stroke-width: 2px;"/></g><g class="shape-group" data-index="42" clip-path="url(#clipac7088x)"><path data-index="42" fill-rule="evenodd" d="M690.44,572L690.44,60" style="opacity: 0.5; stroke: rgb(0, 128, 0); stroke-opacity: 1; fill: rgb(0, 0, 0); fill-opacity: 0; stroke-width: 2px;"/></g><g class="shape-group" data-index="43" clip-path="url(#clipac7088x)"><path data-index="43" fill-rule="evenodd" d="M706.69,572L706.69,60" style="opacity: 0.5; stroke: rgb(255, 0, 0); stroke-opacity: 1; fill: rgb(0, 0, 0); fill-opacity: 0; stroke-width: 2px;"/></g><g class="shape-group" data-index="44" clip-path="url(#clipac7088x)"><path data-index="44" fill-rule="evenodd" d="M744.49,572L744.49,60" style="opacity: 0.5; stroke: rgb(255, 0, 0); stroke-opacity: 1; fill: rgb(0, 0, 0); fill-opacity: 0; stroke-width: 2px;"/></g><g class="shape-group" data-index="45" clip-path="url(#clipac7088x)"><path data-index="45" fill-rule="evenodd" d="M745.97,572L745.97,60" style="opacity: 0.5; stroke: rgb(0, 128, 0); stroke-opacity: 1; fill: rgb(0, 0, 0); fill-opacity: 0; stroke-width: 2px;"/></g><g class="shape-group" data-index="46" clip-path="url(#clipac7088x)"><path data-index="46" fill-rule="evenodd" d="M758.28,572L758.28,60" style="opacity: 0.5; stroke: rgb(0, 128, 0); stroke-opacity: 1; fill: rgb(0, 0, 0); fill-opacity: 0; stroke-width: 2px;"/></g><g class="shape-group" data-index="47" clip-path="url(#clipac7088x)"><path data-index="47" fill-rule="evenodd" d="M759.27,572L759.27,60" style="opacity: 0.5; stroke: rgb(255, 0, 0); stroke-opacity: 1; fill: rgb(0, 0, 0); fill-opacity: 0; stroke-width: 2px;"/></g><g class="shape-group" data-index="48" clip-path="url(#clipac7088x)"><path data-index="48" fill-rule="evenodd" d="M771.58,572L771.58,60" style="opacity: 0.5; stroke: rgb(255, 0, 0); stroke-opacity: 1; fill: rgb(0, 0, 0); fill-opacity: 0; stroke-width: 2px;"/></g><g class="shape-group" data-index="49" clip-path="url(#clipac7088x)"><path data-index="49" fill-rule="evenodd" d="M778.23,572L778.23,60" style="opacity: 0.5; stroke: rgb(0, 128, 0); stroke-opacity: 1; fill: rgb(0, 0, 0); fill-opacity: 0; stroke-width: 2px;"/></g><g class="shape-group" data-index="50" clip-path="url(#clipac7088x)"><path data-index="50" fill-rule="evenodd" d="M785.49,572L785.49,60" style="opacity: 0.5; stroke: rgb(255, 0, 0); stroke-opacity: 1; fill: rgb(0, 0, 0); fill-opacity: 0; stroke-width: 2px;"/></g><g class="shape-group" data-index="51" clip-path="url(#clipac7088x)"><path data-index="51" fill-rule="evenodd" d="M792.76,572L792.76,60" style="opacity: 0.5; stroke: rgb(0, 128, 0); stroke-opacity: 1; fill: rgb(0, 0, 0); fill-opacity: 0; stroke-width: 2px;"/></g><g class="shape-group" data-index="52" clip-path="url(#clipac7088x)"><path data-index="52" fill-rule="evenodd" d="M799.28,572L799.28,60" style="opacity: 0.5; stroke: rgb(255, 0, 0); stroke-opacity: 1; fill: rgb(0, 0, 0); fill-opacity: 0; stroke-width: 2px;"/></g><g class="shape-group" data-index="53" clip-path="url(#clipac7088x)"><path data-index="53" fill-rule="evenodd" d="M820.09,572L820.09,60" style="opacity: 0.5; stroke: rgb(0, 128, 0); stroke-opacity: 1; fill: rgb(0, 0, 0); fill-opacity: 0; stroke-width: 2px;"/></g><g class="shape-group" data-index="54" clip-path="url(#clipac7088x)"><path data-index="54" fill-rule="evenodd" d="M834.74,572L834.74,60" style="opacity: 0.5; stroke: rgb(255, 0, 0); stroke-opacity: 1; fill: rgb(0, 0, 0); fill-opacity: 0; stroke-width: 2px;"/></g><g class="shape-group" data-index="55" clip-path="url(#clipac7088x)"><path data-index="55" fill-rule="evenodd" d="M851,572L851,60" style="opacity: 0.5; stroke: rgb(255, 0, 0); stroke-opacity: 1; fill: rgb(0, 0, 0); fill-opacity: 0; stroke-width: 2px;"/></g><g class="shape-group" data-index="56" clip-path="url(#clipac7088x)"><path data-index="56" fill-rule="evenodd" d="M855.18,572L855.18,60" style="opacity: 0.5; stroke: rgb(0, 128, 0); stroke-opacity: 1; fill: rgb(0, 0, 0); fill-opacity: 0; stroke-width: 2px;"/></g><g class="shape-group" data-index="57" clip-path="url(#clipac7088x)"><path data-index="57" fill-rule="evenodd" d="M866.39,572L866.39,60" style="opacity: 0.5; stroke: rgb(255, 0, 0); stroke-opacity: 1; fill: rgb(0, 0, 0); fill-opacity: 0; stroke-width: 2px;"/></g><g class="shape-group" data-index="58" clip-path="url(#clipac7088x)"><path data-index="58" fill-rule="evenodd" d="M867.5,572L867.5,60" style="opacity: 0.5; stroke: rgb(0, 128, 0); stroke-opacity: 1; fill: rgb(0, 0, 0); fill-opacity: 0; stroke-width: 2px;"/></g><g class="shape-group" data-index="59" clip-path="url(#clipac7088x)"><path data-index="59" fill-rule="evenodd" d="M884.74,572L884.74,60" style="opacity: 0.5; stroke: rgb(0, 128, 0); stroke-opacity: 1; fill: rgb(0, 0, 0); fill-opacity: 0; stroke-width: 2px;"/></g><g class="shape-group" data-index="60" clip-path="url(#clipac7088x)"><path data-index="60" fill-rule="evenodd" d="M888.06,572L888.06,60" style="opacity: 0.5; stroke: rgb(255, 0, 0); stroke-opacity: 1; fill: rgb(0, 0, 0); fill-opacity: 0; stroke-width: 2px;"/></g><g class="shape-group" data-index="61" clip-path="url(#clipac7088x)"><path data-index="61" fill-rule="evenodd" d="M906.41,572L906.41,60" style="opacity: 0.5; stroke: rgb(255, 0, 0); stroke-opacity: 1; fill: rgb(0, 0, 0); fill-opacity: 0; stroke-width: 2px;"/></g><g class="shape-group" data-index="62" clip-path="url(#clipac7088x)"><path data-index="62" fill-rule="evenodd" d="M918.97,572L918.97,60" style="opacity: 0.5; stroke: rgb(0, 128, 0); stroke-opacity: 1; fill: rgb(0, 0, 0); fill-opacity: 0; stroke-width: 2px;"/></g><g class="shape-group" data-index="63" clip-path="url(#clipac7088x)"><path data-index="63" fill-rule="evenodd" d="M919.58,572L919.58,60" style="opacity: 0.5; stroke: rgb(255, 0, 0); stroke-opacity: 1; fill: rgb(0, 0, 0); fill-opacity: 0; stroke-width: 2px;"/></g><g class="shape-group" data-index="64" clip-path="url(#clipac7088x)"><path data-index="64" fill-rule="evenodd" d="M945.93,572L945.93,60" style="opacity: 0.5; stroke: rgb(255, 0, 0); stroke-opacity: 1; fill: rgb(0, 0, 0); fill-opacity: 0; stroke-width: 2px;"/></g><g class="shape-group" data-index="65" clip-path="url(#clipac7088x)"><path data-index="65" fill-rule="evenodd" d="M977.94,572L977.94,60" style="opacity: 0.5; stroke: rgb(0, 128, 0); stroke-opacity: 1; fill: rgb(0, 0, 0); fill-opacity: 0; stroke-width: 2px;"/></g><g class="shape-group" data-index="66" clip-path="url(#clipac7088x)"><path data-index="66" fill-rule="evenodd" d="M980.16,572L980.16,60" style="opacity: 0.5; stroke: rgb(255, 0, 0); stroke-opacity: 1; fill: rgb(0, 0, 0); fill-opacity: 0; stroke-width: 2px;"/></g><g class="shape-group" data-index="67" clip-path="url(#clipac7088x)"><path data-index="67" fill-rule="evenodd" d="M1002.82,572L1002.82,60" style="opacity: 0.5; stroke: rgb(255, 0, 0); stroke-opacity: 1; fill: rgb(0, 0, 0); fill-opacity: 0; stroke-width: 2px;"/></g><g class="shape-group" data-index="68" clip-path="url(#clipac7088x)"><path data-index="68" fill-rule="evenodd" d="M1020.05,572L1020.05,60" style="opacity: 0.5; stroke: rgb(0, 128, 0); stroke-opacity: 1; fill: rgb(0, 0, 0); fill-opacity: 0; stroke-width: 2px;"/></g><g class="shape-group" data-index="69" clip-path="url(#clipac7088x)"><path data-index="69" fill-rule="evenodd" d="M1020.3,572L1020.3,60" style="opacity: 0.5; stroke: rgb(255, 0, 0); stroke-opacity: 1; fill: rgb(0, 0, 0); fill-opacity: 0; stroke-width: 2px;"/></g><g class="shape-group" data-index="70" clip-path="url(#clipac7088x)"><path data-index="70" fill-rule="evenodd" d="M1039.76,572L1039.76,60" style="opacity: 0.5; stroke: rgb(255, 0, 0); stroke-opacity: 1; fill: rgb(0, 0, 0); fill-opacity: 0; stroke-width: 2px;"/></g><g class="shape-group" data-index="71" clip-path="url(#clipac7088x)"><path data-index="71" fill-rule="evenodd" d="M1042.22,572L1042.22,60" style="opacity: 0.5; stroke: rgb(0, 128, 0); stroke-opacity: 1; fill: rgb(0, 0, 0); fill-opacity: 0; stroke-width: 2px;"/></g><g class="shape-group" data-index="72" clip-path="url(#clipac7088x)"><path data-index="72" fill-rule="evenodd" d="M1076.82,572L1076.82,60" style="opacity: 0.5; stroke: rgb(255, 0, 0); stroke-opacity: 1; fill: rgb(0, 0, 0); fill-opacity: 0; stroke-width: 2px;"/></g><g class="shape-group" data-index="73" clip-path="url(#clipac7088x)"><path data-index="73" fill-rule="evenodd" d="M1077.68,572L1077.68,60" style="opacity: 0.5; stroke: rgb(0, 128, 0); stroke-opacity: 1; fill: rgb(0, 0, 0); fill-opacity: 0; stroke-width: 2px;"/></g><g class="shape-group" data-index="74" clip-path="url(#clipac7088x)"><path data-index="74" fill-rule="evenodd" d="M1089.25,572L1089.25,60" style="opacity: 0.5; stroke: rgb(255, 0, 0); stroke-opacity: 1; fill: rgb(0, 0, 0); fill-opacity: 0; stroke-width: 2px;"/></g><g class="shape-group" data-index="75" clip-path="url(#clipac7088x)"><path data-index="75" fill-rule="evenodd" d="M1109.57,572L1109.57,60" style="opacity: 0.5; stroke: rgb(255, 0, 0); stroke-opacity: 1; fill: rgb(0, 0, 0); fill-opacity: 0; stroke-width: 2px;"/></g><g class="shape-group" data-index="76" clip-path="url(#clipac7088x)"><path data-index="76" fill-rule="evenodd" d="M1126.93,572L1126.93,60" style="opacity: 0.5; stroke: rgb(255, 0, 0); stroke-opacity: 1; fill: rgb(0, 0, 0); fill-opacity: 0; stroke-width: 2px;"/></g><g class="shape-group" data-index="77" clip-path="url(#clipac7088x)"><path data-index="77" fill-rule="evenodd" d="M1153.65,572L1153.65,60" style="opacity: 0.5; stroke: rgb(255, 0, 0); stroke-opacity: 1; fill: rgb(0, 0, 0); fill-opacity: 0; stroke-width: 2px;"/></g><g class="shape-group" data-index="78" clip-path="url(#clipac7088x)"><path data-index="78" fill-rule="evenodd" d="M1158.58,572L1158.58,60" style="opacity: 0.5; stroke: rgb(0, 128, 0); stroke-opacity: 1; fill: rgb(0, 0, 0); fill-opacity: 0; stroke-width: 2px;"/></g></g></g><g class="infolayer"><g class="g-gtitle"><text class="gtitle" x="60" y="30" text-anchor="start" dy="0em" style="font-family: 'Open Sans', verdana, arial, sans-serif; font-size: 17px; fill: rgb(42, 63, 95); opacity: 1; font-weight: normal; white-space: pre;">Concept drift detected in the temperature</text></g><g class="g-xtitle"/><g class="g-ytitle"/></g></svg>